<svg width="54" height="37" viewBox="0 0 54 37" fill="none" xmlns="http://www.w3.org/2000/svg">
<rect x="1.15234" y="0.5" width="52.0417" height="36" rx="6.5" fill="#1F72CD" stroke="#1F72CD"/>
<path fill-rule="evenodd" clip-rule="evenodd" d="M10.8029 13.3965L6.02734 23.9647H11.7444L12.4531 22.2796H14.0731L14.7819 23.9647H21.0747V22.6786L21.6354 23.9647H24.8906L25.4513 22.6514V23.9647H38.5387L40.1301 22.3234L41.6202 23.9647L48.3421 23.9782L43.5515 18.7101L48.3421 13.3965H41.7244L40.1753 15.0074L38.7321 13.3965H24.4948L23.2722 16.1242L22.021 13.3965H16.3159V14.6388L15.6812 13.3965H10.8029ZM30.3462 14.8972H37.8616L40.1602 17.3801L42.5329 14.8972H44.8316L41.3391 18.7086L44.8316 22.4761H42.4287L40.1301 19.9643L37.7453 22.4761H30.3462V14.8972ZM32.2021 17.8516V16.4673V16.466H36.8915L38.9377 18.6799L36.8008 20.9059H32.2021V19.3946H36.3021V17.8516H32.2021ZM11.9091 14.8972H14.6959L17.8635 22.0635V14.8972H20.9163L23.3629 20.0354L25.6177 14.8972H28.6553V22.4805H26.807L26.7919 16.5383L24.0973 22.4805H22.444L19.7343 16.5383V22.4805H15.932L15.2112 20.7805H11.3167L10.5974 22.479H8.56016L11.9091 14.8972ZM11.9817 19.2088L13.2648 16.1802L14.5463 19.2088H11.9817Z" fill="white"/>
</svg>
