<svg width="54" height="38" viewBox="0 0 54 38" fill="none" xmlns="http://www.w3.org/2000/svg">
<rect x="0.995799" y="1.34345" width="51.4223" height="35.6697" rx="4.59582" fill="white" stroke="#E8E9EA" stroke-width="1.31309"/>
<path fill-rule="evenodd" clip-rule="evenodd" d="M13.6007 14.7889C14.2736 14.8457 14.9466 14.4483 15.3672 13.9445C15.7808 13.4265 16.0541 12.7311 15.984 12.0215C15.3882 12.0499 14.6522 12.4189 14.2316 12.9369C13.846 13.3839 13.5165 14.1077 13.6007 14.7889ZM21.6043 23.9272V12.866H25.7052C27.8222 12.866 29.3013 14.3417 29.3013 16.4986C29.3013 18.6555 27.7941 20.1455 25.6491 20.1455H23.3007V23.9272H21.6043ZM15.9756 14.9235C15.3828 14.889 14.8418 15.104 14.4049 15.2776C14.1237 15.3894 13.8856 15.484 13.7044 15.484C13.5011 15.484 13.2532 15.3843 12.9748 15.2724C12.61 15.1257 12.193 14.958 11.7557 14.9661C10.7532 14.9803 9.82092 15.555 9.3092 16.4702C8.25771 18.3008 9.03581 21.0111 10.0523 22.5011C10.55 23.2389 11.1458 24.0478 11.9309 24.0194C12.2763 24.0062 12.5248 23.8995 12.7819 23.7891C13.0779 23.6619 13.3855 23.5298 13.8657 23.5298C14.3292 23.5298 14.6233 23.6585 14.9056 23.782C15.174 23.8994 15.4318 24.0121 15.8144 24.0052C16.6276 23.991 17.1393 23.2673 17.637 22.5294C18.1741 21.7375 18.4101 20.9646 18.446 20.8473L18.4502 20.8337C18.4493 20.8328 18.4427 20.8298 18.431 20.8243C18.2514 20.7411 16.8791 20.1053 16.8659 18.4001C16.8527 16.9689 17.9544 16.2437 18.1278 16.1296C18.1384 16.1226 18.1455 16.1179 18.1487 16.1155C17.4477 15.0654 16.3542 14.9519 15.9756 14.9235ZM32.3997 24.0126C33.4652 24.0126 34.4536 23.4662 34.9023 22.6006H34.9373V23.9274H36.5075V18.4216C36.5075 16.8252 35.2458 15.7965 33.304 15.7965C31.5025 15.7965 30.1706 16.8394 30.1215 18.2726H31.6497C31.7758 17.5915 32.3997 17.1445 33.2549 17.1445C34.2924 17.1445 34.8742 17.6341 34.8742 18.5352V19.1453L32.7572 19.273C30.7874 19.3937 29.7219 20.2096 29.7219 21.6286C29.7219 23.0618 30.8225 24.0126 32.3997 24.0126ZM32.8564 22.6997C31.9521 22.6997 31.3773 22.2597 31.3773 21.5856C31.3773 20.8902 31.9311 20.4857 32.9896 20.4219L34.8753 20.3013V20.9257C34.8753 21.9617 34.006 22.6997 32.8564 22.6997ZM41.7151 24.36C41.0351 26.297 40.257 26.9356 38.6026 26.9356C38.4765 26.9356 38.0559 26.9214 37.9577 26.893V25.5662C38.0629 25.5804 38.3222 25.5946 38.4554 25.5946C39.2055 25.5946 39.6261 25.2753 39.8855 24.4452L40.0397 23.9556L37.1656 15.9027H38.9391L40.937 22.4373H40.972L42.9698 15.9027H44.6943L41.7151 24.36ZM23.3017 14.313H25.2575C26.7295 14.313 27.5707 15.1078 27.5707 16.5057C27.5707 17.9036 26.7295 18.7054 25.2504 18.7054H23.3017V14.313Z" fill="black"/>
</svg>
