<svg width="22" height="22" viewBox="0 0 22 22" fill="none" xmlns="http://www.w3.org/2000/svg">
                                <path d="M20.134 16.8012C20.134 17.1312 20.0606 17.4704 19.9048 17.8004C19.749 18.1304 19.5473 18.442 19.2815 18.7354C18.8323 19.2304 18.3373 19.5879 17.7781 19.817C17.2281 20.0462 16.6323 20.1654 15.9906 20.1654C15.0556 20.1654 14.0565 19.9454 13.0023 19.4962C11.9481 19.047 10.894 18.442 9.84896 17.6812C8.79479 16.9112 7.79563 16.0587 6.84229 15.1145C5.89813 14.1612 5.04563 13.162 4.28479 12.117C3.53312 11.072 2.92813 10.027 2.48813 8.9912C2.04813 7.9462 1.82812 6.94703 1.82812 5.9937C1.82812 5.37036 1.93812 4.77453 2.15812 4.22453C2.37812 3.66536 2.72646 3.15203 3.21229 2.6937C3.79896 2.1162 4.44063 1.83203 5.11896 1.83203C5.37563 1.83203 5.63229 1.88703 5.86146 1.99703C6.09979 2.10703 6.31063 2.27203 6.47563 2.51036L8.60229 5.50786C8.76729 5.73703 8.88646 5.94786 8.96896 6.14953C9.05146 6.34203 9.09729 6.53453 9.09729 6.7087C9.09729 6.9287 9.03313 7.1487 8.90479 7.35953C8.78563 7.57036 8.61146 7.79036 8.39146 8.01036L7.69479 8.73453C7.59396 8.83536 7.54813 8.95453 7.54813 9.1012C7.54813 9.17453 7.55729 9.2387 7.57563 9.31203C7.60313 9.38536 7.63063 9.44036 7.64896 9.49536C7.81396 9.79786 8.09813 10.192 8.50146 10.6687C8.91396 11.1454 9.35396 11.6312 9.83063 12.117C10.3256 12.6029 10.8023 13.052 11.2881 13.4645C11.7648 13.8679 12.159 14.1429 12.4706 14.3079C12.5165 14.3262 12.5715 14.3537 12.6356 14.3812C12.709 14.4087 12.7823 14.4179 12.8648 14.4179C13.0206 14.4179 13.1398 14.3629 13.2406 14.262L13.9373 13.5745C14.1665 13.3454 14.3865 13.1712 14.5973 13.0612C14.8081 12.9329 15.019 12.8687 15.2481 12.8687C15.4223 12.8687 15.6056 12.9054 15.8073 12.9879C16.009 13.0704 16.2198 13.1895 16.449 13.3454L19.4831 15.4995C19.7215 15.6645 19.8865 15.857 19.9873 16.0862C20.079 16.3154 20.134 16.5445 20.134 16.8012Z" stroke="#F6FAFF" stroke-width="1.375" stroke-miterlimit="10"></path>
                                <path d="M16.9505 8.24935C16.9505 7.69935 16.5197 6.85602 15.878 6.16852C15.2914 5.53602 14.5122 5.04102 13.7422 5.04102" stroke="#F6FAFF" stroke-width="1.375" stroke-linecap="round" stroke-linejoin="round"></path>
                                <path d="M20.1589 8.2487C20.1589 4.7012 17.2897 1.83203 13.7422 1.83203" stroke="#F6FAFF" stroke-width="1.375" stroke-linecap="round" stroke-linejoin="round"></path>
                            </svg>