<svg width="20" height="21" viewBox="0 0 20 21" fill="none" xmlns="http://www.w3.org/2000/svg">
<path d="M3.54709 14.3279C2.61653 12.7579 2.29103 10.9023 2.6317 9.10931C2.97237 7.31633 3.95578 5.70936 5.39731 4.59007C6.83883 3.47078 8.63934 2.91615 10.4608 3.0303C12.2823 3.14446 13.9995 3.91954 15.29 5.21004C16.5805 6.50055 17.3556 8.21773 17.4697 10.0392C17.5839 11.8607 17.0292 13.6612 15.91 15.1027C14.7907 16.5442 13.1837 17.5277 11.3907 17.8683C9.59775 18.209 7.74208 17.8835 6.17209 16.9529V16.9529L3.57834 17.6873C3.47207 17.7184 3.3594 17.7203 3.25213 17.6929C3.14487 17.6654 3.04696 17.6097 2.96866 17.5314C2.89037 17.4531 2.83459 17.3552 2.80715 17.2479C2.77971 17.1406 2.78163 17.028 2.81271 16.9217L3.54709 14.3279Z" stroke="#F7F7F7" stroke-width="1.25" stroke-linecap="round" stroke-linejoin="round"/>
<path d="M10 11.4375C10.5178 11.4375 10.9375 11.0178 10.9375 10.5C10.9375 9.98223 10.5178 9.5625 10 9.5625C9.48223 9.5625 9.0625 9.98223 9.0625 10.5C9.0625 11.0178 9.48223 11.4375 10 11.4375Z" fill="#F7F7F7"/>
<path d="M6.25 11.4375C6.76777 11.4375 7.1875 11.0178 7.1875 10.5C7.1875 9.98223 6.76777 9.5625 6.25 9.5625C5.73223 9.5625 5.3125 9.98223 5.3125 10.5C5.3125 11.0178 5.73223 11.4375 6.25 11.4375Z" fill="#F7F7F7"/>
<path d="M13.75 11.4375C14.2678 11.4375 14.6875 11.0178 14.6875 10.5C14.6875 9.98223 14.2678 9.5625 13.75 9.5625C13.2322 9.5625 12.8125 9.98223 12.8125 10.5C12.8125 11.0178 13.2322 11.4375 13.75 11.4375Z" fill="#F7F7F7"/>
</svg>
