<svg width="86" height="86" viewBox="0 0 86 86" fill="none" xmlns="http://www.w3.org/2000/svg">
<rect width="86" height="86" rx="10.0333" fill="#EEF4FF"/>
<path d="M37.6397 64.2011C37.6031 64.3052 37.6062 64.4437 37.6085 64.5476C37.6543 64.8592 38.008 65.0311 38.3212 65.1339C38.6337 65.2021 38.9834 65.2009 39.334 65.2343C39.9193 65.3361 40.3926 65.6462 40.9405 65.8174C41.5273 65.9886 42.1888 66.0208 42.8068 65.8455C43.0773 65.7752 43.3843 65.601 43.4567 65.3582C43.5267 65.0116 43.093 64.736 42.7005 64.5642C42.1899 64.3236 41.6792 64.0829 41.244 63.7381C40.8088 63.3932 40.4871 62.9094 40.4374 62.4247C40.3908 62.0785 40.4585 61.6279 40.1438 61.4558C40.0256 61.387 39.8694 61.3529 39.7139 61.3535C39.4022 61.3199 38.6996 61.1838 38.4299 61.2887C38.1221 61.4284 38.1679 61.7399 38.0971 62.0519C37.9182 62.7453 37.7789 63.4732 37.6397 64.2011Z" fill="#281B1C"/>
<path d="M36.442 50.2363C36.687 50.6539 36.9319 51.0715 37.0205 51.5246C37.0659 51.8034 37.0327 52.0826 37.0389 52.3616C37.0465 52.7104 37.1713 53.0238 37.2576 53.3723C37.4686 54.0341 37.6403 54.6962 37.8513 55.358C37.936 55.6367 38.0215 55.9503 37.8296 56.1604C37.7141 56.2655 37.5584 56.3359 37.5622 56.5103C37.5661 56.6847 37.8434 56.7882 37.9644 56.9272C38.2456 57.2051 37.9412 57.6598 37.8702 58.0089C37.8008 58.4277 38.1244 58.845 38.095 59.2986C38.0642 59.6824 37.7575 60.0324 37.7659 60.4161C37.7758 60.8695 38.178 61.2864 38.6919 61.4238C39.1672 61.5963 39.7166 61.5592 40.2267 61.5223C40.3446 61.5218 40.4624 61.5213 40.5395 61.4512C40.9664 61.2054 40.3986 60.4054 40.8656 60.1942C40.9434 60.159 41.022 60.1587 41.0998 60.1235C41.2555 60.0531 41.3302 59.8784 41.3657 59.7039C41.9076 57.5391 43.3171 55.5103 43.0331 53.314C42.9392 52.6168 42.7282 51.9549 42.4786 51.328C42.2268 50.5966 41.9356 49.8653 41.6838 49.1338C41.559 48.8204 41.4735 48.5068 41.2316 48.2287C40.8673 47.7419 40.2725 47.5001 39.6769 47.2235C39.0421 46.947 35.0281 44.9053 34.6837 45.3253C34.4548 45.6401 35.2389 47.3461 35.3652 47.7293C35.661 48.6699 35.9929 49.4708 36.442 50.2363Z" fill="#274459"/>
<path d="M40.7066 53.7369C40.8814 54.4357 41.0161 55.1347 40.9106 55.8352C40.8072 56.6407 40.382 57.3782 40.3187 58.1834C40.2867 58.5685 40.3355 58.9881 40.1833 59.374C40.0697 59.6896 39.7938 59.9013 39.6802 60.217C39.5666 60.5326 39.6955 60.9517 40.0173 61.0197C40.2911 60.703 40.2409 60.2135 40.4338 59.8623C40.5095 59.6519 40.6668 59.5109 40.8226 59.3C41.4073 58.5265 41.6286 57.6153 41.8499 56.7041C42.0713 55.7929 42.2926 54.8817 42.2729 53.937C42.2415 52.4326 41.6109 51.0018 40.9016 49.6416C40.6926 49.223 40.4028 48.7699 39.9965 48.4925C39.8741 48.3883 39.7125 48.3193 39.553 48.3553C39.0732 48.3933 39.4839 48.8806 39.5684 49.09C39.7788 49.5786 39.8706 50.1379 40.0017 50.662C40.2231 51.6754 40.4845 52.6885 40.7066 53.7369Z" fill="#35526D"/>
<path d="M39.5107 55.4416C39.2406 55.5117 38.9712 55.6163 38.7802 55.7553C38.5512 55.9289 38.4401 56.1712 38.4843 56.4129C38.7941 56.3772 39.103 56.307 39.4112 56.2022C39.7202 56.1319 40.0657 55.9579 40.0595 55.6815C40.0557 55.5087 39.8578 55.3366 39.6249 55.3375C39.4308 55.3382 39.1995 55.4082 39.0861 55.5468" fill="#CA0007"/>
<path d="M38.7562 56.9581C38.6793 56.9928 38.6025 57.0276 38.5257 57.0623C38.6467 57.2685 38.8832 57.4399 39.1175 57.5079C39.2734 57.5417 39.4665 57.5065 39.503 57.403C39.5775 57.265 39.4193 57.1278 39.3014 57.0593C39.0664 56.9569 38.7942 56.9235 38.5638 57.0277" fill="#CA0007"/>
<path d="M26.4592 60.4724L24.1777 60.4865L23.9688 50.4805L26.2502 50.4663L26.4592 60.4724ZM24.3742 60.3103L26.2154 60.2989L26.0137 50.6427L24.1725 50.6542L24.3742 60.3103Z" fill="#99CACA"/>
<path d="M26.2124 60.9127L24.2775 59.9457L29.6694 51.3004L31.6043 52.2674L26.2124 60.9127ZM24.5493 59.8752L26.1289 60.6695L31.3325 52.338L29.7529 51.5436L24.5493 59.8752Z" fill="#99CACA"/>
<path d="M25.7295 61.2055L24.6059 59.5177L34.1153 54.5441L35.239 56.2319L25.7295 61.2055ZM24.8789 59.5857L25.8017 60.9636L34.966 56.1639L34.0431 54.7861L24.8789 59.5857Z" fill="#99CACA"/>
<path d="M36.2184 61.2636L25.182 61.3342L25.1406 59.4062L36.1771 59.3357L36.2184 61.2636ZM25.3713 61.1638L36.0219 61.0958L35.9885 59.5399L25.3379 59.608L25.3713 61.1638Z" fill="#99CACA"/>
<path d="M34.3291 66.1228L24.6001 61.2212L25.6485 59.5252L35.3776 64.4269L34.3291 66.1228ZM24.8701 61.1511L34.2462 65.8814L35.1076 64.4969L25.7315 59.7666L24.8701 61.1511Z" fill="#99CACA"/>
<path d="M29.9881 69.427L24.213 60.8215L26.1046 59.8408L31.8797 68.4463L29.9881 69.427ZM24.4879 60.8901L30.0608 69.1833L31.6048 68.3777L26.0319 60.0846L24.4879 60.8901Z" fill="#99CACA"/>
<path d="M26.5842 70.3278L24.3027 70.342L24.0938 60.3359L26.3752 60.3218L26.5842 70.3278ZM24.4992 70.1658L26.3404 70.1544L26.1387 60.4982L24.2975 60.5096L24.4992 70.1658Z" fill="#99CACA"/>
<path d="M20.8921 69.5143L18.9572 68.5473L24.3491 59.902L26.2839 60.869L20.8921 69.5143ZM19.229 68.4767L20.8086 69.2711L26.0122 60.9395L24.4326 60.1451L19.229 68.4767Z" fill="#99CACA"/>
<path d="M16.4405 66.2605L15.3168 64.5726L24.7877 59.599L25.9114 61.2869L16.4405 66.2605ZM15.5899 64.6407L16.5127 66.0185L25.6772 61.2187L24.7543 59.8408L15.5899 64.6407Z" fill="#99CACA"/>
<path d="M25.4098 61.4043L14.3734 61.4748L14.332 59.5469L25.3685 59.4763L25.4098 61.4043ZM14.5627 61.3045L25.2133 61.2364L25.1799 59.6805L14.5293 59.7486L14.5627 61.3045Z" fill="#99CACA"/>
<path d="M24.8758 61.2846L15.147 56.3832L16.1954 54.6873L25.963 59.5886L24.8758 61.2846ZM15.4557 56.313L24.8316 61.0431L25.693 59.6586L16.3171 54.9286L15.4557 56.313Z" fill="#99CACA"/>
<path d="M24.4569 60.9622L18.6818 52.3567L20.5734 51.376L26.3484 59.9815L24.4569 60.9622ZM18.9567 52.4252L24.5295 60.7184L26.0736 59.9129L20.5007 51.6197L18.9567 52.4252Z" fill="#99CACA"/>
<path d="M62.4748 60.0192L60.1934 60.0334L59.9844 50.0273L62.2659 50.0132L62.4748 60.0192ZM60.3898 59.8572L62.231 59.8458L62.0294 50.1896L60.1882 50.201L60.3898 59.8572Z" fill="#99CACA"/>
<path d="M62.1851 60.4596L60.2502 59.4926L65.6421 50.8473L67.5769 51.8143L62.1851 60.4596ZM60.561 59.4219L62.1406 60.2163L67.3442 51.8847L65.7646 51.0903L60.561 59.4219Z" fill="#99CACA"/>
<path d="M61.7412 60.7524L60.6176 59.0646L70.1271 54.091L71.2507 55.7788L61.7412 60.7524ZM60.8906 59.1326L61.8134 60.5104L70.9777 55.7108L70.0549 54.333L60.8906 59.1326Z" fill="#99CACA"/>
<path d="M72.238 60.8105L61.2015 60.8811L61.1602 58.9531L72.1966 58.8826L72.238 60.8105ZM61.3908 60.7107L72.0414 60.6426L72.008 59.0868L61.3575 59.1548L61.3908 60.7107Z" fill="#99CACA"/>
<path d="M70.333 65.6697L60.604 60.7681L61.6525 59.0721L71.3815 63.9737L70.333 65.6697ZM60.874 60.698L70.2501 65.4283L71.1115 64.0438L61.7354 59.3135L60.874 60.698Z" fill="#99CACA"/>
<path d="M65.9608 68.9739L60.1857 60.3684L62.0773 59.3877L67.8524 67.9932L65.9608 68.9739ZM60.4996 60.4368L66.0725 68.73L67.6165 67.9245L62.0436 59.6313L60.4996 60.4368Z" fill="#99CACA"/>
<path d="M62.5998 69.8786L60.3184 69.8928L60.1094 59.8867L62.3909 59.8726L62.5998 69.8786ZM60.5148 69.7166L62.356 69.7052L62.1544 60.049L60.3132 60.0604L60.5148 69.7166Z" fill="#99CACA"/>
<path d="M56.9038 69.0592L54.969 68.0922L60.3608 59.4469L62.2957 60.4139L56.9038 69.0592ZM55.2407 68.0217L56.8203 68.816L62.0239 60.4844L60.4443 59.6901L55.2407 68.0217Z" fill="#99CACA"/>
<path d="M52.4561 65.8188L51.3324 64.131L60.8419 59.1574L61.9656 60.8452L52.4561 65.8188ZM51.6055 64.199L52.5283 65.5768L61.6925 60.7772L60.7697 59.3994L51.6055 64.199Z" fill="#99CACA"/>
<path d="M61.4255 60.9453L50.389 61.0158L50.3477 59.0879L61.3841 59.0173L61.4255 60.9453ZM50.5783 60.8455L61.2289 60.7774L61.1955 59.2215L50.545 59.2896L50.5783 60.8455Z" fill="#99CACA"/>
<path d="M60.8877 60.8377L51.1587 55.936L52.2071 54.2401L61.9362 59.1417L60.8877 60.8377ZM51.4675 55.8658L60.8436 60.5961L61.705 59.2116L52.3289 54.4813L51.4675 55.8658Z" fill="#99CACA"/>
<path d="M60.4686 60.509L54.6935 51.9035L56.5851 50.9229L62.3602 59.5284L60.4686 60.509ZM54.9684 51.9721L60.5413 60.2653L62.0853 59.4598L56.5124 51.1666L54.9684 51.9721Z" fill="#99CACA"/>
<path d="M55.1099 43.3062L55.0612 41.1174C55.0589 41.0132 55.0963 40.9435 55.1338 40.8739C55.1712 40.8043 55.2476 40.7345 55.3638 40.6994L57.7249 39.9267C58.1116 39.7864 58.337 39.4034 58.1726 39.0218C58.0089 38.6749 57.5755 38.4679 57.1497 38.6084L54.7886 39.3811C54.4019 39.5214 54.0564 39.7658 53.7897 40.0447C53.5628 40.3582 53.4153 40.741 53.4238 41.1231L53.4725 43.3119C53.481 43.6941 53.8389 44.0055 54.2677 44.004C54.7745 44.0023 55.1184 43.6883 55.1099 43.3062Z" fill="black"/>
<path fill-rule="evenodd" clip-rule="evenodd" d="M25.0004 48.9417C32.0407 48.9171 37.8324 53.959 37.9722 60.2342C38.112 66.5095 32.5459 71.5912 25.5056 71.6159C18.5042 71.6404 12.6737 66.5987 12.5339 60.3234C12.4337 54.0827 17.999 48.9663 25.0004 48.9417ZM25.0259 50.0859C18.7247 50.1079 13.6923 54.7024 13.8174 60.3189C13.9426 65.9354 19.1789 70.4939 25.4801 70.4718C31.7814 70.4497 36.8137 65.8553 36.6886 60.2387C36.5635 54.6222 31.366 50.0636 25.0259 50.0859Z" fill="#000039"/>
<path fill-rule="evenodd" clip-rule="evenodd" d="M25.0332 50.0947C31.3345 50.0726 36.5708 54.631 36.6959 60.2476C36.8211 65.8641 31.7887 70.4585 25.4875 70.4806C19.1862 70.5027 13.9499 65.9443 13.8248 60.3277C13.6996 54.7112 18.732 50.1168 25.0332 50.0947ZM25.0495 50.8228C19.1761 50.8433 14.5249 55.0897 14.6416 60.3249C14.7582 65.56 19.5979 69.7731 25.4712 69.7525C31.3446 69.7319 35.9957 65.4856 35.8791 60.2504C35.8014 55.0151 30.9228 50.8022 25.0495 50.8228Z" fill="#98B8B8"/>
<path fill-rule="evenodd" clip-rule="evenodd" d="M25.281 61.2869C25.9034 61.2847 26.3602 60.8325 26.3486 60.3125C26.3363 59.7579 25.8213 59.3437 25.2377 59.3458C24.6153 59.348 24.1585 59.8002 24.1701 60.3202C24.1816 60.8401 24.6974 61.2889 25.281 61.2869Z" fill="#99CACA"/>
<path fill-rule="evenodd" clip-rule="evenodd" d="M24.8724 48.6151C24.6779 48.6158 24.4835 48.6165 24.2891 48.6172L24.2937 48.8251C24.3006 49.1371 24.5783 49.3787 24.929 49.4122C31.4627 49.4239 36.8151 54.0152 37.1766 59.7679C37.1836 60.0798 37.5001 60.3214 37.85 60.3201L38.1222 60.3192C38.1207 60.2499 38.1192 60.1805 38.1176 60.1112C37.9366 53.734 32.0275 48.59 24.8724 48.6151Z" fill="#0D4CB8"/>
<path fill-rule="evenodd" clip-rule="evenodd" d="M61.0199 48.4886C68.0602 48.4639 73.8519 53.5059 73.9917 59.7811C74.1315 66.0564 68.5654 71.1381 61.5252 71.1628C54.4849 71.1874 48.6932 66.1455 48.5534 59.8703C48.4143 53.6297 54.0186 48.5132 61.0199 48.4886ZM61.0454 49.6327C54.7442 49.6548 49.7118 54.2492 49.837 59.8658C49.9621 65.4823 55.1984 70.0407 61.4997 70.0186C67.8009 69.9966 72.8333 65.4021 72.7081 59.7856C72.583 54.1691 67.3856 49.6105 61.0454 49.6327Z" fill="#000039"/>
<path fill-rule="evenodd" clip-rule="evenodd" d="M61.045 49.6416C67.3462 49.6195 72.5825 54.1779 72.7076 59.7944C72.8328 65.411 67.8004 70.0054 61.4992 70.0275C55.1979 70.0496 49.9616 65.4911 49.8365 59.8746C49.7113 54.2581 54.7437 49.6636 61.045 49.6416ZM61.0612 50.3696C55.1878 50.3902 50.5367 54.6366 50.6533 59.8717C50.77 65.1069 55.6096 69.32 61.483 69.2994C67.3563 69.2788 72.0075 65.0325 71.8908 59.7973C71.7742 54.5621 66.9346 50.349 61.0612 50.3696Z" fill="#98B8B8"/>
<path fill-rule="evenodd" clip-rule="evenodd" d="M61.2966 60.8396C61.919 60.8374 62.3758 60.3852 62.3642 59.8653C62.3519 59.3107 61.8369 58.8965 61.2533 58.8985C60.6309 58.9007 60.1741 59.353 60.1857 59.8729C60.1973 60.3928 60.713 60.8417 61.2966 60.8396Z" fill="#99CACA"/>
<path fill-rule="evenodd" clip-rule="evenodd" d="M61.1365 48.2747C61.331 48.274 61.5254 48.2733 61.7198 48.2726L61.7244 48.4806C61.7314 48.7925 61.4646 49.0361 61.1154 49.072C54.5832 49.1296 49.4363 53.7578 49.3312 59.5122C49.3381 59.8241 49.0324 60.0678 48.6824 60.069L48.4102 60.07C48.4087 60.0007 48.4071 59.9313 48.4056 59.862C48.3024 53.4845 53.9814 48.2998 61.1365 48.2747Z" fill="#0D4CB8"/>
<path fill-rule="evenodd" clip-rule="evenodd" d="M42.0463 63.8168C42.3597 63.8852 42.5218 64.1626 42.4501 64.4409C42.3783 64.7191 42.0695 64.8592 41.756 64.7908L25.0568 60.7839C24.7434 60.7155 24.5813 60.4381 24.6531 60.1599C24.6523 60.1252 24.6905 60.0903 24.6897 60.0555L33.9092 45.0819C34.0598 44.8382 34.4091 44.7674 34.6851 44.9055C34.9611 45.0435 35.046 45.3559 34.8955 45.5997L26.0527 59.9813L42.0463 63.8168Z" fill="#0D4CB8"/>
<path fill-rule="evenodd" clip-rule="evenodd" d="M42.0106 64.0188L25.7024 60.1147L34.7347 45.4536C34.8096 45.3143 34.7667 45.1407 34.6092 45.0718C34.4517 45.0029 34.2575 45.0383 34.1826 45.1775L24.9624 60.152L24.925 60.2217C24.8891 60.3608 24.9709 60.5342 25.1666 60.5683L41.867 64.5753C42.0238 64.6095 42.2172 64.5393 42.2523 64.3655C42.2484 64.1917 42.1674 64.053 42.0106 64.0188Z" fill="#3578EA"/>
<path fill-rule="evenodd" clip-rule="evenodd" d="M33.5776 45.4469C33.4115 45.0636 33.6396 44.6786 34.0702 44.537C34.5007 44.3955 34.9389 44.6031 35.1049 44.9864L42.6558 64.0493C42.8218 64.4326 42.5937 64.8176 42.1631 64.9591C41.7326 65.1007 41.2944 64.8931 41.1284 64.5098L33.5776 45.4469Z" fill="#0D4CB8"/>
<path fill-rule="evenodd" clip-rule="evenodd" d="M33.807 45.377L41.363 64.443C41.4472 64.687 41.7659 64.8253 42.0405 64.7542C42.3151 64.6832 42.4669 64.4031 42.3827 64.1591L34.8267 45.0932C34.7425 44.8491 34.4238 44.7109 34.1492 44.7819C33.8746 44.853 33.7228 45.133 33.807 45.377Z" fill="#0D4CB8"/>
<path fill-rule="evenodd" clip-rule="evenodd" d="M61.5832 59.3583C61.899 59.4617 62.0228 59.74 61.9505 60.0191C61.8391 60.2983 61.5279 60.404 61.2128 60.3355C59.7126 59.8534 57.3501 57.5972 55.6785 54.6763C54.4142 52.4508 53.5327 49.8056 53.6717 47.2262C53.7048 46.9473 53.9745 46.7372 54.2889 46.7708C54.6032 46.8045 54.8437 47.0475 54.8107 47.3264C54.667 49.6967 55.5055 52.1678 56.6883 54.2542C58.2362 56.8968 60.3197 58.945 61.5832 59.3583Z" fill="#779696"/>
<path fill-rule="evenodd" clip-rule="evenodd" d="M42.1935 64.4581C42.0036 64.7023 41.6528 64.7383 41.4154 64.6C41.1381 64.4271 41.0921 64.1141 41.2437 63.9049L53.8407 47.1958L53.799 45.3174C51.9408 47.8288 50.0405 50.2013 47.8957 52.1224C45.4823 54.2531 42.744 55.8284 39.4373 56.4317C39.3982 56.4318 39.3599 56.4668 39.3209 56.4669C38.9693 56.4681 38.7586 55.7731 38.9485 55.5289C38.9477 55.4941 39.0258 55.4939 39.0649 55.4937C42.2161 54.9258 44.8005 53.4554 47.0992 51.4294C49.5892 49.2288 51.7138 46.4033 53.8737 43.4037C53.9877 43.2641 54.1416 43.1592 54.376 43.1584C54.6884 43.1572 54.9672 43.3998 54.9734 43.6781L55.0561 47.4002C55.0584 47.5046 55.0217 47.6091 54.9451 47.6789L42.1935 64.4581Z" fill="#0D4CB8"/>
<path fill-rule="evenodd" clip-rule="evenodd" d="M54.7402 47.089L54.6622 43.5751C54.6591 43.436 54.4997 43.2974 54.3435 43.2979C54.2263 43.2983 54.1489 43.3334 54.0731 43.4381C52.0644 46.2288 49.9416 49.1591 47.2978 51.4997C44.9987 53.526 42.3754 55.0316 39.1461 55.6346C39.1109 55.8087 39.1959 56.1216 39.3147 56.1907L39.392 56.1557C42.6995 55.5523 45.3603 53.977 47.7368 51.9157C49.9977 49.9243 51.8977 47.5167 53.6031 45.1446L54.058 44.5167L54.1182 47.2304L41.4808 64.0115C41.4058 64.151 41.4096 64.3249 41.5674 64.3939C41.7252 64.463 41.9206 64.4623 41.9956 64.3228L54.6705 47.472C54.7088 47.4371 54.7073 47.3675 54.7065 47.3327L54.7402 47.089Z" fill="#3578EA"/>
<path fill-rule="evenodd" clip-rule="evenodd" d="M41.6271 66.1589C42.9107 66.1544 43.9789 65.2145 43.9527 64.0357C43.9272 62.8916 42.8553 61.9245 41.5328 61.9292C40.2493 61.9337 39.181 62.8736 39.2073 64.0524C39.2328 65.1965 40.3046 66.1635 41.6271 66.1589Z" fill="#99CACA"/>
<path fill-rule="evenodd" clip-rule="evenodd" d="M41.608 65.1841C42.3081 65.1817 42.88 64.6596 42.8661 64.0355C42.8522 63.4114 42.2572 62.8934 41.557 62.8959C40.8569 62.8983 40.285 63.4204 40.2989 64.0445C40.3128 64.6686 40.9079 65.1866 41.608 65.1841Z" fill="#7BA3A3"/>
<path fill-rule="evenodd" clip-rule="evenodd" d="M26.2677 19.3444L39.5558 25.0594C39.8306 25.1625 39.8781 25.5441 39.6911 25.8919L31.5101 41.4344C31.3231 41.7821 30.9766 41.9569 30.7017 41.8537L17.4136 36.1388C17.1387 36.0356 17.0913 35.654 17.2782 35.3063L25.4593 19.7637C25.6463 19.416 25.992 19.2066 26.2677 19.3444Z" fill="#3578EA"/>
<path fill-rule="evenodd" clip-rule="evenodd" d="M26.5317 20.5892L38.283 25.6235C38.518 25.7262 38.5637 26.037 38.4155 26.3484L35.3991 32.0247C30.0167 32.4938 27.3648 24.9041 20.5178 31.0437L25.8411 20.9372C25.9901 20.6603 26.3355 20.4863 26.5317 20.5892Z" fill="#0D4CB8"/>
<path d="M51.6183 22.1505C51.7384 22.2891 51.8974 22.4275 52.0175 22.5661C52.1383 22.7394 52.143 22.9479 52.0291 23.0873C51.8762 23.2268 51.6805 23.1928 51.4879 23.2977C51.2952 23.4026 51.2219 23.6114 51.2265 23.8199C51.2311 24.0284 51.0042 24.3419 50.9698 24.5505C50.8652 25.1069 50.2529 25.6303 49.6298 25.6672C49.0067 25.7042 48.2971 25.3592 47.6756 25.4656C46.9761 25.5723 46.5923 25.8517 46.214 26.3742C45.7967 26.897 45.5767 27.5232 45.3169 28.1149C44.6876 27.8739 44.0973 27.6327 43.468 27.3916C43.2707 27.2881 43.0352 27.2194 42.9136 27.0113C42.7928 26.838 42.7874 26.5948 42.8997 26.3859C42.973 26.1771 43.1251 26.0028 43.1993 25.8288C43.4988 25.2718 43.6011 24.6112 43.393 24.0211C43.1818 23.2921 42.622 22.6686 42.3718 21.9397C41.9938 20.7248 42.3022 18.8125 43.3762 18.0094C44.4502 17.2064 46.2736 16.783 47.6804 16.9171C51.2371 17.2868 52.1054 19.5078 51.6638 20.6908C51.4797 21.178 51.1778 21.6308 51.6183 22.1505Z" fill="#9E765A"/>
<path d="M49.58 25.5427C49.6585 25.5771 49.6982 25.6116 49.7767 25.646C49.8544 25.6457 49.9322 25.6454 50.0092 25.6105C50.5107 25.4355 50.8124 25.0186 51.0752 24.6019C51.2634 24.3241 51.4905 24.0461 51.6787 23.7682C51.8296 23.5598 51.9423 23.3861 52.0535 23.1432C52.0901 23.0391 52.1274 22.9697 52.1251 22.8658C52.1228 22.7618 52.0427 22.6582 52.0015 22.5544C51.8818 22.4162 51.801 22.2779 51.6424 22.1398C51.6028 22.1053 51.602 22.0707 51.5631 22.0708C51.5243 22.0709 51.4854 22.0711 51.4473 22.1059C51.3322 22.1756 51.2179 22.2799 51.0639 22.3498C50.8711 22.4197 50.6379 22.4206 50.4427 22.3866C49.9358 22.3191 49.4297 22.2862 48.9228 22.2187C48.8474 22.3229 48.8885 22.4267 48.8909 22.5307C48.8963 22.7732 48.785 23.0161 48.6731 23.2244C48.4864 23.5716 48.2998 23.9187 47.9942 24.1624C47.6505 24.4408 48.1597 24.6122 48.3968 24.7846C48.7917 25.0604 49.1859 25.3016 49.58 25.5427Z" fill="#D6E8E8"/>
<path d="M49.2062 22.8422C49.2435 22.7728 49.242 22.7035 49.3189 22.6686C49.4332 22.5643 49.6672 22.5981 49.863 22.6667C50.2929 22.7691 50.7585 22.7328 51.1433 22.5582C51.2591 22.5232 51.3741 22.4535 51.4907 22.4531C51.6858 22.487 51.7301 22.7294 51.6166 22.8683C51.5031 23.0073 51.3103 23.0772 51.1556 23.1124C50.9621 23.1478 50.7693 23.2177 50.655 23.322L50.6177 23.3914C50.6192 23.4607 50.6977 23.4951 50.7762 23.5294C50.8936 23.5637 51.0117 23.6325 51.0529 23.7363C51.0941 23.8401 51.0194 23.9789 50.9028 23.9793C50.864 23.9794 50.7855 23.9451 50.7466 23.9452C50.5896 23.8765 50.316 23.8082 50.2421 23.9816C50.1675 24.1205 50.3268 24.2931 50.4457 24.3966C50.4854 24.4311 50.4861 24.4657 50.4869 24.5004C50.4892 24.6043 50.2964 24.6742 50.1783 24.6054C50.0602 24.5365 49.9801 24.4329 49.8247 24.4334C49.6296 24.3995 49.4399 24.608 49.5215 24.7809C49.5626 24.8847 49.68 24.9189 49.7601 25.0225C49.8401 25.1262 49.8043 25.2648 49.6885 25.2999C49.6496 25.3 49.5711 25.2657 49.5323 25.2658C49.2175 25.0937 48.9027 24.9216 48.5879 24.7496C48.3913 24.6463 48.1566 24.5779 48.2289 24.3352C48.3012 24.0924 48.606 23.8142 48.7576 23.6405C48.9457 23.3627 49.0958 23.1197 49.2062 22.8422Z" fill="#C1D3D2"/>
<path d="M50.8218 17.8334C50.1882 17.3159 49.4038 17.0068 48.5828 16.8018C48.1141 16.6995 47.646 16.6319 47.1795 16.6335C46.8297 16.6348 46.4814 16.7053 46.1338 16.8105C45.3602 16.9864 44.5882 17.2317 43.8954 17.546C43.1637 17.8604 42.436 18.348 42.1793 19.0419C42.0315 19.3889 42.0011 19.7702 41.97 20.1168C41.9092 20.8792 41.8881 21.6762 42.3304 22.333C42.4501 22.4712 42.5713 22.6786 42.4578 22.8176C42.4205 22.8871 42.3435 22.922 42.3054 22.9568C42.076 23.1308 42.1234 23.5118 42.3986 23.6494C42.4771 23.6838 42.5945 23.718 42.6357 23.8218C42.6761 23.891 42.5999 23.9605 42.6014 24.0298C42.6037 24.1338 42.683 24.2028 42.8004 24.237C42.9178 24.2712 43.0718 24.2014 43.1518 24.3051C43.1922 24.3742 43.116 24.4438 43.1184 24.5477C43.0452 24.7559 43.2847 25.0322 43.556 24.9966C43.8281 24.9957 44.0171 24.7525 44.0902 24.5443C44.1625 24.3015 44.1183 24.0591 44.0748 23.8514C44.2699 23.8853 44.542 23.8844 44.6944 23.7453C44.8468 23.6061 44.8795 23.3288 44.6836 23.2602C44.8375 23.1904 44.8718 22.9824 44.7902 22.8094C44.7093 22.6711 44.5896 22.5329 44.5088 22.3946C44.3456 22.0487 44.4918 21.6324 44.7181 21.3198C44.9452 21.0418 45.25 20.7635 45.5991 20.7276C45.987 20.6916 46.4201 20.9326 46.4659 21.2443C46.4674 21.3136 46.469 21.3829 46.4705 21.4522C46.514 21.6599 46.8265 21.7281 47.0186 21.6235C47.2106 21.5189 47.3226 21.3106 47.3576 21.1372C47.3942 21.0331 47.3919 20.9292 47.507 20.8595C47.5451 20.8247 47.6228 20.8244 47.6617 20.8243C47.8949 20.8235 48.0893 20.8228 48.3218 20.7873C48.5154 20.752 48.7455 20.6126 48.7805 20.4392C48.8163 20.3005 48.7743 20.1621 48.7713 20.0235C48.8047 19.7808 49.1118 19.6065 49.3847 19.6402C49.4625 19.6399 49.541 19.6743 49.5814 19.7434C49.6607 19.8124 49.663 19.9164 49.7423 19.9854C49.8628 20.1582 50.1746 20.1918 50.3658 20.0525C50.4809 19.9828 50.5175 19.8787 50.6325 19.809C50.7476 19.7393 50.9031 19.7388 50.9443 19.8426C50.9839 19.8771 50.9466 19.9465 50.987 20.0157C51.0282 20.1195 51.1853 20.1882 51.3019 20.1878C51.4566 20.1526 51.5717 20.0829 51.6479 20.0133C51.7272 20.0823 51.843 20.0473 51.9192 19.9777C51.9946 19.8735 51.9161 19.8391 51.8757 19.77C51.7933 19.5624 51.8268 19.3197 51.7444 19.1121C51.5385 18.5931 51.2175 18.1438 50.8218 17.8334Z" fill="#252828"/>
<path d="M50.1278 21.5261L50.0905 21.595L50.13 21.6293C50.2867 21.6974 50.4425 21.7312 50.5983 21.765L50.6759 21.7647C50.7534 21.7644 50.7907 21.6955 50.7899 21.6611C50.8264 21.5577 50.8226 21.3858 50.6675 21.3864C50.4744 21.4215 50.2821 21.4911 50.1278 21.5261Z" fill="#E0DAD7"/>
<path d="M51.0871 20.8252C50.7694 20.4501 50.0397 20.6931 49.7757 21.0024C49.6998 21.0712 49.8181 21.1734 49.894 21.1045C50.007 20.9671 50.1595 20.8637 50.3514 20.7943C50.5441 20.7592 50.8141 20.7238 50.9339 20.8944C51.0128 20.9625 51.166 20.8933 51.0871 20.8252Z" fill="#252828"/>
<path d="M50.9386 21.211C50.8632 21.3149 50.7476 21.3499 50.6319 21.3848L50.5931 21.385C50.5543 21.3851 50.4774 21.4199 50.4386 21.4201C50.2841 21.4552 50.0908 21.4904 49.9364 21.5255L49.8983 21.5602L49.8991 21.5948C49.9782 21.6635 50.0954 21.6977 50.1738 21.7319C50.2522 21.7662 50.3299 21.7659 50.4082 21.8001C50.4866 21.8344 50.6038 21.8685 50.6822 21.9027L50.7211 21.9026L50.7203 21.8681C50.874 21.7984 50.9462 21.5564 50.8267 21.4186C50.9028 21.3493 50.9401 21.2801 50.9386 21.211ZM50.6722 21.4537L50.7118 21.4881L50.7126 21.5227C50.7134 21.5572 50.6753 21.5919 50.6365 21.592C50.5985 21.6267 50.5589 21.5923 50.5589 21.5923L50.5581 21.5578L50.6722 21.4537ZM50.17 21.5592C50.2864 21.5588 50.3633 21.524 50.479 21.489C50.4409 21.5237 50.4424 21.5928 50.4432 21.6273L50.444 21.6618C50.3664 21.6621 50.2484 21.5935 50.17 21.5592Z" fill="#252828"/>
<path d="M48.0293 24.4017C47.4014 24.0594 46.3068 23.65 45.558 23.1013L45.4812 23.136C46.2703 23.7535 47.4433 24.1971 47.9929 24.5053C48.0316 24.5051 48.0689 24.436 48.0293 24.4017Z" fill="#C1D3D2"/>
<path d="M49.0396 22.2765C48.5275 21.8995 47.2289 21.0087 46.1797 20.875C46.2192 20.9093 46.2587 20.9436 46.2982 20.9779C46.3377 21.0122 46.3772 21.0465 46.378 21.081C47.3916 21.3526 48.5693 22.0371 48.9637 22.3457C49.0032 22.38 49.0791 22.3108 49.0396 22.2765Z" fill="#C1D3D2"/>
<path d="M45.7485 21.6628C45.7861 21.593 45.8637 21.5579 45.9021 21.5229C45.9782 21.4182 45.9751 21.2788 45.8944 21.1746C45.8545 21.14 45.8537 21.1051 45.8145 21.1053C45.7354 21.0708 45.6178 21.0712 45.5402 21.1063C45.3066 21.1769 45.1153 21.3866 45.0807 21.5957C45.0462 21.8048 45.0907 22.0485 45.2129 22.257C45.2944 22.396 45.3758 22.535 45.5326 22.5344L45.6102 22.4993L45.6478 22.4295C45.6839 22.2901 45.8376 22.1501 45.7562 22.0111C45.6747 21.8721 45.6332 21.7678 45.7485 21.6628Z" fill="#775A46"/>
<path d="M43.379 22.6517C43.6497 22.6162 43.9205 22.5806 44.0322 22.373C44.0687 22.2692 44.0657 22.1311 44.0626 21.993C44.0084 21.3024 44.6145 20.644 45.3492 20.5376C45.7356 20.4671 46.0862 20.5349 46.4749 20.568C46.8628 20.5665 47.2499 20.5306 47.5161 20.2878C47.7062 20.1144 47.7792 19.9069 47.97 19.7681C48.0849 19.6986 48.2781 19.6633 48.4325 19.6282C49.6311 19.451 50.8701 19.3428 52.1098 19.2691C52.207 18.4053 51.7216 17.5092 50.9715 16.9249C50.2214 16.3406 49.2828 15.9987 48.31 15.8642C46.6366 15.6287 44.8972 15.9114 43.4789 16.6765C42.6735 17.094 41.9883 17.6837 41.539 18.4106C40.9406 19.4144 40.8899 20.6234 41.3023 21.727C41.4264 22.0719 41.5892 22.4166 41.9042 22.6227C42.337 22.8974 42.953 22.6878 43.379 22.6517Z" fill="#0D4CB8"/>
<path d="M44.295 20.5544C44.8689 20.2072 45.5652 20.1355 46.2646 20.2018C46.4204 20.2357 46.6143 20.235 46.7694 20.2344C47.0788 20.1987 47.3471 20.0597 47.5371 19.8865C47.7659 19.7131 47.9551 19.5053 48.2235 19.3663C48.6826 19.0886 49.2238 19.0175 49.7271 18.9811C49.9985 18.98 50.2303 18.9447 50.4614 18.8748C50.6925 18.8049 50.9205 18.597 50.9159 18.39C50.9478 18.0794 50.6323 17.8391 50.3198 17.7368C49.85 17.5316 49.3057 17.4646 48.8009 17.4321C47.5975 17.3677 46.3607 17.5449 45.2866 18.0665C44.2118 18.5536 43.3385 19.385 42.8954 20.3872C42.7488 20.7673 42.6409 21.1472 42.6493 21.5267C42.6532 21.6991 42.657 21.8716 42.7764 22.0092C42.857 22.1469 43.0539 22.2841 43.247 22.2489C43.4788 22.2135 43.4758 22.0755 43.4727 21.9375C43.4689 21.765 43.503 21.5579 43.538 21.3853C43.6854 21.0397 43.9507 20.7627 44.295 20.5544Z" fill="#3578EA"/>
<path d="M43.2537 18.4465C44.1274 17.543 45.3965 16.9498 46.7527 16.7718C47.4894 16.7 48.2285 16.732 48.9675 16.764C49.123 16.7634 49.2776 16.7282 49.3142 16.6242C49.3134 16.5896 49.3126 16.555 49.273 16.5205C49.1526 16.3478 48.9567 16.2792 48.7998 16.2105C48.0949 15.9706 47.3193 16.0426 46.5841 16.1837C45.9647 16.2898 45.3857 16.465 44.8075 16.6749C43.7661 17.0249 42.807 17.5823 42.2038 18.4156C41.9776 18.7281 41.8687 19.0748 41.7599 19.4215C41.5422 20.1148 41.4807 20.8423 41.6134 21.5691C41.6157 21.6729 41.7866 22.3649 42.0182 22.2949C42.134 22.2598 42.0447 21.7407 42.0424 21.6368C42.0262 20.9096 42.2051 20.2164 42.5401 19.5572C42.6855 19.1065 42.9498 18.7593 43.2537 18.4465Z" fill="#3578EA"/>
<path d="M45.9189 27.3314C45.8455 27.5402 45.7714 27.7143 45.698 27.9232C46.2979 28.5816 46.6278 29.38 46.6463 30.2142C46.6618 30.9095 46.4822 31.6054 46.2628 32.2667C45.5374 34.7375 44.8128 37.243 43.3001 39.4037C43.1113 39.6825 42.9224 39.9613 42.9293 40.2741C42.934 40.4827 43.0947 40.6907 43.0603 40.8994C43.0259 41.1081 42.8339 41.2479 42.7208 41.4221C42.4936 41.7358 42.4249 42.1532 42.5504 42.5351C40.6098 42.9939 38.5888 43.3487 36.5953 43.1819C35.5396 43.0813 34.5206 42.8764 33.5758 42.4973C33.064 42.2905 32.5116 42.0144 32.3057 41.5284C32.1817 41.2159 32.2512 40.8333 32.3223 40.5202C33.1454 37.1799 34.4398 33.9771 36.2857 31.0156C37.2661 29.4825 38.4805 27.9486 40.2573 27.1428C40.9526 26.8275 41.7282 26.6161 42.2628 26.0928C42.9512 25.4646 43.1111 25.6379 43.8624 26.0871C44.0215 26.2256 45.9174 27.2619 45.9189 27.3314Z" fill="#1055CA"/>
<path d="M41.3696 30.8602C42.4707 33.1444 43.7265 35.3933 45.1744 37.5376C45.3758 37.8489 45.6169 38.1947 45.9342 38.4709C46.4895 38.9543 47.2346 39.229 47.9408 39.5039C48.6859 39.7786 49.4699 40.0532 50.2889 40.1543C50.8738 40.2216 51.4183 40.2197 52.0016 40.2176C52.5461 40.2157 53.1295 40.2137 53.6739 40.2117C53.7517 40.2115 53.8295 40.2112 53.9065 40.1763C53.9835 40.1413 53.9812 40.0373 53.9797 39.968C54.0848 39.4476 54.1502 38.8927 54.2553 38.3724C54.2529 38.2684 54.2895 38.1642 54.2102 38.0952C54.1698 38.026 54.0531 38.0264 53.9745 37.992C53.7404 37.9582 53.5055 37.8897 53.3103 37.8557C53.2341 37.9253 53.1578 37.9949 53.0816 38.0645C53.1143 37.787 52.7993 37.6148 52.5248 37.5118C51.6614 37.1681 50.7989 36.8592 49.9356 36.5155C49.8181 36.4813 49.661 36.4125 49.5451 36.4476C49.4681 36.4825 49.3919 36.5521 49.3141 36.5524C49.1204 36.5877 48.9618 36.4496 48.919 36.2764C48.8763 36.1032 48.9898 35.9642 49.0638 35.7906C48.5123 35.4805 48.1507 34.9618 47.828 34.4429C47.0216 33.1631 46.2541 31.8831 45.4485 30.6379C45.1258 30.1191 44.8031 29.6002 44.2517 29.2901C42.9505 28.4973 40.6753 29.372 41.3696 30.8602Z" fill="#0D4CB8"/>
<path d="M45.0459 33.1596C45.8467 34.163 46.8803 35.1309 46.9074 36.3451C46.9097 36.4492 46.9112 36.5186 46.9525 36.6225C47.0334 36.761 47.2295 36.8297 47.3845 36.7945C47.5394 36.7592 47.6523 36.5854 47.6103 36.4467C47.8827 36.4458 47.9293 36.7926 47.8951 37.0009C47.8226 37.244 47.7907 37.5564 48.0647 37.6248C48.2554 37.4506 48.4064 37.2419 48.5972 37.0678C48.6797 37.2757 48.7621 37.4836 48.8446 37.6915C49.539 37.4115 50.3656 37.8249 51.0724 38.1C51.7792 38.3751 52.5217 38.5113 53.2605 38.474C53.0994 38.2317 52.8628 38.0938 52.5872 37.9559C51.682 37.5081 50.7409 37.1991 49.7244 36.9945C49.2939 36.8919 48.7467 36.7897 48.6596 36.3737C48.6183 36.2697 48.6542 36.1308 48.6129 36.0269C48.5281 35.7149 48.1732 35.508 47.8961 35.3008C46.4328 34.265 45.6042 32.0127 45.0245 30.4534C44.8183 29.9337 44.6915 29.4831 44.1397 29.1728C42.9558 28.4483 42.74 29.2471 43.1883 30.1476C43.7174 31.1866 44.2855 32.2255 45.0459 33.1596Z" fill="#3578EA"/>
<path d="M44.1274 36.1663C44.3733 36.6188 44.3076 37.2122 44.0817 37.6666C43.8566 38.1559 43.4719 38.5412 43.0872 38.9265C42.7025 39.3118 42.2808 39.8019 42.4095 40.2898C42.4518 40.4291 42.4935 40.5336 42.4572 40.6733C42.3832 40.8829 41.9916 40.9543 41.9183 41.1988C41.8443 41.4084 42.0855 41.6516 41.9722 41.8614C41.8581 42.0363 41.5035 42.0028 41.3818 41.8289C41.2207 41.6551 41.2161 41.4458 41.2508 41.2364C41.3142 40.5384 41.574 39.8397 42.0327 39.2448C42.3373 38.79 42.7613 38.4046 42.9078 37.9156C43.0558 37.4963 42.9665 37.0083 42.9959 36.5547C43.0145 35.6127 43.5942 35.1569 44.1274 36.1663Z" fill="#3578EA"/>
<path d="M45.5497 28.716C45.5595 29.1702 45.6089 29.6242 45.6187 30.0785C45.6202 30.1484 45.6224 30.2532 45.7025 30.2877C45.8231 30.357 45.9788 30.2164 46.0155 30.0765C46.2026 29.5514 45.9915 28.9583 45.5078 28.6113" fill="#CA0007"/>
<path d="M55.5103 39.4188C55.776 39.177 55.9613 38.7979 56.3477 38.7619C56.618 38.7263 56.9316 38.897 57.2011 38.8271C57.2391 38.7926 57.2778 38.7924 57.3552 38.7921C57.5094 38.7571 57.5906 38.9287 57.6703 39.0316C57.7903 39.2031 57.9869 39.3398 58.1828 39.4422C58.4091 39.1661 58.4789 38.8219 58.4334 38.5125C58.4318 38.4437 58.3916 38.3751 58.3513 38.3065C58.2716 38.2036 58.1167 38.2042 57.9998 38.1703C57.728 38.137 57.4934 38.0348 57.2595 37.967C56.87 37.8654 56.4449 37.9016 56.0584 37.9376C55.5945 37.9739 55.1693 38.01 54.7054 38.0463C54.5505 38.047 54.3964 38.082 54.2818 38.1513C54.1292 38.2551 54.095 38.4616 54.0988 38.6336C54.0677 38.9776 53.7367 39.7701 54.0898 39.975C54.4033 40.1457 55.2833 39.6605 55.5103 39.4188Z" fill="#9E765A"/>
<path d="M54.6094 38.0249C54.5706 38.025 54.531 37.9906 54.5302 37.9561C54.7599 37.8171 54.9881 37.6091 55.1387 37.4014C55.252 37.2629 55.3645 37.0898 55.5593 37.1236C55.6764 37.1577 55.7556 37.2265 55.8355 37.3297C55.9154 37.433 55.9953 37.5363 55.9976 37.6399C56.0014 37.8125 55.8493 37.9512 55.6949 37.9863C55.5412 38.0559 55.3473 38.0566 55.1525 38.0228C54.9197 38.0237 54.7258 38.0244 54.5302 37.9561C54.725 37.9899 54.9562 37.92 55.1091 37.8158" fill="#9E765A"/>
<path d="M38.3647 56.0317C38.5934 55.7877 38.7823 55.5092 39.011 55.2652L38.3647 56.0317Z" fill="#CA0007"/>
<path d="M42.8557 57.7992C42.5542 58.2515 42.2154 58.7733 42.4591 59.2237C42.7417 59.674 43.4044 59.7063 43.9152 59.9128C44.3085 60.085 44.6262 60.3616 44.982 60.6033C45.5349 60.9485 46.2023 61.1891 46.9047 61.2561C47.1391 61.29 47.3338 61.2893 47.5262 61.1845C47.7193 61.1144 47.8704 60.9056 47.8276 60.7322C47.7864 60.6282 47.7459 60.5589 47.6665 60.4898C46.7072 59.3824 45.7075 58.2058 45.6773 56.8522C45.6727 56.6439 45.6673 56.401 45.5084 56.2627C45.3901 56.1937 45.2725 56.1594 45.1549 56.1251C44.5288 55.9884 43.8591 55.6437 43.5584 56.1307C43.2188 56.6178 43.1945 57.2774 42.8557 57.7992Z" fill="#281B1C"/>
<path d="M33.6786 45.0329C34.0361 45.3781 34.5079 45.6189 34.9797 45.8597C37.7305 47.201 40.559 48.542 43.6052 49.1894C44.0739 49.2917 44.5815 49.3938 44.8232 49.774C45.026 50.1544 44.841 50.5707 44.7336 50.9868C44.5866 51.3684 44.5593 51.8881 44.9534 52.1292C44.3354 52.3046 44.0003 52.9639 44.2458 53.5173C44.287 53.6211 44.367 53.7247 44.3694 53.8286C44.3748 54.0711 44.1454 54.2451 43.9938 54.4189C43.6525 54.8011 43.5879 55.3903 43.87 55.8396C44.4622 56.2532 45.2427 56.389 45.985 56.5596C46.0627 56.5593 46.1412 56.5937 46.2182 56.5588C46.4887 56.4885 46.3636 56.1079 46.5145 55.8995C46.628 55.7606 46.8215 55.7252 47.0143 55.6553C47.2833 55.5158 47.4715 55.238 47.5827 54.9951C48.4061 53.5719 49.1906 52.1488 50.0133 50.691C50.238 50.3091 50.4627 49.9273 50.4916 49.4768C50.5569 48.9224 50.351 48.4035 50.0682 47.9195C49.3423 46.7442 48.0793 45.8827 46.8194 45.1597C45.5206 44.4368 44.1852 43.818 43.038 42.9214C42.9191 42.8179 42.8009 42.749 42.6836 42.7148C42.6051 42.6804 42.4892 42.7155 42.4115 42.7157C40.123 42.9317 37.7895 42.8706 35.4894 42.567C34.7875 42.4656 33.2974 41.8819 32.9257 42.6454C32.4359 43.3399 33.1625 44.5498 33.6786 45.0329Z" fill="#35526D"/>
<path d="M45.1466 47.3502C45.4605 47.4533 45.814 47.5908 45.8988 47.9029C45.9829 48.1803 45.7554 48.4588 45.8784 48.736C46.0022 49.048 46.471 49.1158 46.6719 49.3928C46.8727 49.6697 46.6858 50.0175 46.5362 50.2957C46.3485 50.6087 46.1615 50.9565 45.9738 51.2695C45.8982 51.3739 45.8235 51.513 45.8266 51.6518C45.8327 51.9295 46.1481 52.1019 46.3474 52.3095C46.5468 52.517 46.556 52.9335 46.2842 52.9692C46.1254 52.8309 45.9284 52.7275 45.694 52.6936C45.4596 52.6597 45.2298 52.834 45.2734 53.0421C45.3162 53.2155 45.5522 53.3188 45.5171 53.4925C45.4836 53.7356 44.9377 53.7028 44.9431 53.9457C44.9454 54.0499 45.0248 54.119 45.0653 54.1883C45.1073 54.327 45.0333 54.5008 44.9578 54.6052C44.7334 55.0225 44.5869 55.4395 44.5191 55.8909C44.1679 55.8575 44.0418 55.4414 44.1525 55.1633C44.2631 54.8853 44.4913 54.6415 44.563 54.3636C44.7064 53.8077 44.2618 53.0804 44.7198 52.6623C44.9106 52.488 45.2198 52.3828 45.2923 52.1396C45.3273 51.966 45.2456 51.7927 45.2028 51.6193C44.9919 50.8911 45.7521 50.0554 45.2717 49.4671C45.151 49.2939 44.915 49.1906 44.718 49.0872C43.184 48.3984 41.4257 48.1268 39.8168 47.5771C37.9729 46.9587 36.3151 45.958 34.6962 44.957C34.3404 44.7153 33.9456 44.4737 33.7432 44.1273C33.5408 43.7809 33.607 43.2601 33.9536 43.0853C34.1841 42.9457 34.4575 42.9794 34.73 42.9785C35.5096 43.0105 36.4036 42.9379 37.074 43.3174C37.9407 43.7656 38.6944 44.3877 39.5229 44.8708C41.2968 45.8364 43.1851 46.6976 45.1466 47.3502Z" fill="#3D5E77"/>
<path d="M39.3474 25.9527C40.5706 26.7115 41.7938 27.4702 42.9781 28.2292C44.5561 29.1948 45.8999 30.1266 46.0965 31.9642C46.1416 32.2416 46.6085 32.2399 46.6023 31.9625C46.4562 30.645 45.8105 29.6067 44.6628 28.7436C43.0809 27.6045 41.2687 26.605 39.6113 25.5702C39.3351 25.3978 39.1101 25.7801 39.3474 25.9527Z" fill="#030303"/>
<path d="M32.195 40.3021C35.4844 38.3596 39.1743 37.0013 42.463 35.0244C42.7312 34.8855 42.4516 34.5076 42.2222 34.6464C38.9335 36.6233 35.2435 37.9816 31.9541 39.924C31.6479 40.0975 31.9268 40.4409 32.195 40.3021Z" fill="#030303"/>
</svg>
