<svg width="86" height="86" viewBox="0 0 86 86" fill="none" xmlns="http://www.w3.org/2000/svg">
<rect width="86" height="86" rx="10.0333" fill="#FFF6EE"/>
<path fill-rule="evenodd" clip-rule="evenodd" d="M26.3959 53.4492C31.4798 53.4492 35.6394 57.5733 35.6394 62.6928C35.6394 67.7767 31.5154 71.9363 26.3959 71.9363C21.3119 71.9363 17.1523 67.8123 17.1523 62.6928C17.1879 57.5733 21.3119 53.4492 26.3959 53.4492ZM26.3959 55.8312C22.5918 55.8312 19.5343 58.8887 19.5343 62.6928C19.5343 66.4968 22.5918 69.5543 26.3959 69.5543C30.2 69.5543 33.2574 66.4968 33.2574 62.6928C33.2574 58.8887 30.2 55.8312 26.3959 55.8312Z" fill="#000044"/>
<path fill-rule="evenodd" clip-rule="evenodd" d="M26.3928 55.834C30.1969 55.834 33.2544 58.8915 33.2544 62.6955C33.2544 66.4996 30.1969 69.5571 26.3928 69.5571C22.5887 69.5571 19.5312 66.4996 19.5312 62.6955C19.5313 58.8915 22.6243 55.834 26.3928 55.834ZM26.3928 58.3937C24.0464 58.3937 22.1266 60.3136 22.1266 62.66C22.1266 65.0064 24.0464 66.9262 26.3928 66.9262C28.7392 66.9262 30.6591 65.0064 30.6591 62.66C30.6946 60.3136 28.7748 58.3937 26.3928 58.3937Z" fill="#A9C2C2"/>
<path d="M26.3982 67.5282C23.7318 67.5282 21.5631 65.3595 21.5631 62.6931C21.5631 60.0267 23.7318 57.858 26.3982 57.858C29.0646 57.858 31.2333 60.0267 31.2333 62.6931C31.2333 65.3595 29.1002 67.5282 26.3982 67.5282ZM26.3982 56.4004C22.9141 56.4004 20.1055 59.209 20.1055 62.6931C20.1055 66.1772 22.9141 68.9858 26.3982 68.9858C29.8823 68.9858 32.6909 66.1772 32.6909 62.6931C32.6909 59.209 29.8823 56.4004 26.3982 56.4004Z" fill="#7E9191"/>
<path fill-rule="evenodd" clip-rule="evenodd" d="M25.5775 61.1637C25.6842 61.0926 25.8264 61.0571 25.933 61.0215L26.1463 58.0352H26.3952H26.6441L26.8574 61.0215C26.964 61.0571 27.1063 61.0926 27.2129 61.1637L29.4882 59.2084L29.666 59.3861L29.8438 59.5639L27.8884 61.8392C27.9595 61.9459 27.995 62.0881 28.0306 62.1947L31.017 62.4081V62.6569V62.9058L28.0306 63.1191C27.995 63.2258 27.9595 63.368 27.8884 63.4746L29.8438 65.75L29.7016 65.9633L29.5238 66.141L27.2485 64.1857C27.1418 64.2568 26.9996 64.2923 26.8929 64.3279L26.6796 67.3142H26.4308H26.1463L25.933 64.3279C25.8264 64.2923 25.6842 64.2568 25.5775 64.1857L23.3022 66.141L23.1244 65.9633L22.9467 65.7855L24.902 63.5102C24.8309 63.4035 24.7954 63.2613 24.7598 63.1547L21.7734 62.9413V62.6925V62.4081L24.7598 62.1947C24.7954 62.0881 24.8309 61.9459 24.902 61.8392L22.9467 59.5639L23.1244 59.3861L23.3022 59.2084L25.5775 61.1637Z" fill="#A9C2C2"/>
<path fill-rule="evenodd" clip-rule="evenodd" d="M66.3202 64.7557C67.4579 64.7557 68.4178 63.8313 68.4178 62.6581C68.4178 61.5205 67.4934 60.5605 66.3202 60.5605C65.1826 60.5605 64.2227 61.4849 64.2227 62.6581C64.2227 63.8313 65.147 64.7557 66.3202 64.7557Z" fill="#A9C2C2"/>
<path fill-rule="evenodd" clip-rule="evenodd" d="M67.7789 61.2012C68.5966 62.0189 68.5966 63.3343 67.7789 64.152C66.9612 64.9697 65.6458 64.9697 64.8281 64.152C64.0104 63.3343 64.0104 62.0189 64.8281 61.2012C65.6458 60.3835 66.9612 60.3835 67.7789 61.2012Z" fill="#A9C2C2"/>
<path fill-rule="evenodd" clip-rule="evenodd" d="M68.3826 62.6913C68.3826 63.829 67.4583 64.7889 66.2851 64.7889C65.1474 64.7889 64.1875 63.8645 64.1875 62.6913C64.1875 61.5537 65.1119 60.5938 66.2851 60.5938C67.4583 60.5937 68.3826 61.5181 68.3826 62.6913Z" fill="#A9C2C2"/>
<path fill-rule="evenodd" clip-rule="evenodd" d="M67.7789 64.152C66.9612 64.9697 65.6458 64.9697 64.8281 64.152C64.0104 63.3343 64.0104 62.0189 64.8281 61.2012C65.6458 60.3835 66.9612 60.3835 67.7789 61.2012C68.5966 62.0189 68.5966 63.3343 67.7789 64.152Z" fill="#A9C2C2"/>
<path fill-rule="evenodd" clip-rule="evenodd" d="M66.3202 64.7557C65.1826 64.7557 64.2227 63.8313 64.2227 62.6581C64.2227 61.5205 65.147 60.5605 66.3202 60.5605C67.4579 60.5605 68.4178 61.4849 68.4178 62.6581C68.3822 63.8313 67.4579 64.7557 66.3202 64.7557Z" fill="#A9C2C2"/>
<path fill-rule="evenodd" clip-rule="evenodd" d="M64.8281 64.152C64.0104 63.3343 64.0104 62.0189 64.8281 61.2012C65.6458 60.3835 66.9612 60.3835 67.7789 61.2012C68.5966 62.0189 68.5966 63.3343 67.7789 64.152C66.9612 64.9697 65.6458 64.9697 64.8281 64.152Z" fill="#A9C2C2"/>
<path fill-rule="evenodd" clip-rule="evenodd" d="M64.2227 62.6913C64.2227 61.5537 65.147 60.5938 66.3202 60.5938C67.4579 60.5938 68.4178 61.5181 68.4178 62.6913C68.4178 63.829 67.4934 64.7889 66.3202 64.7889C65.147 64.7534 64.2227 63.829 64.2227 62.6913Z" fill="#A9C2C2"/>
<path fill-rule="evenodd" clip-rule="evenodd" d="M66.3217 53.4492C71.4056 53.4492 75.5652 57.5733 75.5652 62.6928C75.5652 67.7767 71.4412 71.9363 66.3217 71.9363C61.2377 71.9363 57.0781 67.8123 57.0781 62.6928C57.0781 57.5733 61.2022 53.4492 66.3217 53.4492ZM66.3217 55.8312C62.5176 55.8312 59.4601 58.8887 59.4601 62.6928C59.4601 66.4968 62.5176 69.5543 66.3217 69.5543C70.1257 69.5543 73.1832 66.4968 73.1832 62.6928C73.1477 58.8887 70.0902 55.8312 66.3217 55.8312Z" fill="#000044"/>
<path fill-rule="evenodd" clip-rule="evenodd" d="M66.3225 55.834C70.1266 55.834 73.184 58.8915 73.184 62.6955C73.184 66.4996 70.1266 69.5571 66.3225 69.5571C62.5184 69.5571 59.4609 66.4996 59.4609 62.6955C59.4609 58.8915 62.5184 55.834 66.3225 55.834ZM66.3225 58.3937C63.976 58.3937 62.0562 60.3136 62.0562 62.66C62.0562 65.0064 63.976 66.9262 66.3225 66.9262C68.6689 66.9262 70.5887 65.0064 70.5887 62.66C70.5887 60.3136 68.6689 58.3937 66.3225 58.3937Z" fill="#A9C2C2"/>
<path d="M66.324 67.5282C63.6576 67.5282 61.4889 65.3595 61.4889 62.6931C61.4889 60.0267 63.6576 57.858 66.324 57.858C68.9904 57.858 71.1591 60.0267 71.1591 62.6931C71.1591 65.3595 68.9904 67.5282 66.324 67.5282ZM66.324 56.4004C62.8399 56.4004 60.0312 59.209 60.0312 62.6931C60.0312 66.1772 62.8399 68.9858 66.324 68.9858C69.8081 68.9858 72.6167 66.1772 72.6167 62.6931C72.5811 59.209 69.7725 56.4004 66.324 56.4004Z" fill="#7E9191"/>
<path fill-rule="evenodd" clip-rule="evenodd" d="M65.4677 61.1637C65.5744 61.0926 65.7166 61.0571 65.8233 61.0215L66.0366 58.0352H66.2854H66.5343L66.7476 61.0215C66.8543 61.0571 66.9965 61.0926 67.1031 61.1637L69.3785 59.2084L69.5562 59.3861L69.734 59.5639L67.7786 61.8392C67.8497 61.9459 67.8853 62.0881 67.9208 62.1947L70.9072 62.4081V62.6569V62.9058L67.9208 63.1191C67.8853 63.2258 67.8497 63.368 67.7786 63.4746L69.734 65.75L69.5562 65.9277L69.3785 66.1055L67.1031 64.1501C66.9965 64.2212 66.8543 64.2568 66.7476 64.2923L66.5343 67.2787H66.321H66.0721L65.8588 64.2923C65.7522 64.2568 65.61 64.2212 65.5033 64.1501L63.228 66.1055L63.0502 65.9277L62.8724 65.75L64.8278 63.4746C64.7567 63.368 64.7211 63.2258 64.6856 63.1191L61.6992 62.9058V62.6569V62.4081L64.6856 62.1947C64.7211 62.0881 64.7567 61.9459 64.8278 61.8392L62.8724 59.5639L63.0502 59.3861L63.228 59.2084L65.4677 61.1637Z" fill="#A9C2C2"/>
<path fill-rule="evenodd" clip-rule="evenodd" d="M58.4297 51.0322L60.1006 50.0723L67.0688 62.3022C67.3177 62.7644 67.1044 63.2621 66.7133 63.6176C66.3223 64.0087 65.6468 63.7243 65.3979 63.2621L58.4297 51.0322Z" fill="black"/>
<path fill-rule="evenodd" clip-rule="evenodd" d="M66.3228 50.8906C67.3894 50.8906 68.456 51.0328 69.4159 51.3172C69.7003 51.3883 69.9136 51.6017 70.0202 51.9216C70.0913 52.206 70.0202 52.526 69.8069 52.7393L56.3682 66.178C56.1549 66.3913 55.8705 66.4624 55.5506 66.3913C55.2661 66.3202 55.0173 66.1069 54.9462 65.7869C54.6617 64.7915 54.5195 63.7605 54.5195 62.6939C54.5195 56.1523 59.7812 50.8906 66.3228 50.8906Z" fill="#F7D114"/>
<path fill-rule="evenodd" clip-rule="evenodd" d="M26.04 48.5833L44.3493 48.2988C40.9008 55.0893 40.723 59.9955 44.3493 64.084H35.959L35.3546 63.5151H15.1611C14.6633 63.5151 14.2011 63.3018 13.8812 62.9463C13.5612 62.5552 13.419 62.093 13.4546 61.5953C14.3789 54.6982 18.5741 49.5787 25.2934 49.2232C26.1111 49.1521 26.2178 48.761 26.04 48.5833Z" fill="#F7D114"/>
<path fill-rule="evenodd" clip-rule="evenodd" d="M41.577 63.1591H42.5013C39.6927 58.7862 40.6882 53.9155 42.8568 49.2227H42.1458C41.5059 49.2227 40.9726 49.6137 40.7237 50.1826C39.1239 54.2355 38.4839 58.3595 40.1549 62.1992C40.4393 62.8391 40.9726 63.1591 41.577 63.1591Z" fill="#F1C114"/>
<path fill-rule="evenodd" clip-rule="evenodd" d="M35.8188 63.686H43.9958C46.5911 63.686 50.0752 64.0415 51.7106 61.3395L58.8565 49.4296C59.7809 47.9008 59.7809 46.7632 59.2832 44.7012L57.6478 37.8752C57.5055 37.2708 57.4344 36.8086 58.0033 36.8086H58.7499C59.4609 36.8086 60.0653 37.2708 60.2431 37.9818L61.7007 43.9546C61.9851 45.1633 62.9806 49.1452 62.3406 50.2117L53.5593 64.9303H53.026H49.6485H35.6055C35.7121 64.5037 35.7832 64.1126 35.8188 63.686Z" fill="#F1C114"/>
<path fill-rule="evenodd" clip-rule="evenodd" d="M53.3816 64.8262H35.4633C35.3567 64.8262 35.25 64.9328 35.25 65.0395V65.8572C35.25 65.9638 35.3567 66.0705 35.4633 66.0705H53.3816C53.4882 66.0705 53.5949 65.9638 53.5949 65.8572V65.0395C53.5949 64.8973 53.5238 64.8262 53.3816 64.8262Z" fill="#F7D114"/>
<path fill-rule="evenodd" clip-rule="evenodd" d="M26.4001 50.498C33.0128 50.498 38.4522 55.4042 39.3055 61.7681C39.3766 62.2302 39.2344 62.6213 38.95 62.9768C38.63 63.3324 38.2389 63.5101 37.7768 63.5101H15.0234C14.5612 63.5101 14.1702 63.3324 13.8502 62.9768C13.5658 62.6213 13.4236 62.2302 13.4947 61.7681C14.3479 55.4042 19.7874 50.498 26.4001 50.498Z" fill="#F1C114"/>
<path fill-rule="evenodd" clip-rule="evenodd" d="M26.395 51.7422C32.0122 51.7422 36.634 55.9018 37.345 61.3057C37.3806 61.6968 37.2739 62.0523 37.0251 62.3367C36.9895 62.3723 36.954 62.4078 36.9184 62.4434C35.4963 57.9638 31.3012 54.7286 26.3594 54.7286C21.4177 54.7286 17.2226 57.9638 15.8005 62.4434C15.7649 62.4078 15.7294 62.3723 15.6938 62.3367C15.445 62.0523 15.3383 61.6968 15.3739 61.3057C16.156 55.9018 20.7778 51.7422 26.395 51.7422Z" fill="#F7D114"/>
<path fill-rule="evenodd" clip-rule="evenodd" d="M25.7231 45.2012H44.4235C44.6368 45.2012 44.8146 45.3789 44.8146 45.5922V48.152C44.8146 48.3653 44.6368 48.5431 44.4235 48.5431H25.7231C25.5098 48.5431 25.332 48.3653 25.332 48.152V45.5922C25.332 45.3789 25.5098 45.2012 25.7231 45.2012Z" fill="black"/>
<path fill-rule="evenodd" clip-rule="evenodd" d="M12.2114 24.7207H33.756C34.1826 24.7207 34.5026 25.0762 34.5026 25.4673V44.381C34.5026 44.8076 34.1471 45.1276 33.756 45.1276H12.2114C11.7848 45.1276 11.4648 44.7721 11.4648 44.381V25.4673C11.4648 25.0407 11.7848 24.7207 12.2114 24.7207Z" fill="#F1C114"/>
<path fill-rule="evenodd" clip-rule="evenodd" d="M13.4528 25.8965H32.5443C32.8998 25.8965 33.2198 26.2165 33.2198 26.572V33.5046C26.3938 36.2777 17.5769 29.8428 12.7773 38.9085V26.572C12.7773 26.1809 13.0618 25.8965 13.4528 25.8965Z" fill="#F5D416" fill-opacity="0.7"/>
<path fill-rule="evenodd" clip-rule="evenodd" d="M18.2509 28.0625L14.6602 31.4755L22.6949 33.0753L21.5573 34.1419L30.7297 34.6752L23.9037 31.9021L25.0769 30.8356L18.2509 28.0625Z" fill="white"/>
<path fill-rule="evenodd" clip-rule="evenodd" d="M63.0139 39.3681C63.4761 39.3326 63.9382 40.2925 64.0449 41.5368C64.1515 42.7811 63.8671 43.8121 63.4049 43.8477C62.9428 43.8832 62.4806 42.9234 62.3739 41.679C62.2317 40.4347 62.5517 39.4037 63.0139 39.3681Z" fill="#F1CF00"/>
<path fill-rule="evenodd" clip-rule="evenodd" d="M62.8022 39.0875C62.98 39.052 63.1222 39.1942 63.1577 39.3719L63.6555 43.7804C63.691 43.9582 63.5488 44.1004 63.3711 44.1359C61.8068 44.3137 60.3847 43.3182 60.2425 41.9317C60.1003 40.5452 61.2379 39.2653 62.8022 39.0875Z" fill="#E9B600"/>
<path fill-rule="evenodd" clip-rule="evenodd" d="M62.3398 39.191L62.9798 44.1328C63.122 44.1328 63.2642 44.1328 63.4064 44.0972C63.5842 44.0617 63.6908 43.9195 63.6908 43.7417L63.1931 39.3333C63.1576 39.1555 63.0153 39.0488 62.8376 39.0488C62.6598 39.0844 62.4821 39.1199 62.3398 39.191Z" fill="#9DC6C6"/>
<path fill-rule="evenodd" clip-rule="evenodd" d="M58.4289 37.3468L55.0159 36.458C54.8381 36.4224 54.6603 36.5291 54.6248 36.7069L54.5537 37.0624C54.5181 37.2401 54.6248 37.4179 54.8026 37.4534L58.2156 38.3422C58.3933 38.3778 58.5711 38.2711 58.6066 38.0934L58.6777 37.7379C58.7133 37.5957 58.6066 37.4179 58.4289 37.3468Z" fill="black"/>
<path d="M44.4957 61.2377C44.3535 61.5576 44.1758 61.8776 44.1046 62.1976C44.0335 62.5531 44.0691 62.9086 44.2469 63.193C44.6024 63.7263 45.3845 63.7619 46.06 63.7263C46.38 63.6908 46.7 63.6907 47.0199 63.6552C47.4465 63.6196 47.9087 63.5485 48.122 63.193C48.2998 62.8731 48.1931 62.482 48.0865 62.1265C47.8376 61.3088 47.731 60.4911 47.731 59.6378C47.731 59.389 47.731 59.1401 47.6599 58.8912C47.5176 58.5713 47.1977 58.3579 46.8777 58.2513C46.1311 58.038 45.5623 58.0735 45.349 58.7846C45.1357 59.6378 44.8512 60.4555 44.4957 61.2377Z" fill="#191213"/>
<path d="M47.0548 49.9647C47.2325 50.1425 47.4103 50.3558 47.4459 50.6046C47.517 50.8179 47.4459 51.0668 47.3748 51.2801C47.0903 52.24 46.4504 53.1288 46.3793 54.1598C46.3793 54.4798 46.4149 54.7642 46.3437 55.0842C46.2726 55.4397 46.0949 55.7241 45.9171 56.0085C45.7038 56.3996 45.455 56.7907 45.2416 57.1818C45.0994 57.4306 44.9572 57.6795 44.9572 57.9639C44.9928 58.4972 45.5616 58.7816 46.0593 58.9594C46.3438 59.066 46.6993 59.1371 46.9126 58.9238C46.9837 58.8172 47.0548 58.7105 47.0903 58.6038C47.9436 56.0085 48.8324 53.4488 49.6857 50.8535C49.899 50.2136 50.1123 49.5025 49.8634 48.8626C49.6145 48.1515 48.8679 47.7605 48.1925 47.4405C47.5525 47.1205 46.9481 46.8361 46.3082 46.5161C45.7749 46.2317 45.0283 46.0184 44.6017 46.4806C44.0329 47.1205 44.5661 47.6538 45.0283 47.9738C45.8816 48.4715 46.486 49.3248 47.0548 49.9647Z" fill="#2E4C5E"/>
<path d="M45.7778 61.4487C45.5645 61.9819 45.3512 62.5863 45.3867 63.1552C45.3867 63.2974 45.4223 63.404 45.5289 63.5107C45.6 63.5818 45.7067 63.6173 45.8133 63.6529C47.6265 64.1506 49.5819 64.2217 51.4306 63.8662C51.715 63.8307 51.9639 63.7595 52.1772 63.5818C52.3905 63.404 52.5327 63.1196 52.426 62.8707C52.2838 62.5508 51.8927 62.4797 51.5728 62.4441C50.9684 62.373 50.364 62.2664 49.8307 61.9819C49.2974 61.6975 48.8708 61.1642 48.8708 60.5599C48.8708 60.0977 49.0841 59.5644 48.7286 59.2444C48.5509 59.1022 48.3375 59.0667 48.1242 59.0667C47.4132 59.0311 47.0221 58.8534 46.5955 59.3866C46.2044 59.8488 45.9911 60.8798 45.7778 61.4487Z" fill="#281B1C"/>
<path d="M36.5686 31.268C35.0043 34.1832 34.2222 37.454 33.4756 40.6537C33.4045 40.9381 33.3333 41.2225 33.4045 41.507C33.4756 41.7914 33.76 42.0402 34.0444 41.9691C34.0444 42.2535 34.0444 42.538 34.0444 42.7868C34.4355 43.3557 35.111 43.6401 35.822 43.7112C36.4975 43.7823 37.173 43.6401 37.8485 43.4979C39.3061 43.1779 40.7282 42.8935 42.1858 42.5735C42.4702 42.5024 42.7902 42.4313 42.968 42.218C43.1457 41.9691 43.0746 41.5425 42.7902 41.507C43.8212 41.3292 44.2478 40.1204 44.4967 39.0894C44.7456 38.0584 44.9589 37.0629 45.2077 36.0319C45.5988 34.4321 45.9543 32.7967 45.9899 31.1257C45.9899 29.8814 45.8832 28.4949 46.772 27.6416C47.0565 27.3572 47.412 27.1795 47.5542 26.7884C47.7675 26.2551 47.3409 25.6863 46.9498 25.2241C46.4165 24.6553 45.9188 24.0864 45.3855 23.5532C45.3144 23.4465 45.2077 23.3754 45.0655 23.3398C44.9233 23.3398 44.8167 23.4465 44.71 23.5532C43.9634 24.3709 43.4657 24.6908 42.4702 25.1886C41.5814 25.6152 40.7993 26.1485 40.0527 26.7884C38.7017 27.9616 37.2441 29.597 36.5686 31.268Z" fill="#F1C114"/>
<path d="M39.3388 33.4339C39.1255 35.2826 39.5876 37.2735 40.9386 38.5179C41.863 39.3711 43.0717 39.7622 44.3161 39.9044C45.5604 40.0466 46.8047 39.9044 48.0135 39.7977C48.0846 39.6555 48.1557 39.5133 48.2268 39.3711C48.5112 39.4778 48.8312 39.5844 49.1156 39.6911C49.2223 39.5489 49.3289 39.4422 49.4356 39.3C49.5422 39.62 49.8977 39.7978 50.2177 39.7266C50.3244 38.8734 50.5732 38.0557 50.9643 37.2735C48.7245 36.8469 46.4492 36.3847 44.4227 35.3537C44.1027 35.176 43.7472 34.9982 43.3917 35.1049C43.6761 33.6117 43.7472 32.0829 43.605 30.5898C43.5339 29.8787 43.4273 29.1321 42.9651 28.5633C40.7964 25.968 39.481 32.2607 39.3388 33.4339Z" fill="#F1C114"/>
<path d="M43.7511 29.6672C43.68 29.3117 43.6444 28.9562 43.4667 28.6362C43.2889 28.3163 42.9689 27.9963 42.6134 28.103C42.1868 28.2452 42.1868 28.8495 42.2579 29.2762C42.4712 30.556 42.6845 31.8715 42.8979 33.1513C43.0401 34.0757 43.1823 35.0356 42.8979 35.9244C43.1112 35.8889 43.2889 35.8889 43.5022 35.8533C43.5022 36.0666 43.5378 36.2799 43.5378 36.4932C45.0665 36.9199 46.6308 37.2398 48.2307 37.3465C48.1951 36.7777 47.4841 36.5288 46.9152 36.3866C46.2397 36.2444 45.5287 36.0311 44.8888 35.7111C44.1066 35.32 44.2133 35.1778 44.2133 34.289C44.1422 32.7603 44 31.196 43.7511 29.6672Z" fill="#F4CE15"/>
<path d="M46.0618 27.5344C46.4173 27.2856 46.7017 27.0012 46.9861 26.6812C46.7017 26.3257 46.4528 26.0057 46.1684 25.6502C46.1329 25.6146 46.0973 25.5435 46.0262 25.508C45.9196 25.4369 45.7774 25.508 45.6707 25.5791C45.4218 25.7924 45.3863 26.1835 45.5285 26.5034C45.6351 26.8234 45.884 27.0723 46.1329 27.2856" fill="#F4CE15"/>
<path d="M42.8979 41.2931C42.6135 41.5419 42.1869 41.5419 41.8313 41.5064C41.6536 41.5064 41.4403 41.4708 41.298 41.3997C41.1558 41.2931 41.0492 41.0798 41.1203 40.9376C41.1914 40.7954 41.4047 40.7598 41.5825 40.7598C41.8313 40.7598 42.0802 40.7598 42.3291 40.6531C42.5779 40.582 42.7912 40.3687 42.8268 40.1554C43.0045 40.0488 43.289 40.191 43.3601 40.4043C43.4312 40.6176 43.3601 40.8664 43.1823 41.0087C43.0401 41.1864 42.8268 41.2931 42.649 41.3997" fill="#F4CE15"/>
<path d="M35.8906 45.6299C36.8505 46.1987 37.9881 46.341 39.0902 46.4476C40.3346 46.5898 41.5433 46.732 42.7877 46.8742C44.4942 47.0875 46.3784 47.372 47.445 48.7229C47.5516 48.8651 47.6583 49.0429 47.8361 49.0785C48.0138 49.114 48.2271 49.0074 48.4049 48.9718C48.5827 48.9007 48.8671 48.9718 48.8671 49.1851C48.6538 49.3629 48.5471 49.6473 48.5827 49.9317C48.7249 49.8962 48.8671 49.8962 49.0093 49.8606C49.0804 50.2161 48.8671 50.5361 48.6893 50.8205C48.1205 51.7449 47.7294 52.8114 47.6583 53.878C47.5872 54.6601 47.6227 55.4778 47.2317 56.1178C47.0539 56.4022 46.7695 56.6511 46.5917 56.971C46.414 57.2554 46.3073 57.5399 46.3073 57.8598C46.2362 58.9264 47.1961 59.9574 48.2627 59.8863C49.3648 59.7796 50.0758 58.7486 50.6091 57.7887C52.209 54.8734 53.3822 51.6738 53.7733 48.3674C53.8444 47.8341 53.8799 47.2653 53.7022 46.732C53.3111 45.5232 52.0312 44.9189 50.8935 44.4567C48.9382 43.6745 46.9117 42.9635 44.8852 42.3591C44.3164 42.1814 43.7831 42.0391 43.1787 42.0036C42.681 41.968 42.1477 42.0391 41.65 42.1102C39.6946 42.3591 37.7393 42.608 35.7839 42.8924C34.8596 42.9991 34.1485 42.8568 34.4685 43.9945C34.6818 44.6345 35.2506 45.2388 35.8906 45.6299Z" fill="#3D5E77"/>
<path d="M49.1162 45.4516C49.6851 45.6649 50.2895 45.9137 50.7516 46.3404C51.8538 47.3714 51.7471 49.149 51.2849 50.5711C50.8227 51.9932 50.0406 53.3797 50.0761 54.8729C50.2895 55.0862 50.6094 54.7662 50.7516 54.5173C51.7827 52.5975 52.4226 50.4644 52.6715 48.2957C52.7426 47.7269 52.7781 47.087 52.4581 46.6248C52.2093 46.1982 51.7471 45.9493 51.2849 45.736C49.0096 44.6339 46.1299 43.0696 43.6057 42.7852C43.5701 43.9228 48.1919 45.0605 49.1162 45.4516Z" fill="#4A6D82"/>
<path d="M52.2465 39.4051C52.4598 39.4051 52.7087 39.4051 52.922 39.3695C53.7753 39.1562 54.2374 38.1963 55.0551 37.983C55.0907 37.983 55.1618 37.9474 55.1973 37.983C55.2684 37.983 55.3396 38.0541 55.3751 38.1252C55.5173 38.2674 55.624 38.4452 55.8017 38.5518C55.9795 38.6585 56.1928 38.7296 56.3706 38.6229C56.5483 38.5163 56.6194 38.2319 56.4417 38.1252C56.5128 38.303 56.7616 38.3741 56.9394 38.303C57.1172 38.2319 57.1883 37.983 57.0816 37.8052C57.1527 37.9474 57.3305 38.0186 57.5082 37.983C57.6504 37.9474 57.7926 37.8052 57.7926 37.663C57.8282 37.4142 57.6149 37.2364 57.4727 37.0587C57.2594 36.8098 57.0461 36.5254 56.7972 36.2765C56.5483 36.0276 56.2639 35.8143 55.9084 35.7788C55.624 35.7432 55.3751 35.8143 55.1262 35.921C54.5574 36.1343 53.9886 36.3832 53.4553 36.6676C53.0287 36.9164 52.6376 37.1653 52.1754 37.3431C51.7132 37.5208 51.2155 37.6275 50.7533 37.5208C50.4689 37.4497 50.0423 39.0496 50.1845 39.2629C50.2912 39.4406 50.8244 39.3695 51.0733 39.3695C51.4644 39.3695 51.8554 39.4051 52.2465 39.4051Z" fill="#EDB38C"/>
<path d="M53.9865 20.9879C54.1998 21.3434 54.6975 21.4501 54.8753 21.8412C54.2709 22.0545 53.8087 22.5522 53.5954 23.1566C53.3465 23.8676 53.4532 24.7209 52.9199 25.2897C52.4577 25.7875 51.6756 25.823 51.0356 25.6453C50.3957 25.4675 49.7558 25.1831 49.0803 25.112C48.227 25.0409 47.3738 25.3608 46.8049 25.9652C46.6627 26.1074 46.5205 26.2852 46.3072 26.2496C46.165 26.2141 46.0939 26.1074 45.9872 26.0008C45.6673 25.5741 45.3473 25.1475 45.0273 24.6853C45.4895 24.1876 45.7384 23.5121 45.7384 22.8011C45.7384 22.2678 45.5606 21.7345 45.5251 21.2368C45.3829 19.317 47.0538 17.5749 48.9381 17.1128C50.3957 16.7572 52.8843 16.8994 54.1642 17.8238C55.4085 18.7837 53.311 19.9214 53.9865 20.9879Z" fill="#EDB38C"/>
<path d="M52.7441 18.9334C52.8507 19.1823 52.4952 19.3245 52.2463 19.3245C51.7486 19.3245 51.2864 19.1468 50.8243 19.0756C50.3265 19.0401 49.7577 19.2179 49.6155 19.68C49.5088 20 49.6155 20.32 49.651 20.6399C49.6866 20.9599 49.6155 21.351 49.2955 21.4576C49.0467 21.1021 49.1178 20.5688 48.7978 20.2844C48.5134 20.0356 48.0868 20.1067 47.7668 20.2844C47.4824 20.3911 47.198 20.5688 47.0913 20.8533C46.7713 21.4932 47.3402 22.2753 47.1268 22.9508C47.0557 23.1641 46.878 23.3774 46.7358 23.5197C46.5225 23.733 46.3092 23.9463 46.0603 24.0529C45.7759 24.1596 45.4559 24.1596 45.2426 23.9463C44.8871 23.5908 45.0648 23.0219 44.9937 22.5242C44.8871 21.9909 44.4604 21.5998 44.3538 21.1021C44.3182 20.8177 44.3538 20.5333 44.4249 20.2489C44.6027 19.5378 44.7804 18.7912 45.1715 18.1513C45.8114 17.1203 46.9135 16.4092 48.0868 16.0893C49.26 15.7693 50.5043 15.8049 51.7131 16.0182C52.2463 16.1248 52.7796 16.2315 53.2063 16.5159C53.7395 16.8359 54.2373 17.3691 54.8417 17.3336C54.6639 17.4758 54.4861 17.5825 54.2728 17.6536C54.5572 17.7958 54.8061 17.9735 55.055 18.2224C54.9839 18.3646 54.8061 18.4357 54.6639 18.4357C54.8417 18.7201 54.735 19.1823 54.3439 19.2179C54.0951 19.2534 53.7751 18.969 53.5262 18.9334C53.5973 18.969 53.6684 19.0401 53.7395 19.1112C53.4907 19.1467 52.8152 19.1467 52.7441 18.9334Z" fill="#9E5E32"/>
<path d="M48.4774 21.9114C48.4774 21.9469 48.4419 21.9469 48.4063 21.9469C48.3708 21.9469 48.3708 21.9114 48.3708 21.8758C48.3352 21.7691 48.2996 21.6269 48.3352 21.5203C48.3707 21.4136 48.513 21.307 48.6196 21.3781C48.6907 21.1648 48.6552 20.9159 48.4774 20.7737C48.2996 20.6315 48.0508 20.6315 47.873 20.7381C47.7308 20.8448 47.6597 21.0226 47.5886 21.1648C47.553 21.307 47.482 21.4492 47.5175 21.5914C47.5531 21.698 47.6242 21.8047 47.6953 21.9114C47.7664 22.018 47.873 22.1247 47.9441 22.2313C48.0152 22.338 48.1219 22.4446 48.2641 22.4802C48.4063 22.4802 48.513 22.3735 48.5485 22.2313C48.5841 22.0891 48.5485 21.9469 48.4774 21.8402" fill="#C19272"/>
<path d="M53.5615 21.4191C53.7748 21.3125 54.0237 21.2058 54.237 21.2413C54.5925 21.3125 54.8058 21.7035 54.8058 22.059C54.7703 22.4146 54.5925 22.7345 54.4147 23.0545C54.0948 23.5878 53.7748 24.1211 53.4548 24.6544C53.2415 25.0099 52.9927 25.3654 52.6371 25.5787C52.2105 25.8631 51.6417 25.8276 51.1439 25.6854C50.6462 25.5076 50.2196 25.2232 49.793 24.9388C49.8285 24.6544 50.0774 24.4766 50.2907 24.2988C50.6462 23.9078 50.7173 23.3034 50.6818 22.7701C50.6107 21.9168 51.0728 22.1301 51.7483 22.0235C52.3883 21.8813 52.9927 21.7035 53.5615 21.4191Z" fill="#CEEAE8"/>
<path d="M49.0832 21.0985C49.7232 21.5607 50.3631 21.9873 51.0386 22.3429C51.1453 22.414 51.2519 22.2362 51.1453 22.1651C50.4698 21.774 49.7943 21.3829 49.1899 20.9208C49.0832 20.8497 48.9766 21.0274 49.0832 21.0985Z" fill="#CEEAE8"/>
<path d="M47.0559 22.8388C48.0869 23.5498 49.1179 24.2609 50.1134 25.0074C50.22 25.0785 50.2911 24.9008 50.22 24.8297C49.2246 24.0831 48.1936 23.3365 47.1626 22.661C47.0559 22.5899 46.9492 22.7677 47.0559 22.8388Z" fill="#CEEAE8"/>
<path d="M51.2162 23.3025C51.2162 23.1248 51.2162 22.9115 51.3229 22.7337C51.4651 22.5559 51.6784 22.4848 51.8917 22.4493C52.2828 22.3426 52.6383 22.2004 52.9583 21.9871C53.0294 21.9516 53.0649 21.916 53.136 21.916C53.2782 21.916 53.4204 22.0938 53.3849 22.236C53.3849 22.3782 53.2782 22.5204 53.2071 22.6982V22.7693C53.2071 22.8048 53.2427 22.8048 53.2782 22.8404C53.4204 22.947 53.3849 23.1603 53.3138 23.3025C53.2071 23.4448 53.0294 23.4803 52.8872 23.5159C52.7805 23.5159 52.6383 23.5159 52.6027 23.6225C52.5672 23.6581 52.5672 23.7292 52.5672 23.7647C52.5672 24.2625 52.1761 24.7246 51.6784 24.8313C51.7139 24.9379 51.7139 25.0446 51.7139 25.1513C51.7139 25.1868 51.7139 25.2224 51.6784 25.2579C51.6428 25.2935 51.5362 25.2579 51.5006 25.2224C51.1451 25.0446 50.6118 24.9379 50.754 24.4758C50.8962 24.0847 51.2162 23.8003 51.2162 23.3025Z" fill="#B7CECC"/>
<path d="M47.8031 22.52C47.9809 22.52 48.1231 22.4845 48.2653 22.4134C48.4075 22.3423 48.4786 22.2001 48.5852 22.0223C48.9763 21.3113 49.0474 20.3869 49.6163 19.8181C50.2917 19.107 51.3228 19.2137 52.2471 19.2137C52.9937 19.2137 53.7047 19.107 54.4158 18.9648C54.558 18.9293 54.7002 18.8937 54.8069 18.8226C54.9846 18.6804 55.0913 18.396 55.0913 18.1116C55.1268 17.1161 54.4158 16.2629 53.6692 15.7296C52.3538 14.7341 50.7539 14.2719 49.1896 14.343C47.6253 14.4497 46.0611 15.0896 44.8523 16.2273C44.2123 16.8317 43.6435 17.5783 43.4658 18.4671C43.3591 19.0359 43.3946 19.6048 43.4658 20.1736C43.5369 20.6713 43.608 21.169 43.8213 21.6312C44.6034 23.1244 46.5232 22.6267 47.8031 22.52Z" fill="#F1C114"/>
<path d="M46.7034 15.0875C45.7079 15.443 44.7836 15.9763 44.1792 16.8295C43.5748 17.6828 43.3259 18.8204 43.7526 19.7803C43.8592 20.0647 44.0725 20.3492 44.3569 20.4558C44.748 20.598 45.2102 20.4203 45.4946 20.1359C46.099 19.5315 46.3834 18.7493 46.9878 18.1449C47.4855 17.6472 48.0899 17.4339 48.5876 17.0073C49.0143 16.6517 49.192 16.0118 48.9076 15.4785C48.4454 14.6608 47.4144 14.8386 46.7034 15.0875Z" fill="#F4CE15"/>
<path d="M48.23 25.0102V25.1169L48.1589 25.1524C48.0523 25.2235 47.91 25.2591 47.8034 25.2946C47.519 24.4414 47.3057 23.5526 47.2346 22.6638C47.2346 22.5571 47.199 22.486 47.2346 22.3793C47.3057 22.2371 47.6612 22.0238 47.8034 22.166C47.8745 22.2371 47.8034 22.9837 47.8034 23.1259C47.8745 23.7659 48.0167 24.4058 48.23 25.0102Z" fill="#681616"/>
<path d="M52.1045 20.1725C52.4955 19.9948 52.8155 19.9237 53.2421 19.9237C53.4199 19.9237 53.6332 19.8526 53.6332 19.6393V19.6037C53.491 19.5682 53.3843 19.6393 53.2421 19.6393C53.0644 19.6393 52.9222 19.6393 52.78 19.6748C52.5311 19.7104 52.2111 19.8526 52.0334 20.0659C51.9623 20.137 52.0334 20.2081 52.1045 20.1725Z" fill="#4C3729"/>
<path d="M52.1758 20.743C52.4246 20.6008 52.6735 20.6008 52.9579 20.5653C53.1001 20.5297 53.2779 20.5297 53.349 20.3875C53.349 20.352 53.349 20.3164 53.3134 20.3164C53.2068 20.352 53.1357 20.3875 53.0646 20.4231C52.9579 20.4586 52.8513 20.4586 52.7446 20.4942C52.5313 20.5653 52.3535 20.6364 52.1758 20.743Z" fill="#4C3729"/>
<path d="M52.8521 20.5297C52.8166 20.6008 52.781 20.8141 52.9232 20.8497C53.0654 20.8852 53.0654 20.6363 53.0654 20.5652L52.9943 20.4941L52.9232 20.5297L52.8877 20.6008V20.6363V20.7074V20.6719V20.6363C52.8877 20.6008 52.8877 20.5652 52.8521 20.5297Z" fill="#4C3729"/>
<path d="M52.5343 20.8465C52.6409 20.9176 52.7476 20.9176 52.8542 20.9176C52.9253 20.9176 53.0675 20.882 53.1031 20.8109V20.7754C53.032 20.7754 52.9609 20.8109 52.8898 20.8465C52.7831 20.8821 52.6765 20.8465 52.5698 20.8109C52.5343 20.8109 52.4987 20.8465 52.5343 20.8465Z" fill="#4C3729"/>
<path d="M52.7415 21.0633C52.7771 21.0633 52.8482 21.0633 52.8837 21.0277V20.9922C52.8482 20.9922 52.7771 20.9922 52.7415 20.9922C52.706 20.9922 52.706 21.0633 52.7415 21.0633Z" fill="#4C3729"/>
</svg>
