<svg width="20" height="20" viewBox="0 0 20 20" fill="none" xmlns="http://www.w3.org/2000/svg">
<path d="M5 2.08341C5 1.8533 5.18654 1.66675 5.41667 1.66675C5.64679 1.66675 5.83333 1.8533 5.83333 2.08341V4.58341C5.83333 4.81354 5.64679 5.00008 5.41667 5.00008C5.18654 5.00008 5 4.81354 5 4.58341V2.08341Z" fill="#929497"/>
<path d="M11.6667 2.08341C11.6667 1.8533 11.8533 1.66675 12.0834 1.66675C12.3135 1.66675 12.5001 1.8533 12.5001 2.08341V4.58341C12.5001 4.81354 12.3135 5.00008 12.0834 5.00008C11.8533 5.00008 11.6667 4.81354 11.6667 4.58341V2.08341Z" fill="#929497"/>
<path fill-rule="evenodd" clip-rule="evenodd" d="M5.83341 9.58333H5.00008V10.4167H5.83341V9.58333ZM5.00008 8.75C4.53983 8.75 4.16675 9.12308 4.16675 9.58333V10.4167C4.16675 10.8769 4.53983 11.25 5.00008 11.25H5.83341C6.29366 11.25 6.66675 10.8769 6.66675 10.4167V9.58333C6.66675 9.12308 6.29366 8.75 5.83341 8.75H5.00008Z" fill="#929497"/>
<path fill-rule="evenodd" clip-rule="evenodd" d="M9.16667 9.58333H8.33333V10.4167H9.16667V9.58333ZM8.33333 8.75C7.87308 8.75 7.5 9.12308 7.5 9.58333V10.4167C7.5 10.8769 7.87308 11.25 8.33333 11.25H9.16667C9.62692 11.25 10 10.8769 10 10.4167V9.58333C10 9.12308 9.62692 8.75 9.16667 8.75H8.33333Z" fill="#929497"/>
<path fill-rule="evenodd" clip-rule="evenodd" d="M12.4999 9.58333H11.6666V10.4167H12.4999V9.58333ZM11.6666 8.75C11.2063 8.75 10.8333 9.12308 10.8333 9.58333V10.4167C10.8333 10.8769 11.2063 11.25 11.6666 11.25H12.4999C12.9602 11.25 13.3333 10.8769 13.3333 10.4167V9.58333C13.3333 9.12308 12.9602 8.75 12.4999 8.75H11.6666Z" fill="#929497"/>
<path fill-rule="evenodd" clip-rule="evenodd" d="M5.83341 12.9166H5.00008V13.7499H5.83341V12.9166ZM5.00008 12.0833C4.53983 12.0833 4.16675 12.4563 4.16675 12.9166V13.7499C4.16675 14.2102 4.53983 14.5833 5.00008 14.5833H5.83341C6.29366 14.5833 6.66675 14.2102 6.66675 13.7499V12.9166C6.66675 12.4563 6.29366 12.0833 5.83341 12.0833H5.00008Z" fill="#929497"/>
<path fill-rule="evenodd" clip-rule="evenodd" d="M9.16667 12.9166H8.33333V13.7499H9.16667V12.9166ZM8.33333 12.0833C7.87308 12.0833 7.5 12.4563 7.5 12.9166V13.7499C7.5 14.2102 7.87308 14.5833 8.33333 14.5833H9.16667C9.62692 14.5833 10 14.2102 10 13.7499V12.9166C10 12.4563 9.62692 12.0833 9.16667 12.0833H8.33333Z" fill="#929497"/>
<path fill-rule="evenodd" clip-rule="evenodd" d="M3.74992 4.16659H13.7499C14.2102 4.16659 14.5833 4.53967 14.5833 4.99992V11.6666C14.871 11.6666 15.1503 11.703 15.4166 11.7716V4.99992C15.4166 4.07944 14.6704 3.33325 13.7499 3.33325H3.74992C2.82944 3.33325 2.08325 4.07944 2.08325 4.99992V14.9999C2.08325 15.9204 2.82944 16.6666 3.74992 16.6666H11.6959C11.5467 16.4087 11.431 16.1289 11.3549 15.8333H3.74992C3.28968 15.8333 2.91659 15.4602 2.91659 14.9999V4.99992C2.91659 4.53967 3.28968 4.16659 3.74992 4.16659Z" fill="#929497"/>
<path d="M2.08325 4.99992C2.08325 4.07944 2.82944 3.33325 3.74992 3.33325H13.7499C14.6704 3.33325 15.4166 4.07944 15.4166 4.99992V7.91658H2.08325V4.99992Z" fill="#929497"/>
<path fill-rule="evenodd" clip-rule="evenodd" d="M13.7499 4.16659H3.74992C3.28968 4.16659 2.91659 4.53967 2.91659 4.99992V7.08325H14.5833V4.99992C14.5833 4.53967 14.2102 4.16659 13.7499 4.16659ZM3.74992 3.33325C2.82944 3.33325 2.08325 4.07944 2.08325 4.99992V7.91658H15.4166V4.99992C15.4166 4.07944 14.6704 3.33325 13.7499 3.33325H3.74992Z" fill="#929497"/>
<path fill-rule="evenodd" clip-rule="evenodd" d="M15 7.91659H2.5V7.08325H15V7.91659Z" fill="#929497"/>
<path fill-rule="evenodd" clip-rule="evenodd" d="M14.5833 17.5001C15.964 17.5001 17.0833 16.3808 17.0833 15.0001C17.0833 13.6194 15.964 12.5001 14.5833 12.5001C13.2026 12.5001 12.0833 13.6194 12.0833 15.0001C12.0833 16.3808 13.2026 17.5001 14.5833 17.5001ZM14.5833 18.3334C16.4243 18.3334 17.9167 16.841 17.9167 15.0001C17.9167 13.1591 16.4243 11.6667 14.5833 11.6667C12.7424 11.6667 11.25 13.1591 11.25 15.0001C11.25 16.841 12.7424 18.3334 14.5833 18.3334Z" fill="#929497"/>
<path fill-rule="evenodd" clip-rule="evenodd" d="M14.5834 12.9912C14.8135 12.9912 15.0001 13.1778 15.0001 13.4079V15.1988L16.0215 15.9078C16.2106 16.039 16.2575 16.2986 16.1262 16.4877C15.995 16.6767 15.7354 16.7236 15.5463 16.5924L14.1667 15.6348V13.4079C14.1667 13.1778 14.3533 12.9912 14.5834 12.9912Z" fill="#929497"/>
</svg>
