<svg width="54" height="38" viewBox="0 0 54 38" fill="none" xmlns="http://www.w3.org/2000/svg">
<rect x="1.34345" y="1.34345" width="51.4223" height="35.6697" rx="4.59582" fill="white" stroke="#E8E9EA" stroke-width="1.31309"/>
<path d="M23.8359 36.3563L52.1119 28.125V33.4929C52.1119 35.0743 50.8299 36.3563 49.2485 36.3563H23.8359Z" fill="#FD6020"/>
<path fill-rule="evenodd" clip-rule="evenodd" d="M45.2178 15.7583C46.7734 15.7583 47.629 16.4505 47.629 17.758C47.7068 18.7578 47.0067 19.6039 46.0734 19.7577L48.1734 22.6034H46.5401L44.7511 19.8346H44.5955V22.6034H43.2733V15.7583H45.2178ZM44.5959 18.9117H44.9848C45.8404 18.9117 46.2293 18.5271 46.2293 17.8348C46.2293 17.2195 45.8404 16.8349 44.9848 16.8349H44.5959V18.9117ZM38.6822 22.6041H42.4157V21.4505H40.0045V19.6046H42.3379V18.4509H40.0045V16.9127H42.4157V15.759H38.6822V22.6041ZM34.7939 20.3737L33.0049 15.759H31.6048L34.4827 22.7579H35.1828L38.0606 15.759H36.6606L34.7939 20.3737ZM19.0048 19.219C19.0048 21.1418 20.5604 22.7569 22.505 22.7569C23.1272 22.7569 23.6717 22.6031 24.2161 22.3724V20.8341C23.8272 21.2956 23.2828 21.6032 22.6605 21.6032C21.416 21.6032 20.4049 20.6803 20.4049 19.4497V19.2959C20.3271 18.0653 21.3383 16.9885 22.5827 16.9116C23.205 16.9116 23.8272 17.2193 24.2161 17.6807V16.1425C23.7495 15.8349 23.1272 15.758 22.5827 15.758C20.5604 15.6041 19.0048 17.2193 19.0048 19.219ZM16.5937 18.3733C15.8159 18.0656 15.5826 17.9118 15.5826 17.5273C15.6603 17.0658 16.0493 16.6812 16.5159 16.7581C16.9048 16.7581 17.2937 16.9889 17.6049 17.2965L18.3049 16.3736C17.7604 15.9121 17.0604 15.6045 16.3604 15.6045C15.2714 15.5276 14.3381 16.3736 14.2603 17.4503V17.5273C14.2603 18.4502 14.6492 18.9886 15.8937 19.3731C16.2048 19.45 16.5159 19.6039 16.8271 19.7577C17.0604 19.9115 17.216 20.1423 17.216 20.4499C17.216 20.9883 16.7493 21.4497 16.2826 21.4497H16.2048C15.5826 21.4497 15.0381 21.0652 14.8048 20.5268L13.9492 21.3728C14.4159 22.2189 15.3492 22.6803 16.2826 22.6803C17.5271 22.7572 18.5382 21.8343 18.616 20.6037V20.373C18.5382 19.45 18.1493 18.9886 16.5937 18.3733ZM12.0813 22.6041H13.4035V15.759H12.0813V22.6041ZM5.9375 15.7583H7.88202H8.27092C10.1377 15.8352 11.6155 17.3734 11.5377 19.2193C11.5377 20.2192 11.071 21.1421 10.2932 21.8343C9.59319 22.3727 8.73761 22.6803 7.88202 22.6034H5.9375V15.7583ZM7.64904 21.4508C8.27129 21.5277 8.97131 21.297 9.438 20.9124C9.90468 20.4509 10.138 19.8355 10.138 19.1432C10.138 18.5278 9.90468 17.9125 9.438 17.451C8.97131 17.0664 8.27129 16.8356 7.64904 16.9125H7.26014V21.4508H7.64904Z" fill="black"/>
<path fill-rule="evenodd" clip-rule="evenodd" d="M28.1834 15.5996C26.2389 15.5996 24.6055 17.1378 24.6055 19.1375C24.6055 21.0603 26.1611 22.6755 28.1834 22.7524C30.2057 22.8293 31.7613 21.2142 31.8391 19.2145C31.7613 17.2148 30.2057 15.5996 28.1834 15.5996V15.5996Z" fill="#FD6020"/>
</svg>
