<svg width="40" height="40" viewBox="0 0 40 40" fill="none" xmlns="http://www.w3.org/2000/svg">
<path d="M14.375 8.75H3.125C2.43464 8.75 1.875 9.30964 1.875 10V31.25C1.875 31.9404 2.43464 32.5 3.125 32.5H14.375C15.0654 32.5 15.625 31.9404 15.625 31.25V10C15.625 9.30964 15.0654 8.75 14.375 8.75Z" fill="#95CBE9"/>
<path d="M1.875 10.9352V13.4414L15.625 12.7914V10.2852L1.875 10.9352Z" fill="#6AA5BF"/>
<path d="M1.875 15.9391V18.4453L15.625 17.7953V15.2891L1.875 15.9391Z" fill="#6AA5BF"/>
<path d="M1.875 20.9469V23.4469L15.625 22.7969V20.2969L1.875 20.9469Z" fill="#6AA5BF"/>
<path d="M1.875 25.9547V28.4547L15.625 27.8047V25.3047L1.875 25.9547Z" fill="#6AA5BF"/>
<path d="M1.875 30.9609L15.625 30.3359V31.2484C15.625 31.58 15.4933 31.8979 15.2589 32.1323C15.0245 32.3667 14.7065 32.4984 14.375 32.4984H3.125C2.79348 32.4984 2.47554 32.3667 2.24112 32.1323C2.0067 31.8979 1.875 31.58 1.875 31.2484V30.9609Z" fill="#6AA5BF"/>
<path d="M25.625 15C26.0021 15.011 26.3724 15.1033 26.7105 15.2707C27.0486 15.438 27.3466 15.6765 27.584 15.9697C27.8214 16.2629 27.9926 16.6039 28.086 16.9694C28.1794 17.335 28.1927 17.7164 28.125 18.0875L25.625 35L23.125 18.0875C23.0573 17.7164 23.0706 17.335 23.164 16.9694C23.2574 16.6039 23.4286 16.2629 23.6661 15.9697C23.9035 15.6765 24.2014 15.438 24.5395 15.2707C24.8776 15.1033 25.2479 15.011 25.625 15Z" fill="#EBCC90"/>
<path d="M5 8.75V7.5C5 7.16848 5.1317 6.85054 5.36612 6.61612C5.60054 6.3817 5.91848 6.25 6.25 6.25H11.25C11.5815 6.25 11.8995 6.3817 12.1339 6.61612C12.3683 6.85054 12.5 7.16848 12.5 7.5V8.75" fill="#BCBCBC"/>
<path d="M12.5 32.5V33.75C12.5 34.0815 12.3683 34.3995 12.1339 34.6339C11.8995 34.8683 11.5815 35 11.25 35H6.25C5.91848 35 5.60054 34.8683 5.36612 34.6339C5.1317 34.3995 5 34.0815 5 33.75V32.5" fill="#BCBCBC"/>
<path d="M3.125 33.125H4.375V33.75C4.375 34.2473 4.57254 34.7242 4.92417 35.0758C5.27581 35.4275 5.75272 35.625 6.25 35.625H11.25C11.7473 35.625 12.2242 35.4275 12.5758 35.0758C12.9275 34.7242 13.125 34.2473 13.125 33.75V33.125H14.375C14.8723 33.125 15.3492 32.9275 15.7008 32.5758C16.0525 32.2242 16.25 31.7473 16.25 31.25V10C16.25 9.50272 16.0525 9.02581 15.7008 8.67417C15.3492 8.32254 14.8723 8.125 14.375 8.125H13.125V7.5C13.125 7.00272 12.9275 6.52581 12.5758 6.17417C12.2242 5.82254 11.7473 5.625 11.25 5.625H6.25C5.75272 5.625 5.27581 5.82254 4.92417 6.17417C4.57254 6.52581 4.375 7.00272 4.375 7.5V8.125H3.125C2.62772 8.125 2.15081 8.32254 1.79917 8.67417C1.44754 9.02581 1.25 9.50272 1.25 10V31.25C1.25 31.7473 1.44754 32.2242 1.79917 32.5758C2.15081 32.9275 2.62772 33.125 3.125 33.125ZM2.5 11.5313L15 10.9438V12.1938L2.5 12.7875V11.5313ZM2.5 14.0312L15 13.4438V14.6938L2.5 15.2875V14.0312ZM2.5 16.5312L15 15.9438V17.1938L2.5 17.7937V16.5312ZM2.5 19.0312L15 18.4438V19.6938L2.5 20.2938V19.0312ZM2.5 21.5312L15 20.9437V22.1937L2.5 22.7938V21.5312ZM2.5 24.0312L15 23.4437V24.6937L2.5 25.3V24.0312ZM2.5 26.5312L15 25.9437V27.1937L2.5 27.8V26.5312ZM2.5 29.0312L15 28.4437V29.6937L2.5 30.3063V29.0312ZM11.875 33.75C11.875 33.9158 11.8092 34.0747 11.6919 34.1919C11.5747 34.3092 11.4158 34.375 11.25 34.375H6.25C6.08424 34.375 5.92527 34.3092 5.80806 34.1919C5.69085 34.0747 5.625 33.9158 5.625 33.75V33.125H11.875V33.75ZM14.375 31.875H3.125C3.01638 31.8726 2.91026 31.842 2.8171 31.7861C2.72394 31.7302 2.64696 31.651 2.59375 31.5563L15 30.9688V31.25C15 31.4158 14.9342 31.5747 14.8169 31.6919C14.6997 31.8092 14.5408 31.875 14.375 31.875ZM5.625 7.5C5.625 7.33424 5.69085 7.17527 5.80806 7.05806C5.92527 6.94085 6.08424 6.875 6.25 6.875H11.25C11.4158 6.875 11.5747 6.94085 11.6919 7.05806C11.8092 7.17527 11.875 7.33424 11.875 7.5V8.125H5.625V7.5ZM3.125 9.375H14.375C14.4836 9.37737 14.5897 9.40802 14.6829 9.46392C14.7761 9.51981 14.853 9.59903 14.9062 9.69375L2.5 10.2813V10C2.5 9.83424 2.56585 9.67527 2.68306 9.55806C2.80027 9.44085 2.95924 9.375 3.125 9.375Z" fill="black"/>
<path d="M35 11.875H20C19.6685 11.875 19.3505 11.7433 19.1161 11.5089C18.8817 11.2745 18.75 10.9565 18.75 10.625C18.75 10.2935 18.8817 9.97554 19.1161 9.74112C19.3505 9.5067 19.6685 9.375 20 9.375H28.125C28.788 9.375 29.4239 9.11161 29.8928 8.64277C30.3616 8.17393 30.625 7.53804 30.625 6.875C30.625 6.21196 30.3616 5.57607 29.8928 5.10723C29.4239 4.63839 28.788 4.375 28.125 4.375H13.75V5.625H28.125C28.4565 5.625 28.7745 5.7567 29.0089 5.99112C29.2433 6.22554 29.375 6.54348 29.375 6.875C29.375 7.20652 29.2433 7.52446 29.0089 7.75888C28.7745 7.9933 28.4565 8.125 28.125 8.125H20C19.337 8.125 18.7011 8.38839 18.2322 8.85723C17.7634 9.32607 17.5 9.96196 17.5 10.625C17.5 11.288 17.7634 11.9239 18.2322 12.3928C18.7011 12.8616 19.337 13.125 20 13.125H35C35.663 13.125 36.2989 13.3884 36.7678 13.8572C37.2366 14.3261 37.5 14.962 37.5 15.625C37.5 16.288 37.2366 16.9239 36.7678 17.3928C36.2989 17.8616 35.663 18.125 35 18.125H28.75C28.8149 17.6488 28.7783 17.1643 28.6425 16.7032C28.5068 16.2422 28.275 15.8151 27.9625 15.45C27.6797 15.1135 27.3268 14.843 26.9284 14.6574C26.53 14.4718 26.0958 14.3756 25.6562 14.3756C25.2167 14.3756 24.7825 14.4718 24.3841 14.6574C23.9857 14.843 23.6328 15.1135 23.35 15.45C23.0319 15.8125 22.7945 16.2384 22.6533 16.6996C22.5122 17.1607 22.4706 17.6466 22.5312 18.125H17.5V19.375H22.7125L25 35.0875C25 35.2533 25.0658 35.4122 25.1831 35.5294C25.3003 35.6467 25.4592 35.7125 25.625 35.7125C25.7908 35.7125 25.9497 35.6467 26.0669 35.5294C26.1842 35.4122 26.25 35.2533 26.25 35.0875L28.5375 19.375H35C35.9946 19.375 36.9484 18.9799 37.6517 18.2767C38.3549 17.5734 38.75 16.6196 38.75 15.625C38.75 14.6304 38.3549 13.6766 37.6517 12.9733C36.9484 12.2701 35.9946 11.875 35 11.875ZM25.625 30.675L23.75 18C23.7028 17.6886 23.7242 17.3706 23.8128 17.0683C23.9013 16.7661 24.0548 16.4868 24.2625 16.25C24.4278 16.0485 24.6358 15.8862 24.8714 15.7748C25.107 15.6633 25.3644 15.6055 25.625 15.6055C25.8856 15.6055 26.143 15.6633 26.3786 15.7748C26.6142 15.8862 26.8222 16.0485 26.9875 16.25C27.1952 16.4868 27.3487 16.7661 27.4372 17.0683C27.5258 17.3706 27.5472 17.6886 27.5 18V18.125H26.25V16.875H25V20.625H26.25V19.375H27.275L25.625 30.675Z" fill="black"/>
</svg>
