<svg width="54" height="54" viewBox="0 0 54 54" fill="none" xmlns="http://www.w3.org/2000/svg">
<path d="M50.0624 27.5336C50.0624 25.836 49.91 24.2037 49.6271 22.6367H27.0798V31.9081H39.964C39.3981 34.8897 37.7005 37.4143 35.1542 39.1119V45.1404H42.9239C47.4507 40.9618 50.0624 34.8244 50.0624 27.5336Z" fill="#4285F4"/>
<path d="M27.08 50.9293C33.5439 50.9293 38.963 48.7965 42.924 45.1402L35.1544 39.1116C33.0215 40.548 30.3011 41.4185 27.08 41.4185C20.8556 41.4185 15.567 37.2181 13.6735 31.5596H5.70801V37.7405C9.64725 45.5537 17.7216 50.9293 27.08 50.9293Z" fill="#34A853"/>
<path d="M13.6726 31.5409C13.1938 30.1044 12.9108 28.581 12.9108 26.9922C12.9108 25.4035 13.1938 23.88 13.6726 22.4436V16.2627H5.70704C4.07476 19.4837 3.13892 23.1183 3.13892 26.9922C3.13892 30.8662 4.07476 34.5007 5.70704 37.7218L11.9097 32.8902L13.6726 31.5409Z" fill="#FBBC05"/>
<path d="M27.08 12.5828C30.6057 12.5828 33.7397 13.8016 36.2426 16.1521L43.0981 9.29649C38.9413 5.42254 33.5439 3.05029 27.08 3.05029C17.7216 3.05029 9.64725 8.42594 5.70801 16.2609L13.6735 22.4418C15.567 16.7832 20.8556 12.5828 27.08 12.5828Z" fill="#EA4335"/>
</svg>
