<svg width="100" height="98" viewBox="0 0 100 98" fill="none" xmlns="http://www.w3.org/2000/svg">
<path d="M4.41526 54.9555C1.79279 51.4182 1.7928 46.5818 4.41526 43.0445L30.2924 8.13991C32.8385 4.70564 37.2861 3.26974 41.3597 4.56686L83.485 17.9804C87.6337 19.3015 90.4509 23.1551 90.4509 27.509L90.4509 70.491C90.4509 74.8449 87.6337 78.6985 83.485 80.0196L41.3597 93.4331C37.2861 94.7303 32.8385 93.2944 30.2924 89.8601L4.41526 54.9555Z" fill="#E6F4FF"/>
<path d="M35.3704 49.8369H21.4669C19.4285 49.8369 17.7798 51.4858 17.7798 53.524V65.2233C17.7798 67.2616 19.4285 68.9106 21.4669 68.9106H35.3704C37.4086 68.9106 39.0575 67.2616 39.0575 65.2233V53.524C39.0575 51.4858 37.4086 49.8369 35.3704 49.8369ZM30.2911 52.8694C31.186 52.8694 31.9068 53.5902 31.9068 54.4768C31.9068 55.3634 31.186 56.0844 30.2911 56.0844C29.4045 56.0844 28.6837 55.3634 28.6837 54.4768C28.6837 53.5902 29.4045 52.8694 30.2911 52.8694ZM36.3646 64.4197C36.2983 64.5772 36.1492 64.6766 35.9752 64.6766H20.8704C20.7045 64.6766 20.5554 64.5853 20.4893 64.4362C20.4063 64.2954 20.4229 64.1215 20.5305 63.9971L26.1649 56.6809C26.3222 56.4655 26.6785 56.4655 26.836 56.6809L28.9324 59.3902C29.0566 59.556 29.2969 59.5643 29.4377 59.4152L30.3989 58.4042C30.5646 58.2302 30.8545 58.2302 31.0121 58.4042L36.2817 63.9639C36.3978 64.08 36.4393 64.2623 36.3646 64.4197Z" fill="#003CA3"/>
<path d="M51.1197 68.4585V63.9425C51.1197 61.8548 49.4213 60.1564 47.3337 60.1564H43.5299V49.01C43.5299 48.9359 43.5696 48.8926 43.6031 48.8696C43.6294 48.851 43.6703 48.8352 43.7156 48.8388L47.8467 51.2813C48.9379 51.9266 50.4631 50.5967 52.3812 47.3407C53.0565 46.1949 53.6026 45.0686 53.919 44.1688C54.1221 43.5919 54.6614 42.0602 53.6524 41.4658L45.1094 36.1481C43.4684 35.1269 41.6883 34.3599 39.8191 33.8679C39.7348 33.8457 34.9452 32.5886 35.0296 32.6109C34.7267 32.5057 34.3998 32.6457 34.3161 32.7003C31.6859 34.4088 25.5255 34.6489 22.5243 32.6999C22.5183 32.6959 22.5106 32.6961 22.5043 32.6922C22.3071 32.5747 22.0239 32.5518 21.8624 32.5935L17.2656 33.8036C15.227 34.34 13.3012 35.2006 11.5425 36.3621L3.07919 41.9501C2.62688 42.2819 1.78455 42.8997 5.02358 47.318C8.13477 51.5616 9.02525 51.1312 9.48687 50.7986L13.1155 48.84C13.1673 48.8328 13.2098 48.8498 13.2377 48.8696C13.2713 48.8926 13.3109 48.9359 13.3109 49.01V75.5659C13.3109 79.8411 25.8973 80.0575 28.4202 80.0575C30.9436 80.0575 43.5299 79.8411 43.5299 75.5659V61.8136H47.3337C48.5074 61.8136 49.4626 62.7688 49.4626 63.9425V68.4496C46.4815 68.8439 44.1618 71.4053 44.1618 74.4976V79.3364C44.1618 82.6921 46.9045 85.4347 50.2602 85.4347C53.6326 85.4347 56.3667 82.6921 56.3667 79.3364V74.4976C56.3667 71.4255 54.0841 68.8785 51.1197 68.4585ZM41.8728 49.01V75.5659C41.8728 76.7242 37.0822 78.4004 28.4202 78.4004C19.7586 78.4004 14.9681 76.7242 14.9681 75.5659V49.01C14.9681 48.4124 14.6756 47.8521 14.1856 47.5102C13.8749 47.2934 13.5088 47.1817 13.1398 47.1817C12.927 47.1817 12.7134 47.2189 12.5082 47.2942C12.4714 47.3079 12.4358 47.3241 12.401 47.3427L8.90064 49.2321C7.81071 48.4925 4.83222 44.4375 4.3706 43.0821L12.4552 37.745C14.0634 36.6834 15.8233 35.8965 17.6872 35.4065L21.4702 34.4113C22.3311 37.1743 25.1577 39.1565 28.4251 39.1565C31.7007 39.1565 34.5283 37.1735 35.389 34.4161L39.3976 35.4708C41.1065 35.9203 42.7333 36.6215 44.2339 37.5552L52.5888 42.7556C52.5507 44.1029 49.6499 49.031 48.4835 49.7329L44.4677 47.3585C44.4248 47.333 44.3795 47.3116 44.3326 47.2942C43.1335 46.8552 41.8728 47.7439 41.8728 49.01ZM51.9835 74.5804C51.9835 75.5251 51.213 76.2956 50.2602 76.2956C49.3155 76.2956 48.5533 75.5251 48.5533 74.5804V72.4426C48.5533 71.4981 49.3155 70.7276 50.2602 70.7276C51.213 70.7276 51.9835 71.4981 51.9835 72.4426V74.5804Z" fill="#003CA3"/>
</svg>
