<svg width="100" height="98" viewBox="0 0 100 98" fill="none" xmlns="http://www.w3.org/2000/svg">
<path d="M4.41526 54.9555C1.79279 51.4182 1.7928 46.5818 4.41526 43.0445L30.2924 8.13991C32.8385 4.70564 37.2861 3.26974 41.3597 4.56686L83.485 17.9804C87.6337 19.3015 90.4509 23.1551 90.4509 27.509L90.4509 70.491C90.4509 74.8449 87.6337 78.6985 83.485 80.0196L41.3597 93.4331C37.2861 94.7303 32.8385 93.2944 30.2924 89.8601L4.41526 54.9555Z" fill="#E6F4FF"/>
<g clip-path="url(#clip0_27216_174668)">
<path d="M2.54677 52.97C2.61275 53.3278 2.75099 53.6685 2.95305 53.9711C3.15511 54.2737 3.41674 54.5319 3.72197 54.73L11.3028 59.6332V81.5972C11.3028 82.2337 11.5556 82.8442 12.0057 83.2943C12.4558 83.7443 13.0662 83.9972 13.7028 83.9972H39.3028C39.9393 83.9972 40.5497 83.7443 40.9998 83.2943C41.4499 82.8442 41.7028 82.2337 41.7028 81.5972V75.1972H44.9028C45.5393 75.1972 46.1497 74.9443 46.5998 74.4943C47.0499 74.0442 47.3028 73.4337 47.3028 72.7972V56.0116L49.2836 54.7316C49.5894 54.5333 49.8514 54.2746 50.0535 53.9713C50.2556 53.6681 50.3935 53.3267 50.4588 52.9681C50.524 52.6096 50.5153 52.2414 50.433 51.8864C50.3507 51.5314 50.1967 51.1969 49.9804 50.9036L41.9908 40.1124C41.6211 39.6031 41.1072 39.2164 40.5156 39.002L33.0308 36.1772C32.4707 35.969 31.8595 35.941 31.2828 36.0972L31.1564 36.1292C29.6401 36.5498 28.0761 36.7743 26.5028 36.7972C24.9293 36.7735 23.3654 36.5482 21.8492 36.1268L21.73 36.0964C21.1493 35.9393 20.534 35.9673 19.97 36.1764L12.5028 38.998C11.9091 39.2111 11.393 39.5974 11.0212 40.1068L3.02517 50.906C2.80896 51.1993 2.65499 51.5336 2.57272 51.8886C2.49045 52.2435 2.48162 52.6115 2.54677 52.97ZM44.9028 73.5972H27.3028C27.0906 73.5972 26.8871 73.5129 26.7371 73.3629C26.5871 73.2129 26.5028 73.0094 26.5028 72.7972V71.1972H45.7028V72.7972C45.7028 73.0094 45.6185 73.2129 45.4685 73.3629C45.3184 73.5129 45.1149 73.5972 44.9028 73.5972ZM44.9028 54.3972C45.1149 54.3972 45.3184 54.4815 45.4685 54.6315C45.6185 54.7815 45.7028 54.985 45.7028 55.1972V66.13L41.5484 62.774C41.2485 62.5294 40.8734 62.3958 40.4864 62.3958C40.0994 62.3958 39.7242 62.5294 39.4244 62.774L36.9028 64.8116L34.3772 62.774C34.0769 62.53 33.7017 62.3968 33.3148 62.3968C32.9278 62.3968 32.5527 62.53 32.2524 62.774L26.5028 67.426V55.1972C26.5028 54.985 26.5871 54.7815 26.7371 54.6315C26.8871 54.4815 27.0906 54.3972 27.3028 54.3972H44.9028ZM26.5028 69.4828L33.2604 64.0204C33.2764 64.0063 33.297 63.9986 33.3184 63.9986C33.3397 63.9986 33.3603 64.0063 33.3764 64.0204L35.6332 65.8372L30.9876 69.5972H26.5028V69.4828ZM40.4284 64.0204C40.4444 64.0063 40.465 63.9986 40.4864 63.9986C40.5077 63.9986 40.5283 64.0063 40.5444 64.0204L45.7028 68.1868V69.5972H33.5324L40.4284 64.0204ZM48.694 51.8604C48.7804 51.9778 48.842 52.1116 48.8748 52.2537C48.9077 52.3957 48.9112 52.543 48.8852 52.6864C48.8591 52.8299 48.804 52.9665 48.7233 53.0879C48.6425 53.2093 48.5378 53.3129 48.4156 53.3924L47.0996 54.2372C46.913 53.8096 46.6058 53.4457 46.2157 53.19C45.8255 52.9342 45.3693 52.7978 44.9028 52.7972H41.7028V42.4132L48.694 51.8604ZM31.0444 37.8036C30.5948 39.5508 29.442 41.5972 26.5028 41.5972C23.5636 41.5972 22.4108 39.55 21.9612 37.8028C23.4454 38.1841 24.9704 38.3837 26.5028 38.3972C28.0351 38.3839 29.5601 38.1846 31.0444 37.8036ZM20.3116 37.7572C21.026 41.1812 23.2908 43.1972 26.5028 43.1972C29.7148 43.1972 31.9788 41.1804 32.694 37.7572L39.9596 40.5004C40.0093 40.5244 40.0576 40.5511 40.1044 40.5804V52.7972H37.7028V51.9972C37.7028 51.785 37.6185 51.5815 37.4685 51.4315C37.3184 51.2815 37.1149 51.1972 36.9028 51.1972C36.6906 51.1972 36.4871 51.2815 36.3371 51.4315C36.1871 51.5815 36.1028 51.785 36.1028 51.9972V52.7972H27.3028C26.6663 52.7972 26.0558 53.0501 25.6057 53.5001C25.1556 53.9502 24.9028 54.5607 24.9028 55.1972V72.7972C24.9028 73.4337 25.1556 74.0442 25.6057 74.4943C26.0558 74.9443 26.6663 75.1972 27.3028 75.1972H40.1028V81.5972C40.1028 81.8094 40.0185 82.0129 39.8685 82.1629C39.7184 82.3129 39.5149 82.3972 39.3028 82.3972H13.7028C13.4906 82.3972 13.2871 82.3129 13.1371 82.1629C12.9871 82.0129 12.9028 81.8094 12.9028 81.5972V40.582C12.9526 40.5522 13.0041 40.5255 13.0572 40.502L20.3116 37.7572ZM4.31157 51.8548L11.3028 42.4132V57.7284L4.59077 53.39C4.46845 53.3105 4.36366 53.2069 4.28283 53.0854C4.20199 52.964 4.14681 52.8273 4.12067 52.6838C4.09453 52.5403 4.09797 52.3929 4.1308 52.2508C4.16363 52.1087 4.22514 51.9747 4.31157 51.8572V51.8548Z" fill="#003CA3"/>
<path d="M30.901 61.601C31.4547 61.601 31.9961 61.4368 32.4565 61.1291C32.917 60.8214 33.2759 60.3841 33.4878 59.8725C33.6997 59.3609 33.7552 58.7979 33.6472 58.2547C33.5391 57.7116 33.2724 57.2127 32.8809 56.8211C32.4893 56.4295 31.9904 56.1628 31.4472 56.0548C30.9041 55.9467 30.3411 56.0022 29.8294 56.2141C29.3178 56.426 28.8805 56.7849 28.5728 57.2454C28.2652 57.7058 28.101 58.2472 28.101 58.801C28.101 59.5436 28.396 60.2558 28.9211 60.7809C29.4462 61.306 30.1583 61.601 30.901 61.601ZM30.901 57.601C31.1383 57.601 31.3703 57.6714 31.5676 57.8032C31.765 57.9351 31.9188 58.1225 32.0096 58.3418C32.1004 58.561 32.1242 58.8023 32.0779 59.0351C32.0316 59.2679 31.9173 59.4817 31.7495 59.6495C31.5817 59.8173 31.3678 59.9316 31.1351 59.9779C30.9023 60.0242 30.661 60.0005 30.4417 59.9096C30.2225 59.8188 30.035 59.665 29.9032 59.4677C29.7713 59.2703 29.701 59.0383 29.701 58.801C29.701 58.4827 29.8274 58.1775 30.0524 57.9525C30.2775 57.7274 30.5827 57.601 30.901 57.601Z" fill="#003CA3"/>
<path d="M16.1005 49.5989C16.3126 49.5989 16.5161 49.5146 16.6662 49.3646C16.8162 49.2146 16.9005 49.0111 16.9005 48.7989C16.9005 48.5868 16.9848 48.3833 17.1348 48.2332C17.2848 48.0832 17.4883 47.9989 17.7005 47.9989C17.9126 47.9989 18.1161 47.9146 18.2662 47.7646C18.4162 47.6146 18.5005 47.4111 18.5005 47.1989C18.5005 46.9868 18.4162 46.7833 18.2662 46.6332C18.1161 46.4832 17.9126 46.3989 17.7005 46.3989C17.064 46.3989 16.4535 46.6518 16.0034 47.1019C15.5533 47.552 15.3005 48.1624 15.3005 48.7989C15.3005 49.0111 15.3848 49.2146 15.5348 49.3646C15.6848 49.5146 15.8883 49.5989 16.1005 49.5989Z" fill="#003CA3"/>
<path d="M35.3012 47.9989C35.5134 47.9989 35.7168 48.0832 35.8669 48.2332C36.0169 48.3833 36.1012 48.5868 36.1012 48.7989C36.1012 49.0111 36.1855 49.2146 36.3355 49.3646C36.4855 49.5146 36.689 49.5989 36.9012 49.5989C37.1134 49.5989 37.3168 49.5146 37.4669 49.3646C37.6169 49.2146 37.7012 49.0111 37.7012 48.7989C37.7012 48.1624 37.4483 47.552 36.9982 47.1019C36.5482 46.6518 35.9377 46.3989 35.3012 46.3989C35.089 46.3989 34.8855 46.4832 34.7355 46.6332C34.5855 46.7833 34.5012 46.9868 34.5012 47.1989C34.5012 47.4111 34.5855 47.6146 34.7355 47.7646C34.8855 47.9146 35.089 47.9989 35.3012 47.9989Z" fill="#003CA3"/>
<path d="M20.8998 47.9989H22.4998C22.7119 47.9989 22.9154 47.9146 23.0654 47.7646C23.2155 47.6146 23.2998 47.4111 23.2998 47.1989C23.2998 46.9868 23.2155 46.7833 23.0654 46.6332C22.9154 46.4832 22.7119 46.3989 22.4998 46.3989H20.8998C20.6876 46.3989 20.4841 46.4832 20.3341 46.6332C20.184 46.7833 20.0998 46.9868 20.0998 47.1989C20.0998 47.4111 20.184 47.6146 20.3341 47.7646C20.4841 47.9146 20.6876 47.9989 20.8998 47.9989Z" fill="#003CA3"/>
<path d="M25.699 47.9989H27.299C27.5112 47.9989 27.7147 47.9146 27.8647 47.7646C28.0148 47.6146 28.099 47.4111 28.099 47.1989C28.099 46.9868 28.0148 46.7833 27.8647 46.6332C27.7147 46.4832 27.5112 46.3989 27.299 46.3989H25.699C25.4869 46.3989 25.2834 46.4832 25.1334 46.6332C24.9833 46.7833 24.899 46.9868 24.899 47.1989C24.899 47.4111 24.9833 47.6146 25.1334 47.7646C25.2834 47.9146 25.4869 47.9989 25.699 47.9989Z" fill="#003CA3"/>
<path d="M30.4983 47.9989H32.0983C32.3105 47.9989 32.514 47.9146 32.664 47.7646C32.814 47.6146 32.8983 47.4111 32.8983 47.1989C32.8983 46.9868 32.814 46.7833 32.664 46.6332C32.514 46.4832 32.3105 46.3989 32.0983 46.3989H30.4983C30.2861 46.3989 30.0826 46.4832 29.9326 46.6332C29.7826 46.7833 29.6983 46.9868 29.6983 47.1989C29.6983 47.4111 29.7826 47.6146 29.9326 47.7646C30.0826 47.9146 30.2861 47.9989 30.4983 47.9989Z" fill="#003CA3"/>
<path d="M17.7005 68.7996C17.9126 68.7996 18.1161 68.7153 18.2662 68.5653C18.4162 68.4153 18.5005 68.2118 18.5005 67.9996C18.5005 67.7874 18.4162 67.584 18.2662 67.4339C18.1161 67.2839 17.9126 67.1996 17.7005 67.1996C17.4883 67.1996 17.2848 67.1153 17.1348 66.9653C16.9848 66.8153 16.9005 66.6118 16.9005 66.3996C16.9005 66.1874 16.8162 65.984 16.6662 65.8339C16.5161 65.6839 16.3126 65.5996 16.1005 65.5996C15.8883 65.5996 15.6848 65.6839 15.5348 65.8339C15.3848 65.984 15.3005 66.1874 15.3005 66.3996C15.3005 67.0361 15.5533 67.6466 16.0034 68.0967C16.4535 68.5468 17.064 68.7996 17.7005 68.7996Z" fill="#003CA3"/>
<path d="M20.8998 68.8007H22.4998C22.7119 68.8007 22.9154 68.7164 23.0654 68.5664C23.2155 68.4163 23.2998 68.2129 23.2998 68.0007C23.2998 67.7885 23.2155 67.585 23.0654 67.435C22.9154 67.285 22.7119 67.2007 22.4998 67.2007H20.8998C20.6876 67.2007 20.4841 67.285 20.3341 67.435C20.184 67.585 20.0998 67.7885 20.0998 68.0007C20.0998 68.2129 20.184 68.4163 20.3341 68.5664C20.4841 68.7164 20.6876 68.8007 20.8998 68.8007Z" fill="#003CA3"/>
<path d="M16.1005 54.3982C16.3126 54.3982 16.5161 54.314 16.6662 54.1639C16.8162 54.0139 16.9005 53.8104 16.9005 53.5982V51.9982C16.9005 51.7861 16.8162 51.5826 16.6662 51.4326C16.5161 51.2825 16.3126 51.1982 16.1005 51.1982C15.8883 51.1982 15.6848 51.2825 15.5348 51.4326C15.3848 51.5826 15.3005 51.7861 15.3005 51.9982V53.5982C15.3005 53.8104 15.3848 54.0139 15.5348 54.1639C15.6848 54.314 15.8883 54.3982 16.1005 54.3982Z" fill="#003CA3"/>
<path d="M16.1005 59.201C16.3126 59.201 16.5161 59.1167 16.6662 58.9667C16.8162 58.8166 16.9005 58.6131 16.9005 58.401V56.801C16.9005 56.5888 16.8162 56.3853 16.6662 56.2353C16.5161 56.0853 16.3126 56.001 16.1005 56.001C15.8883 56.001 15.6848 56.0853 15.5348 56.2353C15.3848 56.3853 15.3005 56.5888 15.3005 56.801V58.401C15.3005 58.6131 15.3848 58.8166 15.5348 58.9667C15.6848 59.1167 15.8883 59.201 16.1005 59.201Z" fill="#003CA3"/>
<path d="M16.1005 64.0003C16.3126 64.0003 16.5161 63.916 16.6662 63.766C16.8162 63.6159 16.9005 63.4125 16.9005 63.2003V61.6003C16.9005 61.3881 16.8162 61.1846 16.6662 61.0346C16.5161 60.8846 16.3126 60.8003 16.1005 60.8003C15.8883 60.8003 15.6848 60.8846 15.5348 61.0346C15.3848 61.1846 15.3005 61.3881 15.3005 61.6003V63.2003C15.3005 63.4125 15.3848 63.6159 15.5348 63.766C15.6848 63.916 15.8883 64.0003 16.1005 64.0003Z" fill="#003CA3"/>
<path d="M36.1017 59.9989H37.7017C37.9139 59.9989 38.1174 59.9146 38.2674 59.7646C38.4174 59.6146 38.5017 59.4111 38.5017 59.1989C38.5017 58.9868 38.4174 58.7833 38.2674 58.6332C38.1174 58.4832 37.9139 58.3989 37.7017 58.3989H36.1017C35.8895 58.3989 35.686 58.4832 35.536 58.6332C35.386 58.7833 35.3017 58.9868 35.3017 59.1989C35.3017 59.4111 35.386 59.6146 35.536 59.7646C35.686 59.9146 35.8895 59.9989 36.1017 59.9989Z" fill="#003CA3"/>
<path d="M41.6978 59.2021H43.2978C43.51 59.2021 43.7135 59.1178 43.8635 58.9677C44.0135 58.8177 44.0978 58.6142 44.0978 58.4021C44.0978 58.1899 44.0135 57.9864 43.8635 57.8364C43.7135 57.6863 43.51 57.6021 43.2978 57.6021H41.6978C41.4857 57.6021 41.2822 57.6863 41.1321 57.8364C40.9821 57.9864 40.8978 58.1899 40.8978 58.4021C40.8978 58.6142 40.9821 58.8177 41.1321 58.9677C41.2822 59.1178 41.4857 59.2021 41.6978 59.2021Z" fill="#003CA3"/>
</g>
<defs>
<clipPath id="clip0_27216_174668">
<rect width="48" height="48" fill="white" transform="translate(2.5 36)"/>
</clipPath>
</defs>
</svg>
