<svg width="102" height="98" viewBox="0 0 102 98" fill="none" xmlns="http://www.w3.org/2000/svg">
<path d="M6.41526 54.9555C3.79279 51.4182 3.7928 46.5818 6.41526 43.0445L32.2924 8.13991C34.8385 4.70564 39.2861 3.26974 43.3597 4.56686L85.485 17.9804C89.6337 19.3015 92.4509 23.1551 92.4509 27.509L92.4509 70.491C92.4509 74.8449 89.6337 78.6985 85.485 80.0196L43.3597 93.4331C39.2861 94.7303 34.8385 93.2944 32.2924 89.8601L6.41526 54.9555Z" fill="#E6F4FF"/>
<path d="M54.7286 60.5473C54.8249 60.1966 54.8455 59.6464 54.371 59.0069C54.2748 58.8762 54.1303 58.8006 53.979 58.7799C53.9653 58.7799 53.9515 58.7731 53.9378 58.7731C53.9515 58.7593 53.9584 58.7456 53.9722 58.7387C54.0478 58.663 54.1166 58.5805 54.1716 58.498C54.4467 58.106 54.543 57.6728 54.4467 57.2464C54.2541 56.4074 53.3876 55.8641 53.202 55.761C52.9957 55.6234 51.242 54.475 48.3812 52.9208C48.1062 52.7764 47.7761 52.7764 47.501 52.9277C47.109 53.1409 46.4076 53.0377 46.1187 52.9689L40.6103 49.8331C42.9897 49.1798 45.4998 47.6393 46.8477 46.2227C48.1543 44.8542 48.7251 43.2106 48.6013 41.2163C48.4294 34.3462 43.8012 30.3645 35.5695 30.0206C35.4457 30.0138 35.3563 30.0138 35.2944 30.0069L35.2463 30L35.1982 30.0069C25.5911 30.9146 22.7509 36.8976 21.9463 39.7171L21.3549 39.9922L15.9772 43.3069L15.9359 43.3344C15.8121 43.4306 14.698 44.2834 14.7943 45.3493C14.8356 45.7688 15.0832 46.3671 16.0322 46.821L16.1353 46.8691L16.4723 46.8897C17.8133 46.9585 19.6426 47.0548 22.3658 50.4657C18.1159 52.9964 13.5015 55.7747 12.0573 56.7719C12.0436 56.7788 12.0298 56.7925 12.016 56.7994C10.9639 57.659 10.455 58.5943 10.5031 59.5708C10.5788 61.0837 12.0023 62.0534 12.0642 62.0946C12.0711 62.1015 12.0848 62.1084 12.0917 62.1152L19.9726 66.7297C16.5548 68.779 13.357 70.7252 12.2017 71.516C12.188 71.5229 12.1742 71.5366 12.1605 71.5435C11.1083 72.4031 10.5994 73.3384 10.6475 74.3149C10.7232 75.8278 12.1467 76.7975 12.2086 76.8387C12.2155 76.8456 12.2292 76.8525 12.2361 76.8594L29.9236 87.2092C30.0405 87.3054 30.3431 87.5186 30.7969 87.6974C30.8038 87.7043 30.8176 87.7043 30.8244 87.7112C31.2302 87.8693 31.7597 88 32.413 88C33.3964 88 34.6411 87.7112 36.1403 86.7965L36.7042 86.4596C41.4837 83.6263 46.4282 80.6967 51.3314 77.9047C51.4896 77.8153 51.6684 77.7259 51.8541 77.6296C52.81 77.1413 54.1166 76.4743 54.1716 75.1333C54.1922 74.645 54.1716 74.1499 54.1028 73.6685C54.096 73.6272 54.0891 73.5928 54.0753 73.5585C54.1647 73.4691 54.2404 73.3797 54.3091 73.2834C54.5842 72.8914 54.6805 72.4581 54.5842 72.0318C54.3848 71.1447 53.4289 70.5945 53.3326 70.5464L46.0018 66.1658C51.5446 62.9336 53.1126 62.0946 53.3051 61.9846C53.5389 61.847 54.4811 61.4069 54.7286 60.5473ZM52.8031 60.8774C52.7275 60.9187 51.2971 61.6614 44.8602 65.423C44.4889 65.6362 44.1038 65.8632 43.698 66.1039C42.9691 66.5302 42.1851 66.991 41.3393 67.4861C40.9679 67.7062 40.5897 67.9263 40.1908 68.1601C38.7535 69.0059 37.1581 69.9481 35.3838 71.0002C34.2285 71.7086 33.2726 71.9699 32.5299 72.0249C31.6841 72.0799 31.0995 71.8667 30.7832 71.6948C30.6113 71.6054 30.515 71.5229 30.5012 71.5091C30.4737 71.4816 30.4393 71.4541 30.4049 71.4335L22.2833 66.6815L21.1211 66.0007L12.6969 61.0768C12.5868 60.9943 11.7066 60.3479 11.6722 59.4814C11.6447 58.9037 12.0023 58.3054 12.7381 57.7071C14.1823 56.7169 18.8448 53.9111 23.1016 51.3735C24.0438 52.5082 25.4467 53.9523 28.1218 53.9523C29.3184 53.9523 30.7625 53.6635 32.5368 52.9346C32.9632 52.7626 33.3551 52.5976 33.7265 52.4463C33.809 52.6045 33.9053 52.7557 34.0153 52.907C34.4417 53.5191 34.9506 54.0555 35.5283 54.5094C36.436 55.2246 37.5776 55.8916 39.0149 56.5312C40.2321 57.0745 41.463 57.2808 42.6321 57.2808C45.3691 57.2808 47.721 56.153 48.5669 55.6922C48.9383 55.4859 49.3027 55.2452 49.6397 54.9632C51.4759 56.0223 52.5555 56.7306 52.5624 56.7444C52.5762 56.7512 52.5899 56.765 52.6037 56.7719C52.8031 56.8819 53.2295 57.2051 53.2914 57.5008C53.3051 57.5696 53.312 57.659 53.202 57.8103C53.0782 57.9822 52.7893 58.2504 52.1085 58.5599C52.0948 58.5668 52.0741 58.5736 52.0604 58.5874L42.5702 64.0683L41.4012 64.7422L39.0767 66.0832L37.9214 66.7503L33.1763 69.4873C32.8944 69.6524 32.7981 70.01 32.9632 70.2919C32.9769 70.3125 32.9907 70.34 33.0113 70.3607C33.1901 70.5876 33.5133 70.6564 33.7678 70.512L40.2114 66.7916L42.5634 65.4368L43.7324 64.7629L52.6243 59.6258C52.8787 59.5089 53.1057 59.3851 53.3051 59.2613C53.2776 59.4195 53.312 59.5845 53.4151 59.7221C53.5664 59.9215 53.6214 60.0934 53.5871 60.2241C53.5045 60.5129 53.0575 60.7742 52.8512 60.8568C52.8375 60.8568 52.8169 60.8705 52.8031 60.8774ZM38.8773 50.1356C38.9667 50.2044 39.0561 50.2801 39.1524 50.3488C39.173 50.3626 39.1937 50.3763 39.2143 50.3901L45.2522 53.8286C44.0006 54.4131 42.0338 54.2893 40.6791 53.9042C39.6132 53.6016 38.6298 53.1202 37.9146 52.5563C37.4744 52.2125 37.1237 51.8342 36.8693 51.4491C36.8211 51.3804 36.7661 51.2841 36.7111 51.1741C38.0315 50.5895 38.6229 50.2801 38.8773 50.1356ZM35.6314 51.6486C35.7071 51.7999 35.7896 51.9511 35.8859 52.0956C36.2091 52.5907 36.6492 53.0515 37.1856 53.4778C38.0177 54.138 39.1455 54.695 40.3627 55.0389C41.133 55.259 42.1026 55.4171 43.086 55.4171C44.1038 55.4171 45.1422 55.2452 45.9743 54.7913C46.3113 54.6056 46.5588 54.4406 46.8202 54.2274C47.1847 54.2274 47.5835 54.1793 47.9411 54.0211C48.1405 54.1311 48.34 54.2412 48.5257 54.3443C48.3537 54.4612 48.1818 54.5713 48.003 54.6675C46.9165 55.259 43.086 57.0676 39.4962 55.4653C38.1484 54.8601 37.0893 54.248 36.2641 53.5947C35.7758 53.2096 35.3495 52.7489 34.985 52.2331C34.93 52.1506 34.8749 52.0681 34.8268 51.9924C35.1156 51.8686 35.3838 51.7517 35.6314 51.6486ZM45.5342 35.3296C46.9027 37.1383 47.3703 39.2907 47.4185 41.2575C47.5216 42.9493 47.0677 44.2696 45.9881 45.4043C44.6471 46.8141 42.0063 48.3545 39.7507 48.8221C40.1083 38.9056 37.777 35.0133 36.0578 33.4935C38.2997 33.3147 42.3295 33.3353 45.376 35.2608C45.431 35.2884 45.4792 35.3159 45.5342 35.3296ZM34.3179 32.517C33.3895 32.1318 32.4405 31.9393 31.5809 31.8636C32.6675 31.5473 33.8847 31.3066 35.2532 31.176C35.3219 31.1828 35.4113 31.1828 35.5145 31.1897C38.4647 31.3135 40.7066 31.898 42.4121 32.7645C38.781 31.843 35.1775 32.3657 34.3179 32.517ZM22.9916 40.2741L23.1085 39.7996C23.6174 38.0666 24.9584 35.1783 28.3969 33.1978C28.4519 33.1978 28.5 33.1978 28.5551 33.184C28.5826 33.1771 31.4709 32.5307 34.0085 33.6585C34.0153 33.6585 34.0222 33.6585 34.0222 33.6654C34.0566 33.6792 34.0979 33.6929 34.1391 33.6998C34.1873 33.7067 38.726 34.7795 38.6022 47.2886C38.6022 47.4743 38.5954 47.6668 38.5954 47.8663C38.5954 47.9281 38.5954 47.9832 38.5885 48.0451C38.5816 48.3476 38.5747 48.6502 38.561 48.9666C38.4234 48.9734 38.2584 48.9734 38.0796 48.9666C37.9696 48.9666 37.8595 48.9597 37.7426 48.9597C37.5432 48.9528 37.3231 48.9459 37.0962 48.9253C37.0205 48.9184 36.9449 48.9115 36.8693 48.9115C36.491 48.884 36.099 48.8359 35.7002 48.774C35.4732 48.7396 35.2463 48.6984 35.0262 48.6433C34.6068 48.5471 34.201 48.4302 33.8434 48.2857C33.4996 48.1413 33.2039 47.9763 32.9632 47.7769L32.9357 47.7562C32.6606 47.5499 32.3374 47.2955 31.9729 47.0066C31.7735 46.8485 31.5603 46.6834 31.3333 46.5046C31.2852 46.4702 31.2371 46.429 31.1889 46.3946C31.0514 46.2914 30.907 46.1814 30.7625 46.0645C30.6181 45.9545 30.4737 45.8444 30.3224 45.7275C28.4381 44.3178 25.9625 42.6604 23.3148 41.732C23.2667 41.7114 23.2254 41.6908 23.1911 41.6633C23.1567 41.6426 23.1292 41.622 23.1016 41.6014C23.0948 41.5945 23.0879 41.5945 23.0879 41.5876C22.9022 41.4363 22.8335 41.2644 22.8059 41.1819C22.8266 41.0443 22.8747 40.7211 22.9916 40.2741ZM12.855 75.821C12.745 75.7384 11.8648 75.092 11.8304 74.2255C11.8029 73.6479 12.1605 73.0496 12.8963 72.4513C14.0998 71.626 17.552 69.5286 21.1417 67.383L29.676 72.3756C27.2003 73.8679 24.9791 75.2227 24.3876 75.6765C24.202 75.8141 24.0163 75.9585 23.8237 76.096C22.5996 76.99 21.2105 78.0009 21.0111 79.8165C20.9836 80.0847 20.9836 80.346 21.0179 80.6004L12.855 75.821ZM29.7104 84.8779C29.6691 85.1598 29.6691 85.428 29.7035 85.6825L22.5721 81.5151C22.5584 81.4394 22.524 81.3638 22.4759 81.295C22.2283 80.9374 22.1114 80.4423 22.1664 79.9471C22.3108 78.6474 23.3699 77.8703 24.4977 77.0519C24.6971 76.9075 24.8965 76.7631 25.0891 76.6187C25.6805 76.1648 28.2662 74.5969 30.8863 73.0221C31.2577 73.139 31.7184 73.2284 32.2617 73.2284C33.2451 73.2284 34.4898 72.9395 35.989 72.0249C37.9764 70.8489 39.7438 69.8037 41.3118 68.8753L43.4642 70.2163C42.7628 70.622 42.1026 71.1034 41.4562 71.5641C41.1261 71.798 40.796 72.0387 40.4728 72.2587C40.1083 72.5063 39.4894 72.9258 39.3587 73.6479C39.118 74.9751 40.2183 76.1373 40.9885 76.8319C37.9421 78.5855 34.6961 80.4354 32.8669 81.3981C30.9689 82.3953 29.9029 83.5713 29.7104 84.8779ZM44.6264 70.9246L47.7829 72.8914C46.8202 73.4553 44.5989 74.755 42.082 76.2061C41.5937 75.7797 40.3834 74.7069 40.5347 73.8542C40.5759 73.641 40.8716 73.4209 41.1536 73.2284C41.4906 73.0014 41.8275 72.7607 42.1645 72.5132C42.9553 71.9424 43.7737 71.3578 44.6264 70.9246ZM53.0094 75.037C52.9819 75.6972 52.1017 76.1442 51.3314 76.5362C51.132 76.6393 50.9326 76.7356 50.7607 76.8387C45.8436 79.6377 40.8923 82.5672 36.1128 85.4074L35.542 85.7444C33.5408 86.9685 32.1448 86.8722 31.3746 86.6177C31.1958 86.4046 30.7625 85.7925 30.8795 85.036C31.017 84.1352 31.8972 83.2412 33.4308 82.4366C37.5294 80.2703 48.7663 73.6822 48.8764 73.6203C48.8901 73.6135 48.897 73.6066 48.9039 73.5997L50.2724 74.4525L33.3345 84.2246C33.0526 84.3896 32.9563 84.7472 33.1213 85.0292C33.2864 85.3111 33.644 85.4074 33.9259 85.2424L52.7825 74.3562C52.8581 74.3218 52.9269 74.2874 52.9957 74.253C53.0163 74.5143 53.0232 74.7757 53.0094 75.037ZM46.8202 68.0294C46.8408 68.0225 46.8546 68.0088 46.8683 67.995L52.755 71.5091C52.9544 71.6192 53.3808 71.9424 53.4426 72.2381C53.4564 72.3069 53.4633 72.3963 53.3533 72.5475C53.2295 72.7195 52.9406 72.9877 52.2598 73.2971C52.2461 73.304 52.2254 73.3109 52.2117 73.3246L51.4208 73.7785L44.6127 69.5286C45.3141 68.9784 46.05 68.4764 46.8202 68.0294ZM45.7267 67.3142C44.9703 67.7818 44.2413 68.3045 43.5536 68.8684L42.4671 68.1945C43.3267 67.6924 44.1175 67.2248 44.8534 66.7984L45.7267 67.3142Z" fill="#003CA3"/>
</svg>
