<svg width="100" height="98" viewBox="0 0 100 98" fill="none" xmlns="http://www.w3.org/2000/svg">
<path d="M4.41526 54.9555C1.79279 51.4182 1.7928 46.5818 4.41526 43.0445L30.2924 8.13991C32.8385 4.70564 37.2861 3.26974 41.3597 4.56686L83.485 17.9804C87.6337 19.3015 90.4509 23.1551 90.4509 27.509L90.4509 70.491C90.4509 74.8449 87.6337 78.6985 83.485 80.0196L41.3597 93.4331C37.2861 94.7303 32.8385 93.2944 30.2924 89.8601L4.41526 54.9555Z" fill="#E6F4FF"/>
<path d="M17.0635 75.361H9.14015C8.80653 75.361 8.55631 75.1942 8.3895 74.9022C8.26439 74.6103 8.2644 74.2767 8.47291 74.0265L15.4789 64.6435C15.3538 63.4759 14.3529 62.5167 13.1435 62.5167C11.8508 62.5167 10.7665 63.5593 10.7665 64.8937H9.09844C9.09844 62.6835 10.8916 60.8486 13.1435 60.8486C15.3538 60.8486 17.1886 62.6418 17.1886 64.8937C17.1886 65.0605 17.1469 65.2691 17.0218 65.3942L10.7665 73.6929H17.0218V75.361H17.0635Z" fill="#003CA3"/>
<path d="M26.9096 75.3549H25.2415V70.4757H20.6543C20.3624 70.4757 20.0705 70.3089 19.9037 70.017C19.7786 69.7251 19.7786 69.4332 19.9454 69.1413L25.3666 61.2179C25.5752 60.9259 25.9505 60.8008 26.2841 60.8843C26.6177 61.0094 26.8679 61.3013 26.8679 61.6766V68.7659H28.5777V70.434H26.8679V75.3549H26.9096ZM22.239 68.8494H25.2415V64.4706L22.239 68.8494Z" fill="#003CA3"/>
<path d="M35.3246 45.2637H33.6565V48.5998H35.3246V45.2637Z" fill="#003CA3"/>
<path d="M35.3246 76.6992H33.6565V80.0354H35.3246V76.6992Z" fill="#003CA3"/>
<path d="M51.8891 61.813H48.5529V63.4811H51.8891V61.813Z" fill="#003CA3"/>
<path d="M34.4455 63.4046C34.237 63.4046 34.0285 63.3212 33.8617 63.1544L30.7757 60.0685L31.9434 58.9008L34.4455 61.4029L41.6599 54.1885L42.8276 55.3561L35.0293 63.1544C34.8625 63.3212 34.654 63.4046 34.4455 63.4046Z" fill="#003CA3"/>
<path d="M12.9734 49.9717C12.181 49.1794 11.764 48.1785 11.764 47.0526C11.764 45.9266 12.181 44.9258 12.9734 44.1334L16.518 40.5888C17.3104 39.7964 18.3112 39.3794 19.4372 39.3794C20.5214 39.3794 21.564 39.7964 22.3563 40.5888L21.1887 41.7564C20.7299 41.2977 20.1044 41.0475 19.4789 41.0475C18.8116 41.0475 18.2278 41.2977 17.7691 41.7564L14.2244 45.3011C13.7657 45.7598 13.5155 46.3853 13.5155 47.0109C13.5155 47.6781 13.7657 48.2619 14.2244 48.7207L12.9734 49.9717Z" fill="#003CA3"/>
<path d="M14.5256 51.1383C14.3171 51.1383 14.1086 51.0549 13.9418 50.8881L13.0244 49.9707L14.192 48.803L14.5256 49.1366L21.5316 42.1307L21.198 41.797L22.3656 40.6294L23.2831 41.5468C23.6167 41.8805 23.6167 42.3809 23.2831 42.7145L15.1095 50.8881C14.9427 51.0549 14.7341 51.1383 14.5256 51.1383Z" fill="#003CA3"/>
<path d="M55.9679 49.9699L54.8002 48.8022C55.259 48.3435 55.5092 47.718 55.5092 47.0924C55.5092 46.4252 55.259 45.8414 54.8002 45.3826L51.2556 41.838C50.7968 41.3792 50.1713 41.129 49.5458 41.129C48.8785 41.129 48.2947 41.3792 47.836 41.838L46.6683 40.6703C47.4607 39.878 48.4615 39.4609 49.5875 39.4609C50.6717 39.4609 51.7143 39.878 52.5066 40.6703L56.0513 44.215C56.8436 45.0073 57.2607 46.0082 57.2607 47.1341C57.1773 48.1767 56.7603 49.2192 55.9679 49.9699Z" fill="#003CA3"/>
<path d="M54.4635 51.133C54.255 51.133 54.0465 51.0496 53.8797 50.8827L45.7061 42.7091C45.3725 42.3755 45.3725 41.8751 45.7061 41.5415L46.6236 40.624L47.7912 41.7917L47.4576 42.1253L54.4635 49.1312L54.7972 48.7976L55.9648 49.9653L55.0474 50.8827C54.8806 51.0496 54.6721 51.133 54.4635 51.133Z" fill="#003CA3"/>
<path d="M34.4756 83.0377C29.0126 83.0377 23.8833 80.9109 20.005 77.0743L21.1726 75.9066C24.7173 79.4513 29.4297 81.4113 34.4756 81.4113C44.8594 81.4113 53.2833 72.9875 53.2833 62.6037C53.2833 52.2198 44.8594 43.796 34.4756 43.796C25.6348 43.796 17.8782 50.0513 16.0433 58.6837L14.4169 58.35C16.4186 48.9671 24.8424 42.1279 34.4756 42.1279C45.7769 42.1279 54.9513 51.3024 54.9513 62.6037C54.9513 73.8632 45.7769 83.0377 34.4756 83.0377Z" fill="#003CA3"/>
<path d="M47.7324 77.3161L46.5529 78.4956L52.6863 84.629L53.8658 83.4495L47.7324 77.3161Z" fill="#003CA3"/>
<path d="M21.2511 77.3383L15.1177 83.4717L16.2972 84.6512L22.4306 78.5178L21.2511 77.3383Z" fill="#003CA3"/>
</svg>
