<svg width="100" height="98" viewBox="0 0 100 98" fill="none" xmlns="http://www.w3.org/2000/svg">
<path d="M4.41526 54.9555C1.79279 51.4182 1.7928 46.5818 4.41526 43.0445L30.2924 8.13991C32.8385 4.70564 37.2861 3.26974 41.3597 4.56686L83.485 17.9804C87.6337 19.3015 90.4509 23.1551 90.4509 27.509L90.4509 70.491C90.4509 74.8449 87.6337 78.6985 83.485 80.0196L41.3597 93.4331C37.2861 94.7303 32.8385 93.2944 30.2924 89.8601L4.41526 54.9555Z" fill="#E6F4FF"/>
<path d="M47.6769 32.0537C48.3923 34.9868 46.3177 36.346 43.4562 37.0613C40.5948 37.7767 38.091 37.6336 37.3756 34.7006C36.6602 31.7676 38.6633 30.1222 41.5247 29.4069C44.3862 28.6915 46.89 29.1207 47.6769 32.0537Z" fill="white"/>
<path d="M40.9561 38.133C38.6669 38.133 37.2361 36.9884 36.6638 34.8423C35.9485 31.8378 37.5938 29.6201 41.3137 28.6901C45.1052 27.7601 47.609 28.9047 48.3244 31.9093C49.0397 34.8423 47.4659 36.7738 43.6029 37.7753C42.6014 37.9899 41.743 38.133 40.9561 38.133ZM43.746 29.8347C43.1022 29.8347 42.4583 29.9063 41.6714 30.1209C39.6684 30.6216 37.3792 31.8378 38.023 34.5562C38.5953 36.7023 40.0976 37.203 43.2452 36.4161C47.1798 35.4146 47.3228 33.7693 46.9652 32.267C46.5359 30.5501 45.5344 29.8347 43.746 29.8347Z" fill="#003CA3"/>
<path d="M59.9037 69.7459C59.4745 67.0275 57.1137 65.9545 55.7545 65.5252C54.3953 65.096 52.0346 64.9529 50.6039 64.0945C49.1731 63.2361 49.3877 59.0869 49.3877 59.0869H46.2401H43.0925C43.0925 59.0869 43.3071 63.2361 41.8764 64.0945C40.4456 64.9529 38.1564 65.096 36.7257 65.5252C35.3665 65.9545 33.0058 67.0275 32.5766 69.7459C32.2189 71.9636 32.2189 78.9027 32.2189 78.9027H46.2401H60.2614C60.2614 78.9027 60.1898 71.892 59.9037 69.7459Z" fill="white"/>
<path d="M60.2596 79.6164H32.2886C32.074 79.6164 31.9309 79.5448 31.7879 79.4017C31.6448 79.2587 31.5732 79.1156 31.5732 78.901C31.5732 78.6148 31.5732 71.8188 31.9309 69.6012C32.2886 67.312 33.934 65.5951 36.5808 64.8082C37.0816 64.6651 37.7254 64.522 38.2977 64.4505C39.4423 64.2359 40.6584 64.0213 41.5169 63.5205C42.2323 63.0913 42.4469 60.6591 42.3753 59.1568C42.3753 58.9422 42.4469 58.7991 42.5899 58.656C42.733 58.5129 42.9476 58.4414 43.0907 58.4414H49.386C49.6006 58.4414 49.7436 58.5129 49.8867 58.656C50.0298 58.7991 50.1013 59.0137 50.1013 59.1568C50.0298 60.6591 50.2444 63.0913 50.9598 63.5205C51.8182 64.0213 53.1059 64.2359 54.1789 64.4505C54.8228 64.5936 55.3951 64.6651 55.8958 64.8082C58.5427 65.5951 60.188 67.312 60.5457 69.6012C60.9034 71.8188 60.9034 78.6148 60.9034 78.901C60.9034 79.1156 60.8319 79.2587 60.6888 79.4017C60.5457 79.5448 60.4027 79.6164 60.2596 79.6164ZM32.9325 78.1856H59.4727C59.4727 76.3257 59.4011 71.5327 59.115 69.8158C58.7573 67.5981 56.9689 66.5966 55.4666 66.1674C55.0374 66.0243 54.4651 65.9528 53.8928 65.8097C52.6767 65.5951 51.2459 65.3089 50.2444 64.6651C48.8137 63.8782 48.6706 61.1598 48.6706 59.8006H43.8776C43.8776 61.2313 43.663 63.8782 42.3038 64.6651C41.2307 65.2374 39.8715 65.5236 38.6554 65.8097C38.0831 65.9528 37.5108 66.0243 37.0816 66.1674C35.5793 66.5966 33.7909 67.5981 33.4332 69.8158C33.004 71.5327 33.004 76.3257 32.9325 78.1856Z" fill="#003CA3"/>
<path d="M55.1797 48.7263C55.1797 48.7263 56.5389 43.0749 54.9651 39.9273C53.3197 36.565 50.8159 34.562 46.2376 34.562C41.6592 34.562 39.1554 36.4935 37.51 39.9273C35.9362 43.0749 37.2954 48.7263 37.2954 48.7263C35.2209 48.2971 35.5785 50.5863 36.2224 51.5878C36.7947 52.4463 36.7947 52.5178 37.0808 53.4478C37.5816 54.807 38.6546 53.877 38.6546 53.877C39.2985 55.5939 39.7277 56.0231 42.2315 58.3123C44.3776 60.3153 45.1645 60.3153 46.2376 60.3153C47.3106 60.3153 48.0975 60.3153 50.2436 58.3123C52.7474 56.0231 53.1766 55.5939 53.8205 53.877C53.8205 53.877 54.8935 54.807 55.3943 53.4478C55.752 52.5178 55.752 52.4463 56.2527 51.5878C56.8966 50.5863 57.2543 48.3687 55.1797 48.7263Z" fill="white"/>
<path d="M46.3114 61.0307L46.2399 60.3154V61.0307C44.9522 61.0307 44.0223 60.8877 41.8046 58.8846C39.6585 56.8816 38.9431 56.2378 38.3708 54.8786C38.2278 54.8786 38.1562 54.9501 38.0131 54.9501C37.727 54.9501 36.9401 54.807 36.5824 53.734L36.5109 53.5194C36.2247 52.804 36.2247 52.7324 35.7955 52.0171C35.3663 51.3017 34.8655 49.871 35.4378 48.8695C35.6524 48.4402 36.0816 48.1541 36.5824 48.0825C36.2963 46.2941 35.7955 42.288 37.0116 39.7127C38.9431 35.7782 41.8761 33.9897 46.383 33.9897C50.8898 33.9897 53.8228 35.7782 55.7543 39.7127C57.042 42.288 56.5412 46.3657 56.1835 48.0825C56.6843 48.1541 57.1135 48.4402 57.3281 48.8695C57.9004 49.871 57.3997 51.3732 56.9704 52.0171C56.5412 52.7324 56.4697 52.804 56.2551 53.5194L56.1835 53.734C55.8259 54.807 55.0389 54.9501 54.7528 54.9501C54.6097 54.9501 54.4667 54.9501 54.3951 54.8786C53.8228 56.2378 53.0359 56.9531 50.9613 58.8846C48.5291 60.8877 47.5991 61.0307 46.3114 61.0307ZM38.657 53.2332C38.7285 53.2332 38.8001 53.2332 38.8716 53.2332C39.0862 53.3047 39.3008 53.4478 39.3724 53.6624C39.9446 55.2362 40.3023 55.5939 42.7346 57.8116C44.6661 59.6 45.3099 59.6 46.1684 59.6H46.3114C47.2414 59.6 47.8137 59.6 49.7452 57.8116C52.249 55.5224 52.5352 55.2362 53.1074 53.6624C53.179 53.4478 53.3936 53.3047 53.6082 53.2332C53.8228 53.1617 54.109 53.2332 54.252 53.3763C54.3236 53.4478 54.4667 53.5194 54.5382 53.5194C54.5382 53.5194 54.6097 53.4478 54.6813 53.3047L54.7528 53.0901C55.0389 52.3032 55.1105 52.0886 55.6112 51.2302C55.9689 50.6579 56.112 49.7994 55.9689 49.5133C55.9689 49.4417 55.8974 49.3702 55.6828 49.3702C55.6112 49.3702 55.4682 49.3702 55.3251 49.4417C55.1105 49.5133 54.8243 49.4417 54.6813 49.2271C54.5382 49.0841 54.4666 48.7979 54.4666 48.5833C54.4666 48.5117 55.6828 43.1465 54.3236 40.2135C52.6067 36.7797 50.246 35.2774 46.2399 35.2774C42.2338 35.2774 39.8731 36.7797 38.1562 40.2135C36.7255 43.075 38.0131 48.5117 38.0131 48.5833C38.0847 48.7979 38.0132 49.0841 37.7985 49.2271C37.6555 49.3702 37.3693 49.5133 37.1547 49.4417C37.0116 49.4417 36.9401 49.3702 36.797 49.3702C36.5824 49.3702 36.5109 49.4417 36.5109 49.5133C36.3678 49.7994 36.5109 50.6579 36.8686 51.2302C37.3693 52.0886 37.4409 52.2317 37.727 53.0901L37.7985 53.3047C37.8701 53.4478 37.9416 53.5193 37.9416 53.5909C38.0131 53.5909 38.1562 53.5194 38.2278 53.4478C38.2993 53.3047 38.5139 53.2332 38.657 53.2332Z" fill="#003CA3"/>
<path d="M52.1889 34.6246C47.1097 31.9778 42.8175 34.6246 42.8175 34.6246C32.2301 35.7692 35.95 49.0751 35.95 49.0751C36.1646 48.7889 36.5938 48.6459 37.3092 48.7174C37.1661 47.7159 38.3822 46.5713 40.2422 45.2121C42.1022 43.8529 42.8891 41.8499 42.8891 41.8499C42.8891 41.8499 44.749 45.3552 49.4705 46.2852C54.1919 47.2151 55.1219 47.859 55.265 48.7174C55.9803 48.5743 56.338 48.7174 56.5526 49.0751C56.5526 49.0751 59.3426 38.3446 52.1889 34.6246Z" fill="white"/>
<path d="M56.555 49.7919C56.3404 49.7919 56.1258 49.6488 55.9827 49.5058C55.9112 49.4342 55.6966 49.3627 55.3389 49.4342C55.1243 49.5058 54.9812 49.4342 54.7666 49.2911C54.6235 49.1481 54.4804 49.005 54.4804 48.7904C54.4089 48.2181 52.7635 47.6458 49.2582 46.9304C45.896 46.2866 43.893 44.3551 42.963 43.139C42.5337 43.9259 41.7468 44.9274 40.6738 45.7143C38.5277 47.2881 38.0269 48.075 38.0269 48.5043C38.0269 48.5758 38.0269 48.6473 38.0269 48.7189C38.0269 49.1481 37.7408 49.4342 37.3115 49.4342C37.24 49.4342 37.24 49.4342 37.1685 49.4342C37.0254 49.4342 36.9539 49.4342 36.8823 49.4342C36.6677 49.4342 36.5962 49.5058 36.5962 49.5058C36.4531 49.7204 36.2385 49.7919 36.0239 49.7919C35.7377 49.7919 35.3801 49.5773 35.3085 49.2911C35.237 49.005 33.3055 41.9944 36.3816 37.4876C37.7408 35.4845 39.8153 34.2684 42.6053 33.9822C43.106 33.6961 44.966 32.7661 47.5413 32.7661C49.2582 32.7661 50.9751 33.1953 52.5489 34.0538C60.1318 37.9883 57.3419 48.8619 57.1988 49.3627C57.1273 49.5773 56.8411 49.7919 56.555 49.7919ZM47.5413 34.1253C44.966 34.1253 43.2491 35.1984 43.2491 35.1984C43.1776 35.2699 43.0345 35.2699 42.963 35.2699C40.5307 35.5561 38.7423 36.486 37.5977 38.2029C35.5231 41.279 36.0954 46.072 36.5246 48.0035C36.5962 48.0035 36.6677 48.0035 36.7393 48.0035C37.0969 46.8589 38.4561 45.7143 39.8869 44.6412C41.5322 43.4251 42.2476 41.5652 42.2476 41.5652C42.3191 41.279 42.6053 41.1359 42.8914 41.1359C43.1776 41.1359 43.4637 41.279 43.5353 41.4936C43.6068 41.6367 45.3237 44.7128 49.6159 45.5712C53.4789 46.3581 55.1958 47.002 55.7681 48.0035C55.9112 48.0035 55.9827 48.0035 56.1258 48.0035C56.555 45.4282 57.4134 38.0599 51.9766 35.1984C50.4743 34.483 49.0436 34.1253 47.5413 34.1253Z" fill="#003CA3"/>
<path d="M41.8764 64.1118C40.4456 64.9703 38.1564 65.1134 36.7257 65.5426C35.3665 65.9718 33.0058 67.0448 32.5766 69.7632C32.2189 71.9809 32.2189 78.92 32.2189 78.92H46.2401H60.2614C60.2614 78.92 60.2614 71.9094 59.9037 69.7632C59.4745 67.0448 57.1137 65.9718 55.7545 65.5426C54.3953 65.1134 52.0346 64.9703 50.6039 64.1118C50.5323 64.0403 50.4608 64.0403 50.4608 63.9688L46.2401 68.4756L42.091 63.9688C42.0194 64.0403 41.9479 64.1118 41.8764 64.1118Z" fill="white"/>
<path d="M60.2596 79.6328H32.2886C32.074 79.6328 31.9309 79.5613 31.7879 79.4182C31.6448 79.2751 31.5732 79.1321 31.5732 78.9175C31.5732 78.6313 31.5732 71.8353 31.9309 69.6177C32.2886 67.3285 33.934 65.6116 36.5808 64.8247C37.0816 64.6816 37.7254 64.5385 38.2977 64.467C39.4423 64.2524 40.6584 64.0378 41.5169 63.537L41.5884 63.4655C41.8746 63.2509 42.3038 63.2509 42.5899 63.537L46.2383 67.4716L49.9583 63.537C50.2444 63.2509 50.6736 63.2509 50.9598 63.4655L51.0313 63.537C51.8898 64.0378 53.1774 64.2524 54.2505 64.467C54.8943 64.6101 55.4666 64.6816 55.9674 64.8247C58.6142 65.6116 60.2596 67.3285 60.6173 69.6177C60.9749 71.8353 60.9749 78.6313 60.9749 78.9175C60.9749 79.1321 60.9034 79.2751 60.7603 79.4182C60.6173 79.5613 60.4027 79.6328 60.2596 79.6328ZM32.9325 78.2021H59.4727C59.4727 76.3421 59.4011 71.5492 59.115 69.8323C58.7573 67.6146 56.9689 66.6131 55.4666 66.1839C55.0374 66.0408 54.4651 65.9693 53.8928 65.8262C52.7482 65.6116 51.5321 65.397 50.5305 64.8962L46.6676 68.9738C46.5245 69.1169 46.3099 69.1884 46.1668 69.1884C45.9522 69.1884 45.8091 69.1169 45.666 68.9738L41.8746 64.8962C40.8731 65.397 39.5854 65.6116 38.5123 65.8262C37.94 65.9693 37.3677 66.0408 36.9385 66.1839C35.4362 66.6131 33.6478 67.6146 33.2901 69.8323C33.004 71.5492 33.004 76.3421 32.9325 78.2021Z" fill="#003CA3"/>
<path d="M50.5363 64.1011C50.4648 64.0296 50.3933 64.0295 50.3933 63.958C50.3933 63.958 48.3187 65.3887 46.2441 65.3887C44.098 65.3887 42.095 63.958 42.095 63.958C42.0234 64.0295 41.9519 64.0296 41.9519 64.1011C41.3081 64.4588 40.4496 64.7449 39.5912 64.888L46.2441 72.1848L52.8971 64.888C52.0386 64.7449 51.1802 64.5303 50.5363 64.1011Z" fill="white"/>
<path d="M46.1721 72.9718C45.9575 72.9718 45.8145 72.9002 45.6714 72.7572L39.0184 65.4604C38.8754 65.3173 38.8038 65.1742 38.8038 64.9596C38.8038 64.6019 39.0184 64.3158 39.3761 64.2443C40.02 64.1012 40.8784 63.8866 41.5222 63.5289L41.5938 63.4573C41.8084 63.2427 42.1661 63.2427 42.4522 63.4573C42.4522 63.4573 44.3122 64.745 46.1721 64.745C48.0321 64.745 49.8921 63.4573 49.8921 63.4573C50.1782 63.3143 50.5359 63.3143 50.7505 63.5289L50.822 63.6004C51.4659 63.9581 52.3243 64.1727 52.9682 64.3158C53.3258 64.3873 53.5405 64.6735 53.5405 65.0311C53.5405 65.1742 53.4689 65.3888 53.3258 65.5319L46.6729 72.8287C46.6014 72.8287 46.3868 72.9718 46.1721 72.9718ZM40.8784 65.3173L46.2437 71.1833L51.6089 65.3173C51.1797 65.1742 50.822 65.0312 50.3928 64.8165C49.6775 65.2458 47.9606 66.1042 46.2437 66.1042C44.4552 66.1042 42.8099 65.2458 42.0945 64.8165C41.6653 65.0312 41.3076 65.1742 40.8784 65.3173Z" fill="#003CA3"/>
<path d="M48.5994 57.667C48.1702 57.667 47.884 57.3808 47.884 56.9516C47.884 56.5224 48.1702 56.2363 48.5994 56.2363C52.1047 56.2363 54.537 55.5209 55.6816 54.0901C56.6116 52.9456 56.3969 51.801 56.3969 51.7294C56.3254 51.3717 56.54 50.9425 56.9692 50.871C57.3269 50.7994 57.7561 51.014 57.8277 51.4433C57.8277 51.5148 58.1854 53.3032 56.8262 54.9486C55.3239 56.737 52.6055 57.667 48.5994 57.667Z" fill="#003CA3"/>
<path d="M58.9037 50.3662C58.9037 48.1485 57.9737 46.4316 56.9006 46.4316H56.1853V46.6463C55.3984 47.2186 54.683 48.6493 54.683 50.3662C54.683 52.0831 55.3268 53.5138 56.1853 54.0861V54.3007H56.9006C58.0452 54.3007 58.9037 52.5838 58.9037 50.3662Z" fill="white"/>
<path d="M56.9021 55.019H56.1868C55.8291 55.019 55.5429 54.7329 55.4714 54.3752C54.5414 53.5168 53.9691 51.943 53.9691 50.2976C53.9691 48.6523 54.5414 47.0784 55.4714 46.22C55.5429 45.8623 55.8291 45.5762 56.1868 45.5762H56.9021C58.476 45.5762 59.6205 47.5792 59.6205 50.2261C59.6205 53.016 58.476 55.019 56.9021 55.019ZM56.7591 53.5883H56.9737C57.4744 53.5883 58.2613 52.3006 58.2613 50.3691C58.2613 48.3661 57.4744 47.15 56.9737 47.15H56.7591C56.6875 47.2215 56.6875 47.2215 56.616 47.2931C56.0437 47.6507 55.4714 48.8669 55.4714 50.4407C55.4714 51.943 56.0437 53.1591 56.616 53.5883C56.616 53.5168 56.6875 53.5883 56.7591 53.5883Z" fill="#003CA3"/>
<path d="M56.9709 53.5153C56.9709 54.016 56.6133 54.4452 56.184 54.4452H55.3971C54.9679 54.4452 54.6102 54.016 54.6102 53.5153V47.22C54.6102 46.7193 54.9679 46.29 55.3971 46.29H56.184C56.6133 46.29 56.9709 46.7193 56.9709 47.22V53.5153Z" fill="white"/>
<path d="M56.1855 55.1621H55.3986C54.6117 55.1621 53.8964 54.4468 53.8964 53.5168V47.2215C53.8964 46.2915 54.5402 45.5762 55.3986 45.5762H56.1855C56.9725 45.5762 57.6878 46.2915 57.6878 47.2215V53.5168C57.6878 54.4468 57.044 55.1621 56.1855 55.1621ZM56.1855 47.0069H55.4702C55.4702 47.0069 55.3986 47.0784 55.3986 47.2215V53.5168C55.3986 53.6599 55.4702 53.7314 55.4702 53.7314H56.114C56.114 53.7314 56.1855 53.6599 56.1855 53.5168V47.2215C56.2571 47.0784 56.1855 47.0069 56.1855 47.0069Z" fill="#003CA3"/>
<path d="M33.5076 50.3637C33.5076 48.1461 34.4375 46.4292 35.5106 46.4292H36.226V46.6438C37.0129 47.2161 37.7282 48.6468 37.7282 50.3637C37.7282 52.0806 37.0844 53.5114 36.226 54.0837V54.2983H35.5106C34.4375 54.2983 33.5076 52.5814 33.5076 50.3637Z" fill="white"/>
<path d="M36.2957 55.0151H35.5803C34.0065 55.0151 32.8619 53.0121 32.8619 50.3652C32.8619 47.7184 34.0065 45.7153 35.5803 45.7153H36.2957C36.5103 45.7153 36.6534 45.7869 36.7965 45.93C36.9395 46.073 37.0111 46.1446 37.0111 46.3592C37.9411 47.2176 38.5134 48.7914 38.5134 50.4368C38.5134 52.0821 37.9411 53.6559 37.0111 54.5144C36.9395 54.8005 36.6534 55.0151 36.2957 55.0151ZM35.5803 47.1461C35.0796 47.1461 34.2927 48.4337 34.2927 50.3652C34.2927 52.3683 35.0796 53.5844 35.5803 53.5844H35.795C35.8665 53.5129 35.8665 53.5129 35.938 53.4413C36.5103 53.0837 37.0826 51.8675 37.0826 50.2937C37.0826 48.7914 36.5103 47.5753 35.938 47.1461C35.8665 47.1461 35.8665 47.0745 35.795 47.003H35.5803V47.1461Z" fill="#003CA3"/>
<path d="M35.5194 53.5153C35.5194 54.016 35.8771 54.4452 36.3063 54.4452H37.0932C37.5225 54.4452 37.8801 54.016 37.8801 53.5153V47.22C37.8801 46.7193 37.5225 46.29 37.0932 46.29H36.3063C35.8771 46.29 35.5194 46.7193 35.5194 47.22V53.5153Z" fill="white"/>
<path d="M37.0212 55.1621H36.2343C35.4474 55.1621 34.7321 54.4468 34.7321 53.5168V47.2215C34.7321 46.2915 35.3759 45.5762 36.2343 45.5762H37.0212C37.8081 45.5762 38.5235 46.2915 38.5235 47.2215V53.5168C38.5235 54.4468 37.8081 55.1621 37.0212 55.1621ZM36.9497 47.0069H36.2343C36.2343 47.0069 36.1628 47.0784 36.1628 47.2215V53.5168C36.1628 53.6599 36.2343 53.7314 36.2343 53.7314H36.8782C36.8782 53.7314 36.9497 53.6599 36.9497 53.5168V47.2215C37.0928 47.0784 37.0212 47.0069 36.9497 47.0069Z" fill="#003CA3"/>
<path d="M56.972 47.4308C56.5428 47.4308 56.2566 47.1447 56.2566 46.7155C56.2566 41.2071 51.7498 36.7003 46.2414 36.7003C40.7331 36.7003 36.2263 41.2071 36.2263 46.7155C36.2263 47.1447 35.9401 47.4308 35.5109 47.4308C35.0817 47.4308 34.7955 47.1447 34.7955 46.7155C34.7955 40.4202 39.9462 35.2695 46.2414 35.2695C52.5367 35.2695 57.6874 40.4202 57.6874 46.7155C57.6874 47.1447 57.3297 47.4308 56.972 47.4308Z" fill="#003CA3"/>
<path d="M49.8916 56.9493C49.8916 57.45 49.4624 57.8077 48.9616 57.8077H45.814C45.3133 57.8077 44.884 57.45 44.884 56.9493C44.884 56.4485 45.3133 56.0908 45.814 56.0908H48.9616C49.4624 56.0908 49.8916 56.4485 49.8916 56.9493Z" fill="white"/>
<path d="M48.9631 58.5246H45.8155C44.8855 58.5246 44.1702 57.8092 44.1702 56.9508C44.1702 56.0923 44.8855 55.377 45.8155 55.377H48.9631C49.8931 55.377 50.6085 56.0923 50.6085 56.9508C50.6085 57.8092 49.8931 58.5246 48.9631 58.5246ZM45.8155 56.8077C45.6724 56.8077 45.6009 56.8792 45.6009 56.9508C45.6009 57.0223 45.6724 57.0939 45.8155 57.0939H48.9631C49.1062 57.0939 49.1778 57.0223 49.1778 56.9508C49.1778 56.8792 49.1062 56.8077 48.9631 56.8077H45.8155Z" fill="#003CA3"/>
<path d="M48.8936 77.833H25.644L26.0017 81.4099H49.3228H53.4004V77.833H48.8936Z" fill="white"/>
<path d="M53.4019 82.1267H26.0032C25.6455 82.1267 25.3594 81.8406 25.2879 81.4829L24.9302 77.906C24.9302 77.6914 25.0017 77.4768 25.1448 77.3337C25.2879 77.1907 25.5025 77.1191 25.6455 77.1191H53.4019C53.8311 77.1191 54.1173 77.4053 54.1173 77.8345V81.4114C54.1173 81.769 53.7596 82.1267 53.4019 82.1267ZM26.6471 80.696H52.6865V78.5499H26.4324L26.6471 80.696Z" fill="#003CA3"/>
<path d="M48.4682 81.3427H19.8534L17.6357 59.667H46.2505L48.4682 81.3427Z" fill="white"/>
<path d="M48.4697 82.0596H19.8549C19.4972 82.0596 19.2111 81.7734 19.1395 81.4158L16.9219 59.74C16.9219 59.5254 16.9934 59.3108 17.1365 59.1677C17.2796 59.0247 17.4942 58.9531 17.6372 58.9531H46.252C46.6097 58.9531 46.8959 59.2393 46.9674 59.597L49.1851 81.1296C49.1851 81.2011 49.1851 81.2727 49.1851 81.3442C49.1851 81.7019 48.8989 82.0596 48.4697 82.0596ZM20.4987 80.6288H47.6828L45.6082 60.3839H18.4242L20.4987 80.6288Z" fill="#003CA3"/>
<path d="M38.5261 70.4712C38.5261 73.4758 36.0938 75.9796 33.0177 75.9796C30.0132 75.9796 27.5094 73.5473 27.5094 70.4712C27.5094 67.4667 29.9417 64.9629 33.0177 64.9629C36.0938 65.0344 38.5261 67.4667 38.5261 70.4712Z" fill="white"/>
<path d="M33.0875 76.6965C29.6537 76.6965 26.8638 73.9065 26.8638 70.4727C26.8638 67.039 29.6537 64.249 33.0875 64.249C36.5213 64.249 39.3112 67.039 39.3112 70.4727C39.2397 73.9065 36.4497 76.6965 33.0875 76.6965ZM33.0875 65.7513C30.4406 65.7513 28.2945 67.8974 28.2945 70.5443C28.2945 73.1911 30.4406 75.3373 33.0875 75.3373C35.7344 75.3373 37.8805 73.1911 37.8805 70.5443C37.8089 67.8974 35.6628 65.7513 33.0875 65.7513Z" fill="#003CA3"/>
<path d="M33.8026 66.8911H32.2288V71.2549H33.8026V66.8911Z" fill="white"/>
<path d="M33.8723 71.9717H32.2985C31.8693 71.9717 31.5831 71.6856 31.5831 71.2564V66.8926C31.5831 66.4634 31.8693 66.1772 32.2985 66.1772H33.8723C34.3015 66.1772 34.5877 66.4634 34.5877 66.8926V71.2564C34.5877 71.6141 34.23 71.9717 33.8723 71.9717ZM32.9423 70.541H33.0854V67.608H32.9423V70.541Z" fill="#003CA3"/>
<path d="M33.8026 72.6221H32.2288V74.0528H33.8026V72.6221Z" fill="white"/>
<path d="M33.8723 74.838H32.2985C31.8693 74.838 31.5831 74.5519 31.5831 74.1227V72.6919C31.5831 72.2627 31.8693 71.9766 32.2985 71.9766H33.8723C34.3015 71.9766 34.5877 72.2627 34.5877 72.6919V74.1227C34.5877 74.4804 34.23 74.838 33.8723 74.838Z" fill="#003CA3"/>
</svg>
