<svg width="100" height="98" viewBox="0 0 100 98" fill="none" xmlns="http://www.w3.org/2000/svg">
<path d="M4.41526 54.9555C1.79279 51.4182 1.7928 46.5818 4.41526 43.0445L30.2924 8.13991C32.8385 4.70564 37.2861 3.26974 41.3597 4.56686L83.485 17.9804C87.6337 19.3015 90.4509 23.1551 90.4509 27.509L90.4509 70.491C90.4509 74.8449 87.6337 78.6985 83.485 80.0196L41.3597 93.4331C37.2861 94.7303 32.8385 93.2944 30.2924 89.8601L4.41526 54.9555Z" fill="#E6F4FF"/>
<path d="M16.6938 37.6436C15.4363 36.9299 14.4507 35.6044 14.4167 34.143C14.4167 33.7352 14.1108 33.5312 13.8049 33.5312C13.499 33.5312 13.1592 33.7352 13.1592 34.143C13.1252 34.9587 12.8533 35.7404 12.3435 36.3861C11.9696 36.8959 11.6298 37.4397 11.018 37.6096C10.95 37.6096 10.8821 37.6436 10.8141 37.6776C10.8141 37.6776 10.8141 37.6776 10.7801 37.6776C10.5422 37.8136 10.4742 38.0515 10.5082 38.2554C10.5082 38.4933 10.6442 38.7312 10.95 38.7992C12.4115 39.241 12.8533 40.9743 13.1592 42.2998C13.1592 42.4697 13.2271 42.5717 13.3631 42.6737C13.7029 42.9795 14.3487 42.7416 14.4167 42.2318V42.1978C14.5526 40.8384 15.4363 39.275 16.6938 38.6632C16.9997 38.5273 17.0676 38.2554 16.9997 38.0515C16.9657 37.9155 16.8977 37.7456 16.6938 37.6436ZM13.7709 40.0907C13.465 39.343 13.0232 38.6972 12.4115 38.2214C12.7513 37.8815 13.0572 37.5077 13.3631 37.0659C13.533 36.8619 13.669 36.624 13.7709 36.3861C14.1448 37.0659 14.6546 37.6436 15.2323 38.1194C14.6546 38.6632 14.1448 39.343 13.7709 40.0907Z" fill="#003CA3"/>
<path d="M59.4163 34.5542C59.4163 34.3843 59.3144 34.2143 59.1105 34.1124C57.853 33.3987 56.8673 32.0732 56.8334 30.6118C56.8334 30.2039 56.5275 30 56.2216 30C55.9157 30 55.5759 30.2039 55.5759 30.6118C55.5419 31.4274 55.27 32.2091 54.7602 32.8549C54.3863 33.3647 54.0465 33.9085 53.4347 34.0784C53.3667 34.0784 53.2987 34.1124 53.2308 34.1464C53.2308 34.1464 53.2308 34.1464 53.1968 34.1464C52.9589 34.2823 52.8909 34.5202 52.9249 34.7241C52.9249 34.962 53.0608 35.2 53.3667 35.2679C54.8281 35.7098 55.27 37.4431 55.5759 38.7685C55.5759 38.9385 55.6438 39.0404 55.7798 39.1424C56.1196 39.4483 56.7654 39.2104 56.8334 38.7006V38.6666C56.9693 37.3071 57.853 35.7437 59.1105 35.132C59.3824 35.03 59.4843 34.7921 59.4163 34.5542ZM56.1876 36.5594C55.8817 35.8117 55.4399 35.166 54.8281 34.6902C55.168 34.3503 55.4739 33.9764 55.7798 33.5346C55.9497 33.3307 56.0856 33.0928 56.1876 32.8549C56.5615 33.5346 57.0713 34.1124 57.649 34.5882C57.0373 35.098 56.5615 35.8117 56.1876 36.5594Z" fill="#003CA3"/>
<path d="M35.3874 53.8176C40.3494 53.6817 47.9964 51.3706 47.7245 45.185C47.7245 45.1511 47.7245 45.0831 47.7245 45.0491C46.9768 39.2034 37.7664 38.7956 33.4501 38.8975C28.1482 39.0335 21.6908 41.3446 22.3365 47.7001C22.9483 53.8176 30.7992 53.9536 35.3874 53.8176ZM33.4501 40.155C36.9508 40.0531 45.8892 40.189 46.501 45.0491C46.8409 50.5209 39.7377 52.4582 35.4214 52.5941C31.411 52.6961 23.9339 52.866 23.56 47.3262C23.1862 41.8883 29.0999 40.257 33.4501 40.155Z" fill="#003CA3"/>
<path d="M33.3831 50.4577C33.3831 50.5937 33.3831 50.7296 33.417 50.8656C33.485 51.6473 34.7085 51.6813 34.6746 50.8656C34.6746 50.7296 34.6746 50.6277 34.6406 50.4917C34.7085 50.4917 34.7425 50.4917 34.8105 50.4917C35.0824 50.4917 35.4223 50.4917 35.7961 50.4917C35.7961 50.5937 35.7961 50.7296 35.8301 50.8316C35.8981 51.6133 37.1216 51.6473 37.0876 50.8316C37.0876 50.6956 37.0876 50.5257 37.0536 50.3898C38.515 50.2198 40.0444 49.744 40.4863 48.6225C41.098 47.0251 38.515 46.2434 36.8837 45.9035C36.8837 45.1218 36.8837 44.3062 36.8837 43.5245C37.5634 43.6944 38.1752 43.9323 38.583 44.1702C39.2627 44.5781 39.9085 43.5245 39.2288 43.0826C38.583 42.6748 37.8013 42.4029 36.9517 42.233C36.9517 42.097 36.9517 41.9611 36.9517 41.8251C36.9856 41.0095 35.7281 41.0095 35.6942 41.8251C35.6942 41.8931 35.6942 41.9951 35.6942 42.063C35.3203 42.0291 34.9125 42.0291 34.5386 42.063C34.5386 41.9951 34.5386 41.9271 34.5386 41.8251C34.5726 41.0095 33.3151 41.0095 33.2811 41.8251C33.2811 41.9611 33.2811 42.063 33.2811 42.199C32.7713 42.301 32.3295 42.4369 31.9216 42.6068C30.6981 43.1846 29.7465 44.68 31.072 45.7336C31.6158 46.1754 32.4994 46.3114 33.2471 46.4133C33.2471 47.331 33.3151 48.2146 33.3491 49.1323C31.9896 49.0303 30.6641 48.7244 30.6641 48.0787C30.6641 47.263 29.4406 47.263 29.4066 48.0787C29.3726 49.914 31.6497 50.3558 33.3831 50.4577ZM38.549 47.7728C39.5007 48.4185 38.8889 48.5545 38.0392 48.8944C37.6994 49.0303 37.3255 49.1323 36.9856 49.1663C36.9517 48.4865 36.9177 47.8068 36.9177 47.0931C37.5294 47.263 38.1072 47.4669 38.549 47.7728ZM35.6262 43.3545C35.6262 44.1362 35.5922 44.9179 35.6262 45.6996C35.2523 45.6316 34.8445 45.5297 34.4706 45.4617C34.4706 44.748 34.4706 44.0003 34.5046 43.2866C34.8445 43.2866 35.2523 43.3205 35.6262 43.3545ZM32.3295 43.8983C32.5674 43.6944 32.8733 43.5585 33.2471 43.4565C33.2471 44.0343 33.2471 44.612 33.2471 45.2238C32.3974 45.0199 31.3099 44.714 32.3295 43.8983ZM34.4706 46.7532C34.8445 46.8212 35.2183 46.8552 35.6262 46.9231C35.6602 47.7048 35.6602 48.5205 35.7281 49.3022C35.4562 49.3022 35.0484 49.3022 34.5726 49.3022C34.5386 48.4525 34.5046 47.6029 34.4706 46.7532Z" fill="#003CA3"/>
<path d="M52.8216 46.111C52.8216 46.043 52.8216 46.0091 52.7876 45.9411C52.7876 45.7711 52.7876 45.6352 52.8216 45.4653C52.6176 36.8327 40.5184 35.5072 34.027 35.5752C27.7054 35.6091 16.8977 37.7163 17.2715 45.7372C17.2376 45.8391 17.2036 45.9071 17.2036 46.0091C17.1696 47.4705 17.0676 49.3737 17.1356 51.243V51.277C17.1016 52.9423 16.9657 55.1175 17.1016 57.2246C17.0676 58.754 16.9657 60.5893 17.1016 62.3226C16.9997 65.6533 16.6598 70.4454 18.8689 72.9604C22.2336 76.7669 29.0309 76.9029 33.6191 76.9709C38.887 77.0728 45.4465 76.597 49.7628 73.1984C53.3314 70.3775 52.7876 65.9932 52.7196 61.8468C52.8555 60.1815 52.7536 58.4482 52.7196 56.7488C52.8555 55.1854 52.7536 53.5881 52.7196 51.9907C53.0255 50.1554 52.8555 48.0822 52.8216 46.111ZM51.1222 51.4469C51.1222 51.5829 51.1222 51.7528 51.1222 51.8887C50.8503 53.792 50.1366 55.5253 48.3353 56.7488C44.2909 59.5357 38.4452 59.8416 33.7211 59.7736C29.8466 59.7057 22.9133 59.7396 20.1604 56.239C19.2428 55.0835 18.9029 53.3502 18.8009 51.5489C18.8009 51.4809 18.8009 51.4129 18.8009 51.345C18.8009 51.277 18.8009 51.209 18.767 51.141C18.767 51.141 18.767 51.141 18.767 51.1071C19.7186 52.8064 21.146 54.1658 23.1512 55.0495C27.3656 56.9527 32.3276 57.0547 36.8478 56.5449C40.9262 56.1031 46.1262 55.5933 49.5249 53.0443C50.1706 52.5685 50.6804 52.0247 51.1222 51.4469ZM18.8009 57.3946C18.8009 57.3266 18.8009 57.2246 18.8009 57.1567C18.8689 57.2246 18.9029 57.3266 18.9709 57.3946C22.3355 61.2011 29.1329 61.337 33.7211 61.405C38.989 61.507 45.5484 61.0311 49.8647 57.6325C50.3405 57.2586 50.7484 56.8508 51.0882 56.409C51.0882 56.4769 51.0882 56.5449 51.0882 56.6469C50.8843 58.754 50.2046 60.6573 48.2673 61.9828C44.2229 64.7697 38.3772 65.0756 33.6531 65.0076C29.7786 64.9396 22.8454 64.9736 20.0924 61.473C19.3107 60.4534 18.9369 58.9919 18.8009 57.3946ZM18.9369 62.6625C22.3016 66.469 29.0989 66.6049 33.6871 66.6729C38.955 66.7749 45.5144 66.2991 49.8307 62.9004C50.3405 62.4926 50.7824 62.0507 51.1222 61.5749C51.1222 61.6089 51.1222 61.6429 51.1222 61.6769V61.7109C50.9183 63.7841 50.2386 65.6873 48.3013 67.0128C44.2569 69.7997 38.4112 70.1056 33.6871 70.0376C29.8126 69.9696 22.8793 70.0036 20.1264 66.503C19.3447 65.4834 18.9709 64.022 18.8349 62.4586C18.8689 62.5605 18.9029 62.6285 18.9369 62.6625ZM34.027 37.2405C39.4308 37.2065 51.0203 38.1242 51.1902 45.4653C51.1222 48.3881 50.1366 50.9711 47.3837 52.3646C44.2909 53.9619 40.2465 54.4717 36.8478 54.8456C30.5603 55.5253 21.4179 55.3554 19.3787 48.0483C16.9317 39.3477 27.6035 37.3085 34.027 37.2405ZM48.3013 72.3827C44.2569 75.1696 38.4112 75.4755 33.6871 75.4075C29.8126 75.3395 22.8793 75.3735 20.1264 71.8729C19.2768 70.8193 18.9369 69.2219 18.8009 67.5566C18.8349 67.6245 18.9029 67.6925 18.9369 67.7605C22.3016 71.567 29.0989 71.7029 33.6871 71.7709C38.955 71.8729 45.5144 71.3971 49.8307 67.9984C50.3745 67.5906 50.7824 67.1147 51.1562 66.6389C50.9863 68.882 50.3405 70.9552 48.3013 72.3827Z" fill="#003CA3"/>
</svg>
