<svg width="18" height="18" viewBox="0 0 18 18" fill="none" xmlns="http://www.w3.org/2000/svg">
                                    <path d="M14.677 5.0625H3.31451C3.1761 5.06315 3.04266 5.11418 2.93914 5.20606C2.83562 5.29793 2.7691 5.42436 2.75201 5.56172L1.75357 14.5617C1.74469 14.6401 1.75241 14.7195 1.77623 14.7948C1.80005 14.87 1.83943 14.9394 1.89182 14.9984C1.94421 15.0574 2.00843 15.1048 2.08031 15.1374C2.15219 15.1699 2.23012 15.187 2.30904 15.1875H15.6825C15.7614 15.187 15.8393 15.1699 15.9112 15.1374C15.9831 15.1048 16.0473 15.0574 16.0997 14.9984C16.1521 14.9394 16.1915 14.87 16.2153 14.7948C16.2391 14.7195 16.2468 14.6401 16.2379 14.5617L15.2395 5.56172C15.2224 5.42436 15.1559 5.29793 15.0524 5.20606C14.9489 5.11418 14.8154 5.06315 14.677 5.0625V5.0625Z" stroke="#fff" stroke-width="1.125" stroke-linecap="round" stroke-linejoin="round"></path>
                                    <path d="M6.1875 7.3125V5.0625C6.1875 4.31658 6.48382 3.60121 7.01126 3.07376C7.53871 2.54632 8.25408 2.25 9 2.25C9.74592 2.25 10.4613 2.54632 10.9887 3.07376C11.5162 3.60121 11.8125 4.31658 11.8125 5.0625V7.3125" stroke="#fff" stroke-width="1.125" stroke-linecap="round" stroke-linejoin="round"></path>
                                </svg>