<svg width="54" height="38" viewBox="0 0 54 38" fill="none" xmlns="http://www.w3.org/2000/svg">
<rect x="1.64424" y="1.34345" width="51.4223" height="35.6697" rx="4.59582" fill="white" stroke="#E8E9EA" stroke-width="1.31309"/>
<path fill-rule="evenodd" clip-rule="evenodd" d="M27.7153 26.5617C26.0094 28.0334 23.7967 28.9218 21.3789 28.9218C15.9833 28.9218 11.6094 24.4976 11.6094 19.04C11.6094 13.5824 15.9833 9.1582 21.3789 9.1582C23.7967 9.1582 26.0094 10.0466 27.7153 11.5183C29.4211 10.0466 31.6338 9.1582 34.0516 9.1582C39.4472 9.1582 43.8212 13.5824 43.8212 19.04C43.8212 24.4976 39.4472 28.9218 34.0516 28.9218C31.6338 28.9218 29.4211 28.0334 27.7153 26.5617Z" fill="#ED0006"/>
<path fill-rule="evenodd" clip-rule="evenodd" d="M27.7109 26.5617C29.8119 24.7492 31.1441 22.052 31.1441 19.04C31.1441 16.028 29.8119 13.3308 27.7109 11.5183C29.4168 10.0466 31.6295 9.1582 34.0473 9.1582C39.4429 9.1582 43.8168 13.5824 43.8168 19.04C43.8168 24.4976 39.4429 28.9218 34.0473 28.9218C31.6295 28.9218 29.4168 28.0334 27.7109 26.5617Z" fill="#F9A000"/>
<path fill-rule="evenodd" clip-rule="evenodd" d="M27.7105 26.561C29.8115 24.7485 31.1437 22.0513 31.1437 19.0393C31.1437 16.0273 29.8115 13.3301 27.7105 11.5176C25.6096 13.3301 24.2773 16.0273 24.2773 19.0393C24.2773 22.0513 25.6096 24.7485 27.7105 26.561Z" fill="#FF5E00"/>
</svg>
