<svg width="54" height="38" viewBox="0 0 54 38" fill="none" xmlns="http://www.w3.org/2000/svg">
<rect x="0.945017" y="1.34345" width="51.4223" height="35.6697" rx="4.59582" fill="white" stroke="#E8E9EA" stroke-width="1.31309"/>
<path fill-rule="evenodd" clip-rule="evenodd" d="M14.6658 14.9766H12.2112C12.0433 14.9766 11.9004 15.0986 11.8742 15.2644L10.8815 21.5579C10.8617 21.6821 10.9579 21.794 11.0839 21.794H12.2557C12.4237 21.794 12.5666 21.672 12.5928 21.5059L12.8605 19.8085C12.8863 19.6422 13.0296 19.5203 13.1972 19.5203H13.9742C15.5911 19.5203 16.5242 18.738 16.768 17.1877C16.8778 16.5094 16.7727 15.9765 16.455 15.6032C16.1062 15.1935 15.4873 14.9766 14.6658 14.9766ZM14.949 17.2752C14.8148 18.1559 14.1418 18.1559 13.4911 18.1559H13.1207L13.3806 16.5111C13.396 16.4118 13.4821 16.3385 13.5826 16.3385H13.7524C14.1957 16.3385 14.6138 16.3385 14.8299 16.5911C14.9586 16.7419 14.9982 16.9658 14.949 17.2752ZM22.0031 17.2469H20.8277C20.7275 17.2469 20.641 17.3202 20.6255 17.4197L20.5735 17.7483L20.4913 17.6292C20.2369 17.2599 19.6695 17.1365 19.1031 17.1365C17.8041 17.1365 16.6948 18.1202 16.4787 19.5001C16.3664 20.1883 16.526 20.8464 16.9165 21.3054C17.2748 21.7274 17.7874 21.9033 18.3971 21.9033C19.4436 21.9033 20.0241 21.2304 20.0241 21.2304L19.9716 21.557C19.9519 21.6819 20.048 21.7939 20.1733 21.7939H21.2321C21.4005 21.7939 21.5425 21.6718 21.5691 21.5057L22.2044 17.4831C22.2245 17.3594 22.1287 17.2469 22.0031 17.2469ZM20.3646 19.5344C20.2512 20.2059 19.7182 20.6566 19.0385 20.6566C18.6972 20.6566 18.4243 20.5472 18.2493 20.3397C18.0755 20.1338 18.0094 19.8405 18.0647 19.514C18.1707 18.8482 18.7127 18.3829 19.382 18.3829C19.7157 18.3829 19.9871 18.4937 20.1658 18.7029C20.3448 18.9143 20.4159 19.2093 20.3646 19.5344ZM27.082 17.2468H28.2633C28.4287 17.2468 28.5252 17.4323 28.4312 17.568L24.5026 23.238C24.439 23.3299 24.3342 23.3845 24.2223 23.3845H23.0425C22.8764 23.3845 22.7794 23.1975 22.8756 23.0615L24.0989 21.335L22.7979 17.5173C22.7528 17.3846 22.8508 17.2468 22.992 17.2468H24.1527C24.3035 17.2468 24.4365 17.3458 24.48 17.4901L25.1705 19.7958L26.7997 17.3964C26.8635 17.3027 26.9694 17.2468 27.082 17.2468Z" fill="#253B80"/>
<path fill-rule="evenodd" clip-rule="evenodd" d="M39.8885 21.5563L40.8959 15.1477C40.9113 15.0482 40.9975 14.9749 41.0977 14.9746H42.2318C42.357 14.9746 42.4532 15.0869 42.4334 15.2111L41.44 21.5043C41.4141 21.6703 41.2713 21.7924 41.103 21.7924H40.0902C39.9649 21.7924 39.8688 21.6805 39.8885 21.5563ZM32.1737 14.9749H29.7187C29.5511 14.9749 29.4083 15.097 29.382 15.2627L28.3893 21.5563C28.3695 21.6805 28.4657 21.7924 28.5911 21.7924H29.8507C29.9678 21.7924 30.068 21.707 30.0863 21.5908L30.368 19.8068C30.3939 19.6406 30.537 19.5187 30.7046 19.5187H31.4813C33.0985 19.5187 34.0315 18.7363 34.2754 17.186C34.3856 16.5078 34.2798 15.9749 33.9622 15.6015C33.6136 15.1918 32.9952 14.9749 32.1737 14.9749ZM32.4569 17.2736C32.323 18.1542 31.65 18.1542 30.9989 18.1542H30.6289L30.8892 16.5095C30.9046 16.4101 30.99 16.3369 31.0908 16.3369H31.2605C31.7035 16.3369 32.1221 16.3369 32.338 16.5895C32.4669 16.7403 32.5061 16.9642 32.4569 17.2736ZM39.5103 17.2453H38.3357C38.2348 17.2453 38.1491 17.3186 38.1339 17.418L38.082 17.7467L37.9994 17.6276C37.7449 17.2583 37.1779 17.1349 36.6115 17.1349C35.3125 17.1349 34.2035 18.1185 33.9874 19.4984C33.8755 20.1866 34.0344 20.8448 34.4249 21.3038C34.7839 21.7258 35.2958 21.9017 35.9055 21.9017C36.952 21.9017 37.5323 21.2288 37.5323 21.2288L37.48 21.5554C37.4603 21.6803 37.5564 21.7922 37.6825 21.7922H38.7408C38.9084 21.7922 39.0513 21.6702 39.0775 21.5041L39.7131 17.4815C39.7326 17.3578 39.6364 17.2453 39.5103 17.2453ZM37.872 19.5328C37.7592 20.2043 37.2256 20.655 36.5458 20.655C36.2051 20.655 35.9317 20.5455 35.7565 20.3381C35.5828 20.1322 35.5175 19.8389 35.5721 19.5124C35.6786 18.8466 36.2199 18.3813 36.8892 18.3813C37.2231 18.3813 37.4943 18.492 37.6732 18.7013C37.8529 18.9127 37.924 19.2076 37.872 19.5328Z" fill="#179BD7"/>
</svg>
