<svg width="18" height="19" viewBox="0 0 18 19" fill="none" xmlns="http://www.w3.org/2000/svg">
                                    <path d="M9.11406 8.6525C9.03906 8.645 8.94906 8.645 8.86656 8.6525C7.08156 8.5925 5.66406 7.13 5.66406 5.33C5.66406 3.4925 7.14906 2 8.99406 2C10.8316 2 12.3241 3.4925 12.3241 5.33C12.3166 7.13 10.8991 8.5925 9.11406 8.6525Z" stroke="#fff" stroke-linecap="round" stroke-linejoin="round"></path>
                                    <path d="M5.36125 11.422C3.54625 12.637 3.54625 14.617 5.36125 15.8245C7.42375 17.2045 10.8063 17.2045 12.8688 15.8245C14.6838 14.6095 14.6838 12.6295 12.8688 11.422C10.8138 10.0495 7.43125 10.0495 5.36125 11.422Z" stroke="#fff" stroke-linecap="round" stroke-linejoin="round"></path>
                                </svg>