<svg width="36" height="36" viewBox="0 0 36 36" fill="none" xmlns="http://www.w3.org/2000/svg">
<path d="M22.8164 33.3633V34.418C22.8164 34.998 22.3418 35.4727 21.7617 35.4727H3.69141C3.11133 35.4727 2.63672 34.998 2.63672 34.418V7.91016C2.63672 7.33008 3.11133 6.85547 3.69141 6.85547H4.74609L22.8164 33.3633Z" fill="#9EC8FC"/>
<path d="M27.0352 18.5977L29.1445 15.014V1.58203C29.1445 1.00195 28.6699 0.527344 28.0898 0.527344H5.80078L5.44922 32.6602L29.1445 32.3086V22.8341L27.0352 18.5977Z" fill="#5F6C75"/>
<path d="M5.80078 31.7812V0.527344C5.2207 0.527344 4.74609 1.00195 4.74609 1.58203V32.3086C4.74609 32.8887 5.2207 33.3633 5.80078 33.3633H28.0898C28.6699 33.3633 29.1445 32.8887 29.1445 32.3086H6.32812C6.03809 32.3086 5.80078 32.0713 5.80078 31.7812Z" fill="#4E5A61"/>
<path d="M27.0352 21.3229C27.7233 21.6498 28.4228 22.2348 29.1445 22.8357V15.0156L21.2344 18.5666L27.0352 21.3229Z" fill="#4E5A61"/>
<path d="M26.5078 31.2539H7.38281C7.09277 31.2539 6.85547 31.0166 6.85547 30.7266V18.5977L7.55859 12.7266L6.85547 6.85547V3.16406C6.85547 2.87402 7.09277 2.63672 7.38281 2.63672H26.5078C26.7979 2.63672 27.0352 2.87402 27.0352 3.16406V15.9258L26.332 18.5977L27.0352 21.3213V30.7266C27.0352 31.0166 26.7979 31.2539 26.5078 31.2539Z" fill="#B9C3CD"/>
<path d="M21.3936 18.6406L27.0084 17.9375V21.2877L21.3936 18.6406Z" fill="#909BA6"/>
<path d="M12.6402 18.5977C12.6402 18.5977 11.5373 23.2071 12.2558 23.7291C12.9743 24.2511 16.9452 21.5558 16.9452 21.5558C16.9452 21.5558 20.916 24.2511 21.6345 23.7291C22.353 23.2071 21.2501 18.5977 21.2501 18.5977L16.9452 17.8945L12.6402 18.5977Z" fill="#909BA6"/>
<path d="M12.6404 18.5977H6.85547V6.85547H21.2604V15.9258L12.6404 18.5977Z" fill="#F8E837"/>
<path d="M21.2504 18.5978C21.2504 18.5978 24.8074 15.6542 24.533 14.8096C24.2586 13.9649 19.4618 13.8115 19.4618 13.8115C19.4618 13.8115 17.8336 9.29688 16.9454 9.29688C16.0573 9.29688 14.4291 13.8114 14.4291 13.8114C14.4291 13.8114 9.6323 13.9649 9.35787 14.8095C9.08344 15.6542 12.6405 18.5977 12.6405 18.5977H21.2504V18.5978Z" fill="#EBB044"/>
<path d="M24.9258 6.85547H21.7617L21.0586 18.2461L25.047 17.543L25.6289 12.4791L24.9258 6.85547Z" fill="#9EC8FC"/>
<path d="M21.7617 17.0156V6.85547H21.2344C20.9443 6.85547 20.707 7.09277 20.707 7.38281V18.0703C20.707 18.3604 20.9443 18.5977 21.2344 18.5977H24.9258L25.047 17.543H22.2891C21.999 17.543 21.7617 17.3057 21.7617 17.0156Z" fill="#62A4FB"/>
<path d="M31.4884 5.80078C29.8948 5.80078 28.4414 6.85547 27.0352 6.85547H25.9805L25.2773 17.8945C25.2773 17.8945 27.5131 17.52 29.7928 18.2461C32.9365 19.2474 33.3633 18.1514 33.3633 18.1514V7.20703C33.3633 6.62695 33.082 5.80078 31.4884 5.80078Z" fill="#4377C4"/>
<path d="M28.0898 17.1914H25.9805V6.85547H24.9258V18.5977H27.0352C28.4414 18.5977 29.8948 19.6523 31.4884 19.6523C33.082 19.6523 33.3633 18.8262 33.3633 18.2461V18.1514C33.1385 18.2111 32.8686 18.2461 32.5431 18.2461C30.9495 18.2461 29.4961 17.1914 28.0898 17.1914Z" fill="#30569F"/>
<path d="M21.7617 36H3.69141C2.81904 36 2.10938 35.2903 2.10938 34.418V18.672C2.10938 18.3807 2.34548 18.1446 2.63672 18.1446C2.92795 18.1446 3.16406 18.3807 3.16406 18.672V34.418C3.16406 34.7088 3.40059 34.9453 3.69141 34.9453H21.7617C22.0525 34.9453 22.2891 34.7088 22.2891 34.418V33.8906H5.80078C4.92841 33.8906 4.21875 33.181 4.21875 32.3086V7.38281H3.69141C3.40059 7.38281 3.16406 7.61934 3.16406 7.91016V16.5626C3.16406 16.8538 2.92795 17.0899 2.63672 17.0899C2.34548 17.0899 2.10938 16.8538 2.10938 16.5626V7.91016C2.10938 7.03779 2.81904 6.32812 3.69141 6.32812H4.21875V1.58203C4.21875 0.709664 4.92841 0 5.80078 0H28.0898C28.9621 0 29.6719 0.709664 29.6719 1.58203V4.23555C29.6719 4.52679 29.4358 4.7629 29.1445 4.7629C28.8532 4.7629 28.6172 4.52679 28.6172 4.23555V1.58203C28.6172 1.29122 28.3807 1.05469 28.0898 1.05469H5.80078C5.50997 1.05469 5.27344 1.29122 5.27344 1.58203V32.3086C5.27344 32.5994 5.50997 32.8359 5.80078 32.8359H28.0898C28.3807 32.8359 28.6172 32.5994 28.6172 32.3086V19.4806C28.253 19.3535 27.9006 19.2408 27.5625 19.1779V30.7266C27.5625 31.3081 27.0894 31.7812 26.5078 31.7812H7.38281C6.80126 31.7812 6.32812 31.3081 6.32812 30.7266V3.16406C6.32812 2.58251 6.80126 2.10938 7.38281 2.10938H26.5078C27.0894 2.10938 27.5625 2.58251 27.5625 3.16406V6.27525C28.001 6.19362 28.4635 6.02831 28.9448 5.85626C29.7464 5.56973 30.5753 5.27344 31.4885 5.27344C33.7174 5.27344 33.8906 6.75345 33.8906 7.20703V18.2461C33.8906 18.6997 33.7174 20.1797 31.4885 20.1797C30.8481 20.1797 30.2491 20.0339 29.6719 19.848V32.3086C29.6719 33.181 28.9621 33.8906 28.0898 33.8906H23.3438V34.418C23.3438 35.2903 22.634 36 21.7617 36ZM7.38281 3.16406V30.7266H26.5078V19.125H13.061C12.5938 21.2334 12.4546 22.8045 12.5807 23.265C12.7794 23.2414 13.3644 23.0947 14.7856 22.2797C15.7662 21.7174 16.6404 21.1254 16.6491 21.1195C16.8279 20.9981 17.0626 20.9981 17.2414 21.1195C17.2501 21.1254 18.1243 21.7174 19.105 22.2797C20.5156 23.0887 21.1025 23.2393 21.3055 23.2644C21.3559 23.0557 21.426 22.403 21.1203 20.6132C21.0712 20.3261 21.2642 20.0537 21.5513 20.0046C21.8381 19.9557 22.1108 20.1485 22.1598 20.4356C22.6358 23.2218 22.3376 23.8701 21.9445 24.1557C21.5691 24.4283 20.9237 24.5131 18.762 23.2978C18.0179 22.8795 17.3236 22.4364 16.9452 22.1887C16.5668 22.4364 15.8725 22.8795 15.1284 23.2978C12.9665 24.5131 12.3212 24.4284 11.9459 24.1556C11.594 23.9 11.3104 23.3613 11.6161 21.1698C11.7221 20.4094 11.872 19.6463 11.9826 19.1249H8.96484C8.67361 19.1249 8.4375 18.8888 8.4375 18.5976C8.4375 18.3064 8.67361 18.0702 8.96484 18.0702H20.1797V14.3745C19.7415 14.348 19.4486 14.3384 19.4448 14.3383C19.2289 14.3313 19.039 14.1934 18.9657 13.9901C18.9621 13.9802 18.6028 12.9874 18.14 11.9561C17.484 10.4944 17.0994 10.0197 16.9454 9.87244C16.7911 10.02 16.4057 10.4956 15.7484 11.9614C15.2859 12.9926 14.9287 13.9802 14.9252 13.9901C14.8519 14.1934 14.6619 14.3313 14.446 14.3383C14.4355 14.3386 13.3803 14.3735 12.2563 14.495C10.641 14.6696 10.0773 14.8924 9.89775 14.9915C9.9597 15.1375 10.158 15.4851 10.7902 16.1584C10.9896 16.3707 10.9791 16.7044 10.7667 16.9038C10.5544 17.1032 10.2207 17.0926 10.0213 16.8803C9.02355 15.8177 8.68598 15.1705 8.85635 14.6464C8.99972 14.2052 9.47194 13.7572 11.9353 13.4698C12.7832 13.3708 13.6053 13.3212 14.057 13.2992C14.2175 12.8763 14.5188 12.1098 14.8749 11.334C15.9095 9.08002 16.4814 8.76931 16.9454 8.76931C17.4094 8.76931 17.9812 9.08002 19.0159 11.334C19.372 12.1099 19.6733 12.8765 19.8338 13.2993C19.9325 13.3041 20.049 13.3102 20.1798 13.318V7.38281H12.4116C12.1203 7.38281 11.8842 7.1467 11.8842 6.85547C11.8842 6.56423 12.1203 6.32812 12.4116 6.32812H26.5078V3.16406H7.38281ZM25.4531 18.0703H27.0352C27.8077 18.0703 28.5663 18.3414 29.2999 18.6037C30.0168 18.86 30.7581 19.125 31.4885 19.125C32.8359 19.125 32.8359 18.4865 32.8359 18.2461V7.20703C32.8359 6.96663 32.8359 6.32812 31.4885 6.32812C30.7581 6.32812 30.0168 6.59313 29.2999 6.84942C28.5663 7.11169 27.8077 7.38281 27.0352 7.38281H25.4531V18.0703ZM21.2344 18.0703H24.3984V7.38281H21.2344V13.8763V13.8861V18.0703ZM10.3022 7.38281H8.96484C8.67361 7.38281 8.4375 7.1467 8.4375 6.85547C8.4375 6.56423 8.67361 6.32812 8.96484 6.32812H10.3022C10.5934 6.32812 10.8295 6.56423 10.8295 6.85547C10.8295 7.1467 10.5934 7.38281 10.3022 7.38281Z" fill="black"/>
</svg>
