<svg width="42" height="42" viewBox="0 0 42 42" fill="none" xmlns="http://www.w3.org/2000/svg">
                                <path d="M29.8352 14.875H12.1602C11.9449 14.876 11.7374 14.9554 11.5763 15.0983C11.4153 15.2412 11.3118 15.4379 11.2852 15.6516L9.73212 29.6516C9.71831 29.7735 9.73032 29.8971 9.76737 30.0141C9.80442 30.1311 9.86568 30.2391 9.94717 30.3309C10.0287 30.4227 10.1286 30.4963 10.2404 30.547C10.3522 30.5977 10.4734 30.6242 10.5962 30.625H31.3993C31.5221 30.6242 31.6433 30.5977 31.7551 30.547C31.8669 30.4963 31.9668 30.4227 32.0483 30.3309C32.1298 30.2391 32.1911 30.1311 32.2281 30.0141C32.2652 29.8971 32.2772 29.7735 32.2634 29.6516L30.7102 15.6516C30.6837 15.4379 30.5802 15.2412 30.4192 15.0983C30.2581 14.9554 30.0506 14.876 29.8352 14.875V14.875Z" stroke="#131740" stroke-width="1.75" stroke-linecap="round" stroke-linejoin="round"></path>
                                <path d="M16.625 18.375V14.875C16.625 13.7147 17.0859 12.6019 17.9064 11.7814C18.7269 10.9609 19.8397 10.5 21 10.5C22.1603 10.5 23.2731 10.9609 24.0936 11.7814C24.9141 12.6019 25.375 13.7147 25.375 14.875V18.375" stroke="#131740" stroke-width="1.75" stroke-linecap="round" stroke-linejoin="round"></path>
                            </svg>