<svg width="81" height="17" viewBox="0 0 81 17" fill="none" xmlns="http://www.w3.org/2000/svg">
<path d="M7.76787 1.68411C7.97755 1.26209 8.57958 1.26209 8.78926 1.68411L10.5017 5.13077C10.5848 5.29789 10.7443 5.41382 10.9289 5.44114L14.7361 6.00474C15.2023 6.07375 15.3883 6.64631 15.0517 6.97614L12.3029 9.66989C12.1697 9.8005 12.1087 9.98807 12.1398 10.1721L12.7802 13.9671C12.8587 14.4317 12.3716 14.7856 11.9539 14.5674L8.54258 12.7856C8.37717 12.6992 8.17996 12.6992 8.01455 12.7856L4.60322 14.5674C4.18553 14.7856 3.69848 14.4317 3.7769 13.9671L4.41736 10.1721C4.44842 9.98807 4.38748 9.8005 4.25419 9.66989L1.50541 6.97614C1.16884 6.64631 1.35487 6.07375 1.82104 6.00474L5.62819 5.44114C5.8128 5.41382 5.97235 5.2979 6.05538 5.13077L7.76787 1.68411Z" fill="#FEA500"/>
<path d="M23.7356 1.68411C23.9453 1.26209 24.5474 1.26209 24.757 1.68411L26.4695 5.13077C26.5526 5.29789 26.7121 5.41382 26.8967 5.44114L30.7039 6.00474C31.17 6.07375 31.3561 6.64631 31.0195 6.97614L28.2707 9.66989C28.1374 9.8005 28.0765 9.98807 28.1075 10.1721L28.748 13.9671C28.8264 14.4317 28.3394 14.7856 27.9217 14.5674L24.5104 12.7856C24.3449 12.6992 24.1477 12.6992 23.9823 12.7856L20.571 14.5674C20.1533 14.7856 19.6662 14.4317 19.7447 13.9671L20.3851 10.1721C20.4162 9.98807 20.3552 9.8005 20.222 9.66989L17.4732 6.97614C17.1366 6.64631 17.3226 6.07375 17.7888 6.00474L21.596 5.44114C21.7806 5.41382 21.9401 5.2979 22.0232 5.13077L23.7356 1.68411Z" fill="#FEA500"/>
<path d="M39.7024 1.68411C39.9121 1.26209 40.5141 1.26209 40.7238 1.68411L42.4363 5.13077C42.5194 5.29789 42.6789 5.41382 42.8635 5.44114L46.6707 6.00474C47.1368 6.07375 47.3229 6.64631 46.9863 6.97614L44.2375 9.66989C44.1042 9.8005 44.0433 9.98807 44.0743 10.1721L44.7148 13.9671C44.7932 14.4317 44.3062 14.7856 43.8885 14.5674L40.4772 12.7856C40.3117 12.6992 40.1145 12.6992 39.9491 12.7856L36.5378 14.5674C36.1201 14.7856 35.633 14.4317 35.7115 13.9671L36.3519 10.1721C36.383 9.98807 36.322 9.8005 36.1888 9.66989L33.44 6.97614C33.1034 6.64631 33.2894 6.07375 33.7556 6.00474L37.5628 5.44114C37.7474 5.41382 37.9069 5.2979 37.99 5.13077L39.7024 1.68411Z" fill="#FEA500"/>
<path d="M55.6702 1.68411C55.8799 1.26209 56.4819 1.26209 56.6916 1.68411L58.4041 5.13077C58.4871 5.29789 58.6467 5.41382 58.8313 5.44114L62.6384 6.00474C63.1046 6.07375 63.2906 6.64631 62.9541 6.97614L60.2053 9.66989C60.072 9.8005 60.0111 9.98807 60.0421 10.1721L60.6826 13.9671C60.761 14.4317 60.274 14.7856 59.8563 14.5674L56.4449 12.7856C56.2795 12.6992 56.0823 12.6992 55.9169 12.7856L52.5056 14.5674C52.0879 14.7856 51.6008 14.4317 51.6792 13.9671L52.3197 10.1721C52.3508 9.98807 52.2898 9.8005 52.1565 9.66989L49.4078 6.97614C49.0712 6.64631 49.2572 6.07375 49.7234 6.00474L53.5305 5.44114C53.7151 5.41382 53.8747 5.2979 53.9577 5.13077L55.6702 1.68411Z" fill="#FEA500"/>
<path d="M71.637 1.68411C71.8467 1.26209 72.4487 1.26209 72.6584 1.68411L74.3709 5.13077C74.4539 5.29789 74.6135 5.41382 74.7981 5.44114L78.6052 6.00474C79.0714 6.07375 79.2574 6.64631 78.9209 6.97614L76.1721 9.66989C76.0388 9.8005 75.9779 9.98807 76.0089 10.1721L76.6494 13.9671C76.7278 14.4317 76.2407 14.7856 75.823 14.5674L72.4117 12.7856C72.2463 12.6992 72.0491 12.6992 71.8837 12.7856L68.4724 14.5674C68.0547 14.7856 67.5676 14.4317 67.646 13.9671L68.2865 10.1721C68.3176 9.98807 68.2566 9.8005 68.1233 9.66989L65.3746 6.97614C65.038 6.64631 65.224 6.07375 65.6902 6.00474L69.4973 5.44114C69.6819 5.41382 69.8415 5.2979 69.9245 5.13077L71.637 1.68411Z" fill="#FEA500"/>
</svg>
