<svg width="25" height="25" viewBox="0 0 25 25" fill="none" xmlns="http://www.w3.org/2000/svg">
<path d="M11.6847 2.30176C11.992 1.68328 12.8742 1.68328 13.1815 2.30176L15.6912 7.35291C15.8129 7.59784 16.0467 7.76772 16.3173 7.80777L21.8967 8.63373C22.5799 8.73486 22.8526 9.57396 22.3593 10.0573L18.3309 14.0051C18.1356 14.1965 18.0463 14.4714 18.0918 14.7411L19.0304 20.3027C19.1453 20.9837 18.4315 21.5023 17.8194 21.1825L12.82 18.5712C12.5776 18.4446 12.2886 18.4446 12.0462 18.5712L7.04681 21.1825C6.43467 21.5023 5.72089 20.9837 5.83582 20.3027L6.77443 14.7411C6.81994 14.4714 6.73063 14.1965 6.5353 14.0051L2.50691 10.0573C2.01365 9.57396 2.28629 8.73486 2.96947 8.63373L8.54893 7.80777C8.81947 7.76772 9.05329 7.59784 9.17498 7.35291L11.6847 2.30176Z" fill="#FEA500"/>
</svg>
