<svg width="53" height="37" viewBox="0 0 53 37" fill="none" xmlns="http://www.w3.org/2000/svg">
<rect x="0.5" y="0.5" width="52" height="36" rx="5" fill="white" stroke="#E8E9EA"/>
<path fill-rule="evenodd" clip-rule="evenodd" d="M16.484 24.7105H13.3944L11.0775 15.8645C10.9676 15.4575 10.7341 15.0978 10.3906 14.9282C9.53347 14.5022 8.58897 14.1631 7.55859 13.992V13.6515H12.5357C13.2226 13.6515 13.7378 14.1631 13.8237 14.7572L15.0258 21.1382L18.1139 13.6515H21.1176L16.484 24.7105ZM22.8319 24.7105H19.914L22.3167 13.6515H25.2346L22.8319 24.7105ZM29.0123 16.7152C29.0981 16.1196 29.6133 15.779 30.2144 15.779C31.1589 15.6935 32.1877 15.8645 33.0464 16.2891L33.5616 13.9081C32.7029 13.5675 31.7584 13.3965 30.9013 13.3965C28.0693 13.3965 26.0085 14.9283 26.0085 17.0543C26.0085 18.6717 27.4682 19.5209 28.4986 20.0325C29.6133 20.5426 30.0426 20.8832 29.9568 21.3933C29.9568 22.1585 29.0981 22.4991 28.241 22.4991C27.2106 22.4991 26.1802 22.244 25.2372 21.8179L24.7221 24.2005C25.7524 24.6251 26.8672 24.7961 27.8975 24.7961C31.073 24.8802 33.0464 23.3498 33.0464 21.0528C33.0464 18.1601 29.0123 17.9905 29.0123 16.7152ZM43.2605 24.7105L40.9437 13.6515H38.4551C37.9399 13.6515 37.4248 13.992 37.253 14.5022L32.9628 24.7105H35.9666L36.5661 23.0946H40.2568L40.6002 24.7105H43.2605ZM38.8835 16.6288L39.7407 20.7967H37.338L38.8835 16.6288Z" fill="#172B85"/>
</svg>
